<svg xmlns="http://www.w3.org/2000/svg" width="300" height="50" viewBox="0 0 300 50">
  <path d="M274.9,45a.7.7,0,0,0-1.1-.4,9.4,9.4,0,0,1-3.1.9c-1,0-1.7-.3-1.7-2V33.4h5.2a.9.9,0,0,0,1-.9V30.2a.9.9,0,0,0-1-1H269V8a.8.8,0,0,0-1.1-.8l-3.2,1.4a.8.8,0,0,0-.5.8V29.2h-2.1a.9.9,0,0,0-1,1v2.3a.9.9,0,0,0,1,.9h2.1V44c0,3.6,1.2,6,5.2,6a15.7,15.7,0,0,0,6-1.5c.5-.3.7-.7.4-1.2Zm16.6-16.3a10,10,0,0,0-6.1,2.2V.9a.9.9,0,0,0-1.3-.8l-2.5,1.1a1.8,1.8,0,0,0-1.1,1.7V48.5a1.1,1.1,0,0,0,1,1h2.9a.9.9,0,0,0,1-1V36.3a6.3,6.3,0,0,1,5.5-3.2c2.6,0,4.3,1.8,4.3,5.1V48.5a1,1,0,0,0,1,1H299a1.1,1.1,0,0,0,1-1V38.3c0-5.5-2.7-9.6-8.5-9.6M254.9,12.9,252.6,14a1.8,1.8,0,0,0-1.1,1.7V48.5a1,1,0,0,0,.9,1h2.9a1,1,0,0,0,1-1V13.9a1,1,0,0,0-1.4-1M240.6,40.6a7.7,7.7,0,0,0-3.6-.8c-2.4,0-4.1,1.3-4.1,3.4a3,3,0,0,0,3.1,3.2,6,6,0,0,0,4.6-2.5Zm4.5-2.9V48.5a1.1,1.1,0,0,1-1,1h-1.4c-.5,0-.7-.2-.9-.7l-.5-1.4a8.6,8.6,0,0,1-6.2,2.6c-3.9,0-6.6-2.6-6.6-6.8s2.9-6.5,8.1-6.5a14.1,14.1,0,0,1,4,.6c.1-3.2-.5-4.5-3.1-4.5a22.6,22.6,0,0,0-5.7.9c-.6.2-1-.2-1.1-.8l-.4-1.9a.8.8,0,0,1,.6-1.1,20.1,20.1,0,0,1,7.1-1.2c6.5,0,7.1,4,7.1,9m-24.7-.6a4.9,4.9,0,0,0-4.7-4.5,5.1,5.1,0,0,0-5.2,4.5Zm4.7,1c0,.3-.1,1-.1,1.4a.9.9,0,0,1-.9.8H210.2a5.9,5.9,0,0,0,5.9,5.4,9.2,9.2,0,0,0,4.5-1.4c.6-.4,1-.6,1.4-.1l1.4,1.9c.4.5.5.9-.1,1.4a12.1,12.1,0,0,1-7.5,2.5c-6.2,0-10.2-4.8-10.2-10.6s4-10.7,10.1-10.7a9.2,9.2,0,0,1,9.4,9.4m-22.7-7.7-6,19.1a.9.9,0,0,1-.9.5h-.2a.9.9,0,0,1-.9-.5L188.2,36h-.1l-6.2,13.5a.8.8,0,0,1-.8.5h-.3a.8.8,0,0,1-.8-.5l-6.1-19.1c-.3-.7,0-1.2.7-1.2h2.8a1.1,1.1,0,0,1,.9.6L181.7,41h.1l5.4-11.8a1.1,1.1,0,0,1,.9-.5h.3a1,1,0,0,1,.8.5l5.4,11.9h.1L198,29.8c.3-.6,1.1-.6,1.6-.6h2a.8.8,0,0,1,.8,1.2" fill="#fdd043"/>
  <path d="M161.2,28.7a10.4,10.4,0,0,0-7.1,2.8l-.6-1.7a.9.9,0,0,0-.8-.6h-1.5a1.1,1.1,0,0,0-1,1V48.5a1.1,1.1,0,0,0,1,1h2.6c.9,0,1.2-.3,1.2-1V36.2a6.7,6.7,0,0,1,5.7-3.1c2.6,0,4.2,1.8,4.2,5V48.5a1,1,0,0,0,.9,1h2.9a1,1,0,0,0,1-1V38.3c0-5.2-2.3-9.6-8.5-9.6M140.6,39.3a5.9,5.9,0,0,0-5.7-6.2,6,6,0,0,0-5.8,6.2,6.1,6.1,0,0,0,5.8,6.3c3.2,0,5.7-2.8,5.7-6.3m4.5,0c0,5.8-4.5,10.7-10.2,10.7a10.7,10.7,0,0,1,0-21.3,10.5,10.5,0,0,1,10.2,10.6M111.4,28.7c-3.9,0-6.8,2.7-7.4,3.2a7.8,7.8,0,0,0-6.6-3.2,9.8,9.8,0,0,0-6.7,2.8l-.5-1.7a1,1,0,0,0-.9-.6H87.9a1.1,1.1,0,0,0-1,1V48.5a1.1,1.1,0,0,0,1,1h2.8a1.1,1.1,0,0,0,1-1V36.2a5.6,5.6,0,0,1,5-3.1c2.9,0,4.4,1.8,4.4,5V48.5a1,1,0,0,0,.9,1h2.7a1.1,1.1,0,0,0,1-1V38a13.4,13.4,0,0,0-.2-2.4,7.7,7.7,0,0,1,5.3-2.5c2.7,0,4.2,1.8,4.2,5V48.5a1,1,0,0,0,1,1h2.8a1,1,0,0,0,1-1V38.3c0-5.2-2.2-9.6-8.4-9.6m-39.2,0c-3.9,0-6.8,2.7-7.4,3.2a7.8,7.8,0,0,0-6.6-3.2,9.8,9.8,0,0,0-6.7,2.8L51,29.8a1,1,0,0,0-.9-.6H48.7a1.1,1.1,0,0,0-1,1V48.5a1.1,1.1,0,0,0,1,1h2.8a1.1,1.1,0,0,0,1-1V36.2a5.6,5.6,0,0,1,5-3.1c2.9,0,4.3,1.8,4.3,5V48.5a1.1,1.1,0,0,0,1,1h2.7a1.1,1.1,0,0,0,1-1V38a13.4,13.4,0,0,0-.2-2.4,7.7,7.7,0,0,1,5.3-2.5c2.7,0,4.2,1.8,4.2,5V48.5a1,1,0,0,0,.9,1h2.9a1,1,0,0,0,1-1V38.3c0-5.2-2.2-9.6-8.4-9.6M38.1,39.3a6,6,0,0,0-5.8-6.2,5.9,5.9,0,0,0-5.7,6.2c0,3.5,2.5,6.3,5.7,6.3a6,6,0,0,0,5.8-6.3m4.5,0A10.6,10.6,0,0,1,32.3,50c-5.7,0-10.2-4.9-10.2-10.7A10.5,10.5,0,0,1,32.3,28.7,10.5,10.5,0,0,1,42.6,39.3m-24.4,5c.5.4.7.9.3,1.4A9,9,0,0,1,10.6,50,10.5,10.5,0,0,1,0,39.4,10.8,10.8,0,0,1,10.7,28.7a9.2,9.2,0,0,1,7.4,3.6,1.1,1.1,0,0,1-.2,1.4l-1.7,1.5c-.6.6-1,.2-1.4-.2a5.7,5.7,0,0,0-4.1-1.9,6.3,6.3,0,0,0,0,12.5c2.6,0,3.6-1.3,4.7-2.3a.9.9,0,0,1,1.4-.1Z" fill="#285ba7"/>
</svg>
