<svg xmlns="http://www.w3.org/2000/svg" width="1024" height="1024" viewBox="0 0 1024 1024">
  <g>
    <g>
      <polygon points="274.1 889 481.2 889 110.3 226.4 274.1 889" fill="#cdd4ab"/>
      <polygon points="127.5 230.8 524.8 889 688.4 889 103 169.4 127.5 230.8" fill="#cdd4ab"/>
      <polygon points="137.7 190.6 731.4 889 925.4 889 137.7 190.6" fill="#cdd4ab"/>
    </g>
    <g>
      <polygon points="284.3 905.3 473.9 914.4 660.6 904.3 431.9 902.2 387.7 903 477.3 906.6 445.2 908.5 305.4 904.4 284.3 905.3" fill="#acb56e"/>
      <polygon points="462.8 902.7 562.9 908.2 570.8 912.1 604.5 915.5 662 904.9 664.2 909.4 685.4 910.2 774.8 903.5 757.7 900.7 615.7 898.2 492.6 900.7 462.8 902.7" fill="#acb56e"/>
    </g>
    <g>
      <path d="M406.3,888a26,26,0,0,1,2.1-6.5c1.4-3.1,3-6.2,4.6-9.1s3-5.6,5.2-6.3c.1,2.2,0,3.2-1.1,4.8-3.4,4.6-5.8,10.9-7.5,16.8-.4,1.1-.9,3.6-1.9,4.1S406,889.6,406.3,888Z" fill="#35353e"/>
      <path d="M398.1,878.4l2.3-1.9a51.8,51.8,0,0,1,11.3-6.7c3.1-1.4,8.1-4.2,11.6-3.6-.6,1.8-2.9,2.5-4.6,2.9a39,39,0,0,0-8,3.1,94.5,94.5,0,0,0-10.9,6.8c-.7.5-3.6,3.8-4.5,3.4S396.3,879.9,398.1,878.4Z" fill="#35353e"/>
      <g>
        <path d="M447.4,854.1c-3.3,1.9-5.6,5.9-9.6,4s-5.2-4.8-10.5-4.6c-3.2.2-7.4.3-9.6,3.1a38.8,38.8,0,0,0-4.6,8.5c-1.3,3.5.1,6.6,3.9,6.6s5.9.8,9.4,2a25.5,25.5,0,0,0,9.6,1.6c3.7-.2,3.9-2.2,6.6-4.2s9.7-3.5,12.1-8.1S452.4,850.2,447.4,854.1Z" fill="#82625d"/>
        <path d="M504.2,802.7c1.1,1.8,2.3,3.6,3.5,5.3a75.9,75.9,0,0,0,35.7,27,71.4,71.4,0,0,0,22.4,4c8.4,0,12.6-1,17.3-8.3,3.6-5.4,6.2-12.5,6.1-19,0-9.5-6.5-11.3-14.6-12.5-10.1-1.5-19.8-6.4-27.6-13s-12.2-11.6-19.1-16.3-12.1-6.6-18.9-6.6-9.5,5.6-11.1,11.1C495,784.3,498.8,794.2,504.2,802.7Z" fill="#a4c4d5"/>
        <path d="M574.6,799.2H574c-5,4.8-10,9.2-16,11.7-14,5-25-15-39-20-7.3-2.9-10.9,5.9-13.5,14l2.2,3.2a75.9,75.9,0,0,0,35.7,27,71.4,71.4,0,0,0,22.4,4c8.4,0,12.6-1,17.3-8.3,3.6-5.4,6.2-12.5,6.1-19C589.2,802.2,582.7,800.4,574.6,799.2Z" fill="#6e8390"/>
        <path d="M501.6,870c2.1,2.8,5.2,5.1,8.7,5.1,5.3,0,10.2-6,11.9-10.6,4.4-11.7,2-27,1.4-39.3-.8-17.8,3.2-35.2,3.5-53.1.1-6.6-7.3-9.8-13-11.6-11.2-3.7-22.5-1.5-28.3,9.4-4.7,8.7-4.5,19.3-3.3,28.8,1.5,11.2,5.2,21.9,9,32.5,2.6,7.2,6.6,14.1,6.9,21.9.1,4.3-.6,8.8.9,12.8A21.2,21.2,0,0,0,501.6,870Z" fill="#a4c4d5"/>
        <path d="M518,787.8c-10.5,28.1-.2,59.4-11.9,86.2a8.8,8.8,0,0,0,4.2,1.1c5.3,0,10.2-6,11.9-10.6,4.4-11.7,2-27,1.4-39.3-.6-13.9,1.6-27.5,2.8-41.3A6.2,6.2,0,0,0,518,787.8Z" fill="#6e8390"/>
        <path d="M499,852.2a28.4,28.4,0,0,1,5-.1c3.2,0,6.5,0,9.8.3s7.3.1,10.9.3a5.8,5.8,0,0,1,1.8.4,3.5,3.5,0,0,1,1.2,2.1c.7,3.1-.3,6.2-.6,9.3-.6,5,.8,10,1.2,15.1.6,7-.5,14-2,20.9a5.6,5.6,0,0,1-.4,1.2,3.1,3.1,0,0,1-1.8.7c-15.2,1.8-30.7,1.4-46,.8-4.8-.2-9.5-.3-14.3-.7-1.8-.1-3.6.3-4-1.8a8.1,8.1,0,0,1,1.3-5.4c1.8-2.3,5.2-2.7,7.9-3.8a26.5,26.5,0,0,0,5-3.2l16.4-12c2.3-1.7,4.8-3.7,5.3-6.5a10.1,10.1,0,0,0,0-3,67.1,67.1,0,0,1,.3-11,5.1,5.1,0,0,1,.6-2.2A3.7,3.7,0,0,1,499,852.2Z" fill="#20496d"/>
        <path d="M506,891.8c13-8.9,7.5-25.2,6.6-39.5-2.9-.2-5.7-.2-8.6-.2a28.4,28.4,0,0,0-5,.1,3.7,3.7,0,0,0-2.4,1.4,5.1,5.1,0,0,0-.6,2.2,67.1,67.1,0,0,0-.3,11,10.1,10.1,0,0,1,0,3c-.5,2.8-3,4.8-5.3,6.5l-16.4,12a26.5,26.5,0,0,1-5,3.2c-2.7,1.1-6.1,1.5-7.9,3.8a8.1,8.1,0,0,0-1.3,5.4c.4,2.1,2.2,1.7,4,1.8l5.5.3c4.9-1.1,9.8-2.5,14.7-4C491,895.8,499,895.8,506,891.8Z" fill="#2559a7"/>
        <path d="M548.9,899.5c7.5-.1,15.2-3.2,22.1-5.8a132.9,132.9,0,0,0,29.7-15.4c9.5-6.7,17.1-15.8,28.1-20.1,6-2.4,12.7-5.1,15.8-11.3,2.2-4.5,1.4-10.9-3-13.5-2.5-1.5-5.6-1.5-8.4-1.2-15.4,1.8-27.9,12.8-41.7,19.7-11.2,5.7-23.5,8.8-34.9,14-8.9,4.1-16.3,10.3-19.7,19.7a10.6,10.6,0,0,0-.9,3.5,8.8,8.8,0,0,0,2.4,6.4C541.1,898.5,544.9,899.5,548.9,899.5Z" fill="#6e8390"/>
        <path d="M680.1,832.4a29.1,29.1,0,0,1,0,7.8,92.5,92.5,0,0,1-1.2,9.2c-2,12.6-2.8,25.3-4.1,37.9-.8,6.9-1.1,14.2-4.1,20.6a20.1,20.1,0,0,0-4.1.9,4.4,4.4,0,0,1-4-.8,5.9,5.9,0,0,1-1.2-3.7,42.1,42.1,0,0,0-4.2-15.5c-2.6-5.6-4.9-11.4-7.3-17.1-1.6-3.6-3.1-7.3-5.8-10.1a13.7,13.7,0,0,0-6.6-4c-2.9-.6-4.5,1-7.2,1h-.6a4.3,4.3,0,0,1-1.8-2.9,14.6,14.6,0,0,1,.3-3.6c1-5.1.8-10.1.9-15.4.1-.6.1-8.8,1-8.8,7.3.3,14.6.5,21.7-1.2,2.5-.5,4.8-1.3,7.3-1.8a52.5,52.5,0,0,1,11.9-.6,9,9,0,0,1,2.3.2c2.4.9,4.2,3.8,5.8,5.7a2.6,2.6,0,0,1,.7,1.1A2.7,2.7,0,0,1,680.1,832.4Z" fill="#20496d"/>
        <path d="M554.6,829.9c-6,8.2-15.1,13.3-22.7,19.7a56,56,0,0,0-5.5,5.4,32.5,32.5,0,0,0-4.4,5.4c-3,4.9-3.4,11-2,16.6s4.4,10.5,7.9,15a15.4,15.4,0,0,0,2.6,2.5,20.1,20.1,0,0,0,3.7,1.3c3.3,1,6.7,2.7,10,1.6,6.8-2.3,7.1-12.9,9.2-18.4a1.6,1.6,0,0,1,.4-.7l.7-.4c1.3-.4,2.6-.6,3.9-.9a102.3,102.3,0,0,0,18.3-7.2c5.8-2.7,12.5-5.6,17.6-9.7s9-10.6,14.2-15.1,13.8-7,20.3-11.7,12-14.5,10.7-24.2c-1-6.9-4.5-16.6-12.6-17.7-4.4-.6-8.7,1.9-13,2.1a54.3,54.3,0,0,0-13.3,2.1c-7.2,2.1-12.8,6.2-19.4,9.2s-11.3,3.5-15.3,7.7S558.7,824.4,554.6,829.9Z" fill="#6e8390"/>
        <path d="M569.9,838.7a166.6,166.6,0,0,1-38.2,11,66.3,66.3,0,0,0-5.3,5.3,32.5,32.5,0,0,0-4.4,5.4c-3,4.9-3.4,11-2,16.6s4.4,10.5,7.9,15a15.4,15.4,0,0,0,2.6,2.5,20.1,20.1,0,0,0,3.7,1.3c3.3,1,6.7,2.7,10,1.6,6.8-2.3,7.1-12.9,9.2-18.4a1.6,1.6,0,0,1,.4-.7l.7-.4,2.9-.7c2.2-4.2,4.8-8.1,6.6-12.4C567.6,856.5,569.2,847.7,569.9,838.7Z" fill="#a4c4d5"/>
        <g>
          <path d="M491.3,657.6a32.3,32.3,0,0,0-14,10.9c-5,7.3-6.3,16.4-4.5,25a44.7,44.7,0,0,0,18.4,27.8,49.6,49.6,0,0,0,18.9,7.3,56.3,56.3,0,0,0,10,.9c3.3,0,5.2-2.6,6.9-5.1,6.9-10.2,8.7-23.5,6.4-35.5s-9-24.7-19.9-30.8C506.7,654.3,498.6,654.7,491.3,657.6Z" fill="#74514b"/>
          <path d="M517,703.2c-2-8.8-14.9-12.2-18.8-22.8-2.2-7.4-8.3-13.6-16.2-17.1a32.5,32.5,0,0,0-4.7,5.2c-5,7.3-6.3,16.4-4.5,25a44.7,44.7,0,0,0,18.4,27.8,49.6,49.6,0,0,0,18.9,7.3,37.8,37.8,0,0,0,4.7.6C517.8,721.2,519.6,711,517,703.2Z" fill="#82625d"/>
          <path d="M571.1,727.6c-1.7,3.5-6.5,4.1-10,4.6a32.4,32.4,0,0,1-12.4-.6c-9.8-2.4-18-8.6-21.2-18.4a27.6,27.6,0,0,1-1.4-10.3c.2-2.7.4-7.2,2.8-9s4.1-.5,6.3.1l7.9,2.4c6.6,2.2,13.7,4.1,19.4,8.2a21.3,21.3,0,0,1,8,9.8c.7,1.9.9,3.9,1.4,5.8A11.8,11.8,0,0,1,571.1,727.6Z" fill="#74514b"/>
          <path d="M486.6,690.7c5.4-1,4.7,2.2,8.1,2.3a73,73,0,0,0,8.1,0c2.3-.2,3.9,1,5.2,2.7a3.2,3.2,0,0,0,1.5,1.3,1.7,1.7,0,0,0,2.2-1.8l-.4-1.3c-.1-1.6,1.8-2,3.1-1.9s3.6,1.3,5.4,2,2.4,2.6,4,3.5,4,1,6.2.7a5.9,5.9,0,0,0,1.9-.5,6.1,6.1,0,0,0,2.7-3.2,19.6,19.6,0,0,0,1.3-8.3c-.2-3.5-.5-6.9-.9-10.3s-.3-6.5-1.9-9.2a48.9,48.9,0,0,0-11.4-13.8,17.4,17.4,0,0,0-4.6-3,21.9,21.9,0,0,0-5.7-.9,45.9,45.9,0,0,0-7.4.1c-8.5,1-15.6,6.8-21.8,12.3a33.4,33.4,0,0,0-11.1,20.9,36.8,36.8,0,0,0,.4,11c.4,2.3,1.5,2.2,3.4,1.5S482.9,691.4,486.6,690.7Z" fill="#35353e"/>
          <path d="M513.8,643.1a18.1,18.1,0,0,1,11.4-8.4,26.7,26.7,0,0,1,16,1.8c7,2.9,14.6,8,18.1,14.9,1.4,2.7,1.8,5.6,2.3,8.5s1.1,6.8.3,10.1a13.3,13.3,0,0,1-7.8,9.2,19.5,19.5,0,0,1-6.7,1.3c-4.9.4-10.6.8-15.2-1-10.4-4.1-17.1-12.7-19.6-23.6a19.1,19.1,0,0,1,.5-11.1A12.2,12.2,0,0,1,513.8,643.1Z" fill="#35353e"/>
          <path d="M501.5,683a53,53,0,0,0,18.2,11.3c2.6.9,3.6-4.2,2.6-5.8a2.7,2.7,0,0,0-.7-.8c-2.6-2.3-5.4-4.2-7.9-6.5a120.8,120.8,0,0,1-12.4-13.4q-2.9-3.4-5.4-7.2l-2.5-3.8c-.6-.8-1.4-3.1-2.5-2.9s-.5.2-.8.3l-4.6,3.5c-1.1.8-2.6,1.8-2.3,3.5a5.5,5.5,0,0,0,1,2.2c4.6,7.2,10.8,13.7,17,19.4Z" fill="#facd42"/>
          <path d="M520.2,699.7h-.1c-1.2,1.1-3,.8-4.4.3s-4.5-2.3-5.4-4.6a11.9,11.9,0,0,1-.7-6.7,5.1,5.1,0,0,1,4.5-4c3.3-.3,5.3,2.5,6.3,5.2s1.9,7.4-.1,9.6A.1.1,0,0,1,520.2,699.7Z" fill="#82625d"/>
        </g>
        <path d="M526.1,735c.2-2.5-.4-5-.7-7.5-.7-7.4,2.3-14.8,7-20.5s11.1-9.8,17.7-13.1,10.9-4.7,16.5-3.4a2.2,2.2,0,0,1,1.7,1,5,5,0,0,1,.3,1.3c.4,1.7,2.6,2.4,3.3,4s-.7,3.8-2.5,4.6-3.7.8-5.6,1.2a23.5,23.5,0,0,0-6.7,2.9l-9.9,5.3c-6,3.2-12.5,7-14.8,13.4-1.7,4.5-1.1,9.9-4.2,13.5a1.7,1.7,0,0,1-1.1.6c-.6,0-.9-.8-1-1.5a28,28,0,0,1-.1-5" fill="#35353e"/>
        <path d="M540.2,745.5c-2.2-7.1-3.8-14.5-2.9-21.8,1.8-15.8,18-28.8,33.9-27.1,8.3.9,16,4.7,22.8,9.7,25.9,18.9,35.5,50.8,40.8,80.9a19.5,19.5,0,0,1,.4,7.6c-1.1,5.8-5.6,10.4-9.7,14.2s-8.6,9.6-13.5,11c-3.1.9-7.7-1.8-10.5-3.1s-7.4-3.7-11.6-3.6c-2.6.1-5.3,1-7.8.1-4.6-1.6-5.1-7.7-7.7-11.8s-6.7-5.8-10.3-8.5c-14.9-10.9-18.7-31-23.9-47.6Z" fill="#99552e"/>
        <path d="M574.6,697.1l-3.4-.5c-15.9-1.7-32.1,11.3-33.9,27.1-.9,7.3.7,14.7,2.9,21.8h0c3.5,11.2,6.4,24,12.5,34.5,4.9-10.4,10.1-20.8,15.3-31.2C576.8,733.3,581.7,713,574.6,697.1Z" fill="#e18d58"/>
        <path d="M556.2,793.3a23.5,23.5,0,0,1-3-5.9,8.6,8.6,0,0,1,.3-6.5c1-.2,1.8.8,2.1,1.8,1.4,5.7,5,9.8,9.5,13a47.9,47.9,0,0,0,10,5.3,50.8,50.8,0,0,0,8.5,3.1,32.7,32.7,0,0,0,7.6.8c4.9,0,10.1,0,14.6-1.9s8.2-5.7,10.8-9.9a75.9,75.9,0,0,0,6-13.7c3.3-9.3,6.5-18.7,10.6-27.7.2-.5.5-2,1.1-2.1s1.7,1.5,1.8,2.4l1.7,10.4a6.2,6.2,0,0,1,0,2.7c-.5,1.4-1.9,2.8-2.7,4.1a51.2,51.2,0,0,0-3,5.7c-1.8,3.8-3.4,7.8-5.2,11.7-3.2,7-7.1,14-13.5,18.4s-12.4,4.7-19.4,5.3-14.6-1-21.4-2.9c-1-.2-2-.6-3-.9C563.4,804.1,559.7,798.7,556.2,793.3Z" fill="#35353e"/>
        <path d="M555.9,785.6c1.4,0,5.5-9.5,6.2-10.9a103.3,103.3,0,0,0,9.8-32.6c1.3-9.9,3.2-23.4-2.8-32.2a14.5,14.5,0,0,0-8.7-6.2c-16.7-3.8-29.5,15.7-36,28-5.8,10.8-9.7,22.5-12.7,34.4-4,16-6.8,35.3-18.6,47.8s-28.2,23.1-42.5,34.6c-4.8,3.8-7.5,6.7-7.2,13.2.2,4.1,3.8,8.2,7.8,7.5a11.8,11.8,0,0,0,3-1l21.4-10a194.2,194.2,0,0,0,21.3-10.9c5.5-3.3,10.5-6.7,14.7-11.4s10.5-7.9,14.5-13.2c1.8-2.3,3.1-5.1,4.8-7.5,3.5-5.1,8.6-9,12.8-13.6A118.6,118.6,0,0,0,555.9,785.6Z" fill="#e18d58"/>
        <path d="M567,746.8c-7,9-15,16-23,25-14,14-20,32-31,49-16.6,23.6-43.1,32.7-67.6,45.9a6.2,6.2,0,0,0,5.8,2.5,11.8,11.8,0,0,0,3-1l21.4-10a194.2,194.2,0,0,0,21.3-10.9c5.5-3.3,10.5-6.7,14.7-11.4s10.5-7.9,14.5-13.2c1.8-2.3,3.1-5.1,4.8-7.5,3.5-5.1,8.6-9,12.8-13.6a118.6,118.6,0,0,0,12.2-16c1.4,0,5.5-9.5,6.2-10.9a103.3,103.3,0,0,0,9.8-32.6c0-.4.1-.8.1-1.2Z" fill="#99552e"/>
        <path d="M604.1,734.9c-5-9.1-12.8-16.7-21.3-22.5a77.4,77.4,0,0,0-13.5-7.5c-4.3-1.7-17.5-7.5-11.9-13.9a12.5,12.5,0,0,1,4.7-3.1c7.2-3.2,14.4-6.5,22-8.5,3.4-.9,7-1.5,10.4-.6,5.6,1.5,9.3,6.8,14.2,9.9s10.5,4,15.7,6.1,12,7.3,17.4,11.8a34.7,34.7,0,0,1,6.3,6.4,64.2,64.2,0,0,1,3.7,6.8c2.1,3.6,5,6.7,6.4,10.5s1.4,9.3,1,14L658.1,757a12.3,12.3,0,0,1-1.4,6,10.8,10.8,0,0,1-3.1,3.3,90.4,90.4,0,0,1-24.4,14.6,2.5,2.5,0,0,1-1.7.4,3.3,3.3,0,0,1-1.6-1.1c-3.3-3.5-5.5-7.9-7.6-12.3s-4.3-8.9-6.2-13.5C609.5,747.9,607.5,741.1,604.1,734.9Z" fill="#20496d"/>
        <path d="M597,693.8c1-2,3-5,2-7a66.3,66.3,0,0,0-4.8-8.1c-3.3-.8-6.8-.2-10.1.7-7.6,2-14.8,5.3-22,8.5a12.5,12.5,0,0,0-4.7,3.1c-5.6,6.4,7.6,12.2,11.9,13.9a64.2,64.2,0,0,1,9,4.7C579.2,701.1,590.2,698.9,597,693.8Z" fill="#2559a7"/>
      </g>
      <g>
        <path d="M313.2,806.3l2.6,1.4c11.3,6.2,23.8,13.6,36.2,17.4,1.6.5,3.3.6,4.9,1.4,4,1.8,5.2,8.5,7.1,12.1s2.9,7.1,4.5,10.4l7.7,15.3c2,4,2.7,9.1,6.1,12.3a23.9,23.9,0,0,0,7.7,4.6,10.3,10.3,0,0,0,4.5,1.1,7,7,0,0,0,5.3-4,15.8,15.8,0,0,0,1.2-6.8c.3-15.1-5.6-29.6-7.4-44.6a85.2,85.2,0,0,0-1.2-10,32.3,32.3,0,0,0-11.1-17.8c-2.6-2-5.4-3.6-7.9-5.7s-4.4-4.4-6.6-6.5c-6.5-6.3-14.6-10.8-21.8-16.3a35.4,35.4,0,0,0-6.5-4.4,25.7,25.7,0,0,0-10.6-2.1c-8.9-.5-17.2,1.3-25.8,3.2-4.2,1-8.2,1.7-9.9,5.8a19.2,19.2,0,0,0,0,14.5C295.9,797.3,304.6,801.8,313.2,806.3Z" fill="#2f8e93"/>
        <path d="M292.6,803c1.6,5.2,3.2,9.9,4.2,13.2,2.7,9.2,5.1,18,15.5,21.2,5,1.5,11.7,1.4,15.8-2.1s5.3-12,7.4-17.8c2.9-8.2,7.5-15.3,11.8-22.9,1.4-2.5,3-5,4.3-7.6s1.7-5.2,1.8-8.6.1-6-1.4-8.5-6.3-4.1-9.2-4.7-7.1-.8-10.7-1.2c-9.1-.9-18.2-1.3-27.3-1.3C282.5,762.6,287.3,785.7,292.6,803Z" fill="#2f8e93"/>
        <path d="M340.6,764.8c-2.8-.4-5.7-.5-8.5-.8-9.1-.9-18.2-1.3-27.3-1.3-22.3-.1-17.5,23-12.2,40.3,1.5,4.9,3,9.2,4,12.5,1.5-2.5,3-5.1,4.4-7.7C310.4,791.5,337.6,783.3,340.6,764.8Z" fill="#4db6c1"/>
        <path d="M293,846c-.8,4.1-1.7,8.1-2.6,12.1s-2.4,9.2-2.3,14c.1,2.2.5,4.6,2.1,6.2s5.4,1.8,8.1,1.7h4.2a24.5,24.5,0,0,0,3.8-.4,12.7,12.7,0,0,0,7.3-5.6,43.5,43.5,0,0,0,4.1-8.4,146.4,146.4,0,0,1,9.5-19,50.9,50.9,0,0,0,3.2-5.6c1.8-4,2.4-8.4,3.1-12.8s2.3-10.4.9-15.4c-2.8-10.2-17.3-11.9-26.1-11.8-4.4.1-9.6,1.1-12.1,5.2s-.5,13.5-.6,18.8A148.3,148.3,0,0,1,293,846Z" fill="#2f8e93"/>
        <path d="M318.8,801.8a57.3,57.3,0,0,0-10.5-.9c-4.4.1-9.6,1.1-12.1,5.2s-.5,13.5-.6,18.8A148.3,148.3,0,0,1,293,846c-.8,4.1-1.7,8.1-2.6,12.1s-2.4,9.2-2.3,14c.1,2.2.5,4.6,2.1,6.3s5.4,1.7,8.1,1.6h4.2a24.5,24.5,0,0,0,3.8-.4l1.9-.7C318.8,854.6,324.7,828,318.8,801.8Z" fill="#4db6c1"/>
        <path d="M371,829.8c-9-17-27-30-34-49a76.6,76.6,0,0,1-2.9-16,31.8,31.8,0,0,0-6.2-.7c-8.9-.5-17.2,1.3-25.8,3.2-4.2,1-8.2,1.7-9.9,5.8a19.2,19.2,0,0,0,0,14.5c3.7,9.7,12.4,14.2,21,18.7l2.6,1.4c11.3,6.2,23.8,13.6,36.2,17.4,1.6.5,3.3.6,4.9,1.4,4,1.9,5.2,8.5,7.1,12.1s2.9,7.1,4.5,10.4l7.7,15.3c2,4,2.7,9.1,6.1,12.3a21.7,21.7,0,0,0,4.7,3.2C388.5,862.5,378.2,844.2,371,829.8Z" fill="#4db6c1"/>
        <g>
          <path d="M368.7,653.7a54.8,54.8,0,0,1-4.2,9.6c-3.6,6.2-8.7,12.1-15,15.6s-15.3-.7-20.9-6.2c-1-1.1-2.1-2.2-3-3.4-5.3-6.5-10.8-13.7-12.7-22.1s-.9-15,2.9-21.2c9.3-15.2,34.6-15,46.6-3.4C371,630.9,371.9,642.9,368.7,653.7Z" fill="#c18a6e"/>
          <path d="M362.4,622.6c-7.5-7.2-20-10-30.7-7.5,10.8,10.3,18.1,20.1,18.4,37.1.1,5.4,2.1,8.9,1.1,11.9-1.2,9.7-8.6,12.9-17.1,13.1,4.6,3.1,10,4.7,15.4,1.7s11.4-9.4,15-15.6a54.8,54.8,0,0,0,4.2-9.6C371.9,642.9,371,630.9,362.4,622.6Z" fill="#ba7d5d"/>
          <path d="M313.3,656.4c.5-1.3,1-2.5,1.6-3.7a7.6,7.6,0,0,1,2-2.7c2.2-1.7,5.2-.3,7.5.3,4.4,1.1,7.2,3.2,7.6,7.8s-1,9.9-2.4,14.6a24.3,24.3,0,0,1-3,7c-2.5,3.6-6.4,4.1-10.4,3.9-2.2,0-4.7-.3-6-2.1a6.9,6.9,0,0,1-.8-4.9C309.9,670.1,310.9,662.8,313.3,656.4Z" fill="#c18a6e"/>
          <path d="M356.5,631l1.1,1.3a7.7,7.7,0,0,1,1.6,5.8,4.5,4.5,0,0,1-1.4,2.4c-.9.9-1.7.7-2.8,1.1s-2.6,3.4-3.8,4.8c-4.3,4.7-8.1-2.9-12.6-2.8a3.7,3.7,0,0,0-3.5,2.5,12.7,12.7,0,0,0,.3,3.4c.6,2.9-2.3,5.3-4,7.2a3.6,3.6,0,0,1-1.6,1.4c-2.3,1.1-4.9-.4-7.2-.9a26,26,0,0,0-5.6-.6c-2,0-4.1.9-5.3-1.3a7.8,7.8,0,0,1-.7-3c-.4-3.6-1.1-7.1-1.2-10.7a18.6,18.6,0,0,1,1.9-9.6,15.5,15.5,0,0,1,6.9-6.5c5.7-3,12.5-3.5,18.8-2.7s12.4,2.9,17.2,6.5A15.4,15.4,0,0,1,356.5,631Z" fill="#35353e"/>
          <path d="M338.9,639.5l29.5,7.2c1.2.3,2.4.6,3.1-.5s.7-3.2.8-4.5c.3-6.2.7-12.6-1.5-18.4a13.8,13.8,0,0,0-2.5-4.2,18,18,0,0,0-3.7-3l-6.6-4.5a30.3,30.3,0,0,0-5.5-3.2c-4.2-1.8-9-1.8-13.6-1.5s-12.6.9-17.2,4.8-9.4,12.3-11,19.7a1.1,1.1,0,0,0,0,.8l.5.2c4.9,1.4,9.7,2.7,14.6,3.9Z" fill="#20496d"/>
          <path d="M361.2,613.8l-3.2-2.2a30.3,30.3,0,0,0-5.5-3.2c-4.2-1.8-9-1.8-13.6-1.5s-12.6.9-17.2,4.8-9.4,12.3-11,19.7a1.1,1.1,0,0,0,0,.8l.5.2c4.9,1.4,9.7,2.7,14.6,3.9l13.1,3.2,11.5,2.8C356.3,632.6,363,622.9,361.2,613.8Z" fill="#2559a7"/>
          <path d="M395.7,652.9c1.8.3,3.6.1,3.5-1.5s-3.5-2.5-4.4-2.9c-3.2-1.3-6.4-2.5-9.6-3.5a102.2,102.2,0,0,0-12.1-3.1c-2.6-.5-6.1-2-8.8-1.2-4.9,1.5-1.3,4.7,1.8,5.5q13,3.3,26.1,6Z" fill="#20496d"/>
          <path d="M339.3,653.3c3,.9,6.5-1.5,7.2-4.7s1.3-5.5.2-7.8a6.8,6.8,0,0,0-6.6-3.5c-4.3.4-6.5,4.2-5.8,8.2a14.4,14.4,0,0,0,2.8,6.3A5.1,5.1,0,0,0,339.3,653.3Z" fill="#c18a6e"/>
        </g>
        <path d="M322.7,669a32.9,32.9,0,0,0-10.8-2.1,24.5,24.5,0,0,0-17.8,6.9c-3.9,4-6,9.5-7.3,15a149.6,149.6,0,0,0-3.6,20,79.6,79.6,0,0,0-.3,9.8c0,8.5,1.3,16.8,1.5,25.2l.6,16.6c.2,3.2-.9,10,2.3,12.1,1.5.9,3.9.9,5.6,1.2l8.5,1.2a123.3,123.3,0,0,0,17.2,1.3c8.9-.1,17.7-2.7,26.7-2.2,3.1.2,6.7,1.5,8.5-1.1s0-7.4-.6-10c-1.4-6.2-1.1-12.6-1-18.9a249,249,0,0,0-2-32.3c-.7-5.3-2-10.6-2.6-15.9s-.2-7.5-2.5-10.9-4.7-4.7-6.9-6.6a58.9,58.9,0,0,0-7.8-5.6A36.4,36.4,0,0,0,322.7,669Z" fill="#adcad9"/>
        <path d="M353.2,762.9c-1.4-6.2-1.1-12.6-1-18.9a249,249,0,0,0-2-32.3c-.7-5.3-2-10.6-2.6-15.9s-.2-7.5-2.5-10.9l-.2-.3a45.1,45.1,0,0,1-2.9,7.2c-5,9-11,17-11,27-.9,19.2,10.7,36.7,5.1,55.6a70,70,0,0,1,9.2-.4c3.1.2,6.7,1.5,8.5-1.1S353.8,765.5,353.2,762.9Z" fill="#7c8f9b"/>
        <path d="M316.7,749.1a13.6,13.6,0,0,0,2.1,5.6,6.1,6.1,0,0,0,5.1,2.8c1.9-.1,3.5-1.3,4.9-2.6,6.3-5.9,9.6-14.4,11.7-22.8a8.4,8.4,0,0,1,1.1-3,2.8,2.8,0,0,1,2.9-1,4.2,4.2,0,0,1,1.8,1.9,8,8,0,0,1,1.3,4.2,6.3,6.3,0,0,1-1,2.7c-3.8,7.7-7.8,15.6-14.1,21.4-2.8,2.5-6.6,4.7-10.2,3.3a9.8,9.8,0,0,1-2.2-1.3,21.6,21.6,0,0,1-7.6-10.3,2.9,2.9,0,0,1-.1-2.4c.6-1,2.3-.9,3.1-.1a5.8,5.8,0,0,1,1.4,3.2" fill="#35353e"/>
        <path d="M329.6,679.9c-4.5.1-8.5,3.3-12.8,5.7a7.6,7.6,0,0,1-4.5,1.3c-2-.3-3.5-1.8-4.8-3.4a5.9,5.9,0,0,1-1-1.7c-.8-2.9,5-5.3,7-6.6s5.3-3.6,8.4-4.1c5.6-.8,10.7,1.9,14.7,5.5,1.1,1,5.3,4.4,5.1,6s-5.5-.6-6.5-1.2A9.5,9.5,0,0,0,329.6,679.9Z" fill="#35353e"/>
        <path d="M297.1,679.7c-2.6,1.5-2.9-2.3-2.8-3.7s.7-5.2,1-7.8a10.3,10.3,0,0,1,1.1-3.9c1.1-1.8,3.1-2.7,5-3.6a14.1,14.1,0,0,1,6.3-1.7,8.9,8.9,0,0,1,3.6,1.1,12.4,12.4,0,0,1,6.1,8.8,14.8,14.8,0,0,1-2.2,10.6,5.7,5.7,0,0,1-3.5,2.8c-1.5.3-3.3-.9-3.1-2.4a4.8,4.8,0,0,1,.9-1.9c1.7-2.7,1.7-6,1.6-9.2a7.9,7.9,0,0,0-.7-3.7,7,7,0,0,0-3.9-2.5,7.2,7.2,0,0,0-2.5-.3,4.5,4.5,0,0,0-3.2,2.5,10.8,10.8,0,0,0-1.1,4l-1.5,8.8A2.5,2.5,0,0,1,297.1,679.7Z" fill="#35353e"/>
        <path d="M301.9,673.8c-4.8-.3-10-.6-14.2,1.9s-6.3,6.6-8.7,10.5c-3.7,5.9-8.2,11.2-11.7,17.1s-6.1,12.8-5.4,19.7c.3,2.9,1.2,5.8,1.8,8.7,1.7,7.6,1.8,15.5,4.3,22.8a13.2,13.2,0,0,0,3.1,5.4c2.1,2,5.1,2.6,7.9,3.1a125.5,125.5,0,0,0,18.4,1.3c3.1.1,6.2,0,9.4-.2s5.5.4,7.4-1.5c3.9-3.8,4-12.6,4.2-17.7a134.5,134.5,0,0,0-1.4-20c-1-7.4-2-14.9-1.8-22.4s3.4-14.6,2.8-21.9c-.2-1.6-3.5-3.4-4.9-4.3C309.9,674.3,305.6,674.1,301.9,673.8Z" fill="#e18d58"/>
        <path d="M267.1,750.5c16.7,4.8,35.2,5.9,51.1-2.1.2-.1.5-.3.7-.2s.6.8.5,1.4c-.7,3.9-1.2,8.3-3.4,11.8s-7.8,4.7-12.8,4.9c-8.5.3-17.2.4-25.6-.9a13.6,13.6,0,0,1-4.4-1.1c-2.8-1.4-4.6-4.3-5.7-7.3a27.1,27.1,0,0,1-1.5-6.4,5.5,5.5,0,0,0,1.8-.1" fill="#35353e"/>
        <path d="M405.2,725.8c2.5-2.8,4.2-6.2,6-9.6a9.3,9.3,0,0,0,1.2-3.3c.3-3.5-3.5-6.2-4-9.8-.2-1.3.1-2.7-.1-4.1s-1.3-2.7-2.7-2.5-1.9,2.1-2.3,3.5a14.4,14.4,0,0,1-2.9,5.8,4.3,4.3,0,0,1-6,1.2c-.9-.4-1.6-1-2.4-1.4a2.7,2.7,0,0,0-2.6-.3l-.3.2c-.2.1-.3.4-.4.6a3.2,3.2,0,0,0,.2,1.7,10.6,10.6,0,0,0,1.6,2.1,16.3,16.3,0,0,1,2.4,3.8c1,2,1.7,4.5,2.9,6.3a8.9,8.9,0,0,0,2.8,2.3c2,1.3,4,2.6,6.1,3.7" fill="#c18a6e"/>
        <path d="M321.1,681.5c-4.5,5.4-4.7,14.8-3.5,21.5a31.6,31.6,0,0,0,5.5,13.1c3,4.3,7.3,7.4,11.1,11s7.6,7.1,12,9.8a58.6,58.6,0,0,0,13.3,5.9c4.2,1.4,9.1,3.5,13.6,2.9a9.9,9.9,0,0,0,6.6-3.8c3.6-5,1.8-15.4-.9-20.5s-5.5-7-8.9-9.7-8.5-6.3-11.5-10.6c-1.2-1.6-2.2-3.4-3.3-5.1s-3.4-4-4.8-6.2l-2-3.3c-4.2-6.4-13.5-11.2-21.2-8.9A11.9,11.9,0,0,0,321.1,681.5Z" fill="#adcad9"/>
        <path d="M364.1,743c.1,0,.1.1.2.2a15.9,15.9,0,0,0,8.2,2.6c11.3.7,21.7-4.9,29.3-12.9,2.7-2.8,5.2-6.3,5.6-10.2s-1.8-8.4-5.7-9.2-7.1,1.6-10.6,3c-5.7,2.2-12.2,1.6-18,3.5A22.3,22.3,0,0,0,361,730.1C358.7,734.1,360.5,740.2,364.1,743Z" fill="#adcad9"/>
        <path d="M402.3,713.6c-7.2,12.6-18.7,21.9-34.3,21.2-11.3-.7-22.6-2.4-32.9-6.9a72.9,72.9,0,0,0,11.1,9,58.6,58.6,0,0,0,13.3,5.9c3.8,1.2,8.2,3.1,12.4,3h.6c11.3.7,21.7-4.9,29.3-12.9,2.7-2.8,5.2-6.3,5.6-10.2S405.8,714.8,402.3,713.6Z" fill="#7c8f9b"/>
        <path d="M313.9,891.4c-.1,1.8-.1,3.6-.1,5.5s-.6,6.2-3.2,7.5a8.1,8.1,0,0,1-4.1.7l-19.7.5c-1.8,0-3.9-.2-4.6-1.8a2,2,0,0,1-.3-1.1c-.9-6,.5-13.1,1.4-19a123.1,123.1,0,0,1,4.8-20.8,4.4,4.4,0,0,1,1-1.9c2.9-2.9,9-2,12.8-2.2,5.4-.2,10.7,1.2,14,5.9a7.9,7.9,0,0,1,1.4,3.1c.4,2-.4,3.7-1.1,5.6a41.8,41.8,0,0,0-1.6,7A67.7,67.7,0,0,0,313.9,891.4Z" fill="#35353e"/>
        <path d="M377,877.3c.3,1.5.6,3,1,4.4s1.1,5.2,1.7,7.9,1.4,10.5,5.3,12.7c1.4.9,3.2.9,4.8.9L429,903a2.5,2.5,0,0,0,2.2-.8c.3-.3.3-.8.4-1.3.2-2.8.3-5.9-1.7-7.8a10.7,10.7,0,0,0-2.7-1.6,89.4,89.4,0,0,1-8.4-5.1c-.7,0-2.4-1.7-3-2.2s-2.1-1.7-3-2.5a38,38,0,0,1-5.3-6.1,16.6,16.6,0,0,1-3.3-6.8l-1.5-9.3a4.7,4.7,0,0,0-1.1-2.6c-1.1-1-3.2-.7-4.5-.5a43.7,43.7,0,0,0-11,3.9,52.4,52.4,0,0,0-5.1,3l-2.4,1.5a16.3,16.3,0,0,0-2.3,1.1,3,3,0,0,0-1.5,2.3,7.3,7.3,0,0,0,1.1,2.9,10.9,10.9,0,0,1,.5,2.6Z" fill="#35353e"/>
      </g>
    </g>
    <g>
      <path d="M119.6,887.6q-10-23.1-21.4-45.5l-1.7,1a237.5,237.5,0,0,0,23.2,34.6c.6.7,1.7.1,1.8-.7a252.7,252.7,0,0,0-10.9-75.3c-2.2-6.9-4.6-13.7-7.3-20.4-.4-1.1-2.4-.6-1.9.6L113.3,813c3.7,9.9,8,19.8,10.8,30a59.1,59.1,0,0,1,2.6,17.6c0,1.4,1.8,1.3,2,0a354.2,354.2,0,0,0-.8-93.7c-1.2-8.8-2.7-17.4-4.6-26.1l-1.9.6a343.6,343.6,0,0,1,10.8,53.2,397.3,397.3,0,0,1,2.8,54.5c-.1,10.2-.7,20.4-1.5,30.5-.1,1.1,1.8,1.4,2,.3a178.3,178.3,0,0,1,17.3-52.7c2.4-4.6,5.1-9.2,7.9-13.6l-1.9-.7A376.7,376.7,0,0,0,143.4,863c-1.1,4.8-2.1,9.7-3,14.6-.2.9.9,1.8,1.6,1a95.9,95.9,0,0,1,22.1-19.1l-1.2-1.6a94.6,94.6,0,0,0-19.1,32.5c-.4,1.2,1.5,1.7,1.9.5a95.2,95.2,0,0,1,18.6-31.6c.7-.8-.2-2.2-1.2-1.5a94.8,94.8,0,0,0-22.5,19.4l1.7,1a372.4,372.4,0,0,1,13.4-50.8c1.6-4.7,3.3-9.4,5.1-14,.4-1.1-1.3-1.7-1.9-.8a177.7,177.7,0,0,0-22.1,51.2c-1.3,5.1-2.4,10.3-3.2,15.6l1.9.2a454.1,454.1,0,0,0,1.2-54.7,376.5,376.5,0,0,0-6.2-54.1q-3-15.1-7.2-30a1,1,0,0,0-1.9.6,353.4,353.4,0,0,1,7.6,92.9c-.4,8.8-1.2,17.6-2.3,26.3h2c.2-10.5-3.1-20.6-6.8-30.4L110.1,799l-6.8-17.7-1.9.6a246.1,246.1,0,0,1,17.3,73.7c.6,7.1.8,14.3.8,21.4l1.7-.7a237.8,237.8,0,0,1-23-34.2c-.6-1.1-2.3-.1-1.7,1,7.6,15,14.7,30.1,21.3,45.5.5,1.2,2.3.2,1.8-1Z" fill="#4db6c1"/>
      <g>
        <path d="M236.7,886.6a150.8,150.8,0,0,1,3.5,22.2c.1,1.3,2.1,1.3,2,0a146.2,146.2,0,0,0-3.6-22.8c-.3-1.2-2.2-.7-1.9.6Z" fill="#acb56e"/>
        <path d="M250.1,917.7q.8-30.6-.3-61.4c-.1-1.3-2.1-1.3-2,0q1,30.8.3,61.4a1,1,0,0,0,2,0Z" fill="#acb56e"/>
        <path d="M259.3,917a58.8,58.8,0,0,0,3.9-19.4,1,1,0,0,0-2,0,57.2,57.2,0,0,1-3.8,18.8c-.5,1.2,1.5,1.8,1.9.6Z" fill="#acb56e"/>
      </g>
      <g>
        <path d="M749.2,926.2a193.8,193.8,0,0,1,18.9-51.6c2.5-4.6,5.2-9,8-13.4.7-1.1-1.1-2.1-1.8-1a193.8,193.8,0,0,0-23.1,50.2q-2.2,7.5-3.9,15.3c-.2,1.2,1.7,1.8,1.9.5Z" fill="#4db6c1"/>
        <path d="M765.7,907.6a50.5,50.5,0,0,0-13.8,16c-.6,1.2,1.1,2.2,1.7,1.1a46.1,46.1,0,0,1,13.1-15.3c1-.8,0-2.5-1-1.8Z" fill="#4db6c1"/>
        <path d="M748.4,892.2a87.7,87.7,0,0,0-5.4,38.3c.1,1.3,2.1,1.3,2,0a86.5,86.5,0,0,1,5.3-37.7,1,1,0,0,0-1.9-.6Z" fill="#4db6c1"/>
      </g>
      <g>
        <path d="M821.2,848.2a10.8,10.8,0,0,1-4-9.1,1.1,1.1,0,0,0-1-1c-6.8.8-14.9,1.9-21.1-2-4.6-2.9-8.2-9.4-5.2-14.6.3-.6-.1-1.6-.9-1.5-8.4.8-17.1,1.3-25.4-.7a35.9,35.9,0,0,1-18.8-11.1,36.5,36.5,0,0,1-9-18.6,35,35,0,0,1,3.2-20.7,36.6,36.6,0,0,1,16.2-16.8,1,1,0,0,0,.2-1.6,17,17,0,0,1,11.2-29.7c.5-.1,1.1-.5,1-1-1-12.2,7.2-22.5,16.4-29.5s23.6-14.9,35.1-8.3c5,2.9,10,8.4,16.4,6.7a1,1,0,0,0,.5-1.7c-8.6-6.9-5-20.6-2.7-29.6,1.5-5.7,3.7-11.4,8.4-15.3s11-6,16.7-7.8c11.1-3.5,23.2-5.1,34.6-2.5a42.1,42.1,0,0,1,26.3,19c6.5,10.5,9.2,23,10,35.2.1.8,1.1,1.5,1.7.7,4.5-5.3,11.1-7.8,17.9-8.7a79.1,79.1,0,0,1,21,.4c3.2.6,6.6,1.8,8.5,4.6s1.5,3.6,2.5,5.2a12.4,12.4,0,0,0,3.5,3.7,55.8,55.8,0,0,1,8.7,7.4,40.7,40.7,0,0,1,5.9,9.5c7.2,15.9,3.4,33.7-4.1,48.7a7.8,7.8,0,0,0-1.1,5.2c.3,1.8,1.6,3.3,2.6,4.8a36.7,36.7,0,0,1,4.5,10.1,37.5,37.5,0,0,1-.9,22c-5,13.7-19,22.8-33.4,22.9a32.7,32.7,0,0,1-5.4-.4.9.9,0,0,0-1.2.7c-5.4,13-21.4,17.3-33.8,12.4a1,1,0,0,0-1.2.7c-1.4,3.4-1.5,7.2-3.1,10.5a20.1,20.1,0,0,1-4,5.1,24.3,24.3,0,0,1-4.9,4.2,13.1,13.1,0,0,1-11.5,1.7,10.1,10.1,0,0,1-4.4-3.5c-1-1.2-2.2-2.5-3.8-2.8a4,4,0,0,0-2.4.3c-.9.4-1.7,1.2-2.7.9s-2.4-3.5-2.7-5.1-2.2-.8-1.9.5c.5,3,2.5,7.8,6.4,6.4.9-.3,1.7-1.2,2.8-1.1s1.8,1.1,2.4,1.8a17.2,17.2,0,0,0,4.5,4c8.5,4.3,17.7-2.5,22.6-9.3,2.9-3.9,2.8-8.7,4.6-13.1l-1.2.7c13.6,5.4,30.4.2,36.2-13.8l-1.2.7a38.5,38.5,0,0,0,37.8-16.9,38.1,38.1,0,0,0,5.6-22.1,36,36,0,0,0-4.7-16.4c-.9-1.7-2.2-3.2-3.1-5s-.1-4.3,1-6.4a66.5,66.5,0,0,0,2.7-6.1,68.7,68.7,0,0,0,3.9-13.4,52.1,52.1,0,0,0-1.3-25.1,40.6,40.6,0,0,0-12.8-19.2c-1.5-1.2-3.2-2.2-4.7-3.5a11.2,11.2,0,0,1-3.6-5.2,12.3,12.3,0,0,0-6.8-7,32.3,32.3,0,0,0-10.2-1.9,83.8,83.8,0,0,0-11.2-.2c-7,.4-14.3,1.8-20,6.2a20.5,20.5,0,0,0-3.7,3.5l1.7.7c-.7-11.5-3.2-23.2-8.7-33.5s-14.5-18.3-25.8-21.8-24.7-2.4-36.4.9c-5.9,1.7-12.2,3.8-17.4,7.1s-8.7,8.7-10.6,14.8a70.2,70.2,0,0,0-3.7,19.3c-.2,5.8,1.1,11.8,5.8,15.6l.5-1.7c-6,1.6-11.1-4.5-16-7s-12.5-2.5-18.5-.6a55.9,55.9,0,0,0-17,9.1,51.4,51.4,0,0,0-12.8,13.1,29.7,29.7,0,0,0-5.1,18.5l1-1A19,19,0,0,0,754,751.9l.2-1.5c-13.2,6.7-21.8,21.6-20.7,36.5A38.7,38.7,0,0,0,758.9,820c9.6,3.4,20.1,3,30.1,2l-.8-1.5c-3.3,5.8-.2,12.8,4.8,16.5,6.5,5,15.6,4,23.2,3.1l-1-1a13.1,13.1,0,0,0,4.6,10.6c.9.8,2.4-.6,1.4-1.5Z" fill="#4db6c1"/>
        <path d="M869.9,896.1a392.9,392.9,0,0,1,12.8-59.8c1.4-4.5,2.9-8.7,6.4-12s7.8-6.2,11.7-9.2c7.8-6,15.6-12.2,23.8-17.7s17.6-10.3,27.8-9.5c1.3.1,1.3-1.9,0-2-9.1-.7-17.6,2.8-25.2,7.4S910.9,805,902.9,811c-4.1,3.1-8.3,6.2-12.3,9.4a24.3,24.3,0,0,0-8.2,10.5,138.7,138.7,0,0,0-4.3,14.3c-1.4,5.1-2.6,10.2-3.8,15.3-2.6,11.6-4.8,23.3-6.4,35-.1,1.3,1.8,1.9,2,.6Z" fill="#acb56e"/>
        <path d="M798.9,899.6a236.5,236.5,0,0,0,42.9-57.4c1.4-2.6,2.7-5.3,4-8s1.3-2.7,2-4.1a15.4,15.4,0,0,0,.8-1.9,8.8,8.8,0,0,0,.9-2c.2-1-1.2-2.4-1.8-3.1l-2.4-3.2-5.3-6.3a102.2,102.2,0,0,0-25.4-20.4,67.6,67.6,0,0,0-34.3-9.2c-1.3.1-1.3,2.1,0,2,21.6-.4,41.2,11.4,55.8,26.5a118.7,118.7,0,0,1,11.6,13.9v-1a233.9,233.9,0,0,1-36.8,58.4c-4.2,5-8.7,9.8-13.4,14.4-1,.9.5,2.3,1.4,1.4Z" fill="#acb56e"/>
        <path d="M814.8,898.1a177.1,177.1,0,0,0,25.7-32.8c3.6-6,7-12.1,10-18.4a91.4,91.4,0,0,0,7.3-19.7,55.4,55.4,0,0,0,.7-20.7,103.5,103.5,0,0,0-5.9-20.4,161,161,0,0,0-18.1-33.7,157.7,157.7,0,0,0-29.3-31.2c-1-.8-2.4.6-1.4,1.4a155.8,155.8,0,0,1,44.9,59.2c5.4,12.5,10,26.3,8,40.1s-8.7,26.3-15.4,38.2a171.8,171.8,0,0,1-28,36.6c-.9.9.5,2.3,1.5,1.4Z" fill="#acb56e"/>
        <path d="M855.6,886.2c7.6-22.6,14.3-45.7,25.7-66.9a139.4,139.4,0,0,1,20-28.3,209.1,209.1,0,0,1,25.1-22.8c9.9-7.8,20.2-15.1,30.4-22.6,1.1-.8.1-2.5-1-1.7-18.4,13.4-37.3,26.4-53.3,42.9a139.6,139.6,0,0,0-20.7,27.5,218.3,218.3,0,0,0-15,32.6c-4.8,12.8-8.8,25.9-13.1,38.8a1,1,0,1,0,1.9.5Z" fill="#acb56e"/>
        <path d="M839.1,887.7a321.4,321.4,0,0,0,44.1-137.3,310,310,0,0,0,.8-40.9c-.1-1.2-2.1-1.3-2,0a316.8,316.8,0,0,1-5,72.1,322.6,322.6,0,0,1-21.1,69.1,330.4,330.4,0,0,1-18.5,36c-.6,1.1,1.1,2.1,1.7,1Z" fill="#acb56e"/>
      </g>
      <path d="M24.7,504c7.4-13.7,14-28,22.1-41.3,4.4-7.3,12.7-18.4,9.8-27.5a1.2,1.2,0,0,0-.7-.7,24.2,24.2,0,0,0-8.5.3l1.2,1.5c5.2-11.4,11.7-22,17.7-33.1,2-3.5,4.8-7.5,5.9-11.5a2.8,2.8,0,0,0,.1-2.2c-1.1-1.6-7.9-.5-9.7-.6l.9,1.5c3.3-4.6,5-10.9,7.5-16.1l8.4-18.1c2.3-5.1,4.7-10.3,7-15.5.3-.8,1.2-2.1,1.1-3s-6.1-3.1-7.7-3.6l.7,1.3c2.2-10.1,7.6-19.4,10.7-29.2s7.4-20.9,11.1-31.3l-1.9-.3c1,19.2,7,37.5,14.6,54.9l.3-1.3c-4.5,2.9-8.2,3.5-7.4,9.1s2.9,10.5,4.8,15.5c3.8,10.2,8.4,20.1,12.5,30.1a1,1,0,0,0,1.9-.5c-1.2-5.7,2.7-10.4,5.1-15.1a83.8,83.8,0,0,0,4.2-10.4c3.2-8.7,6-17.7,11.7-25.1l-1.7-.5c5.7,17.9,15.7,33.7,25.4,49.5a1,1,0,0,0,1.8-.2c3.8-11.8,9-22.9,10.1-35.3h-2c.2,3.8,2.7,7.3,4.2,10.6,2.6,5.9,4.3,12,7.6,17.7a1,1,0,0,0,1.8-.8c-.2-1.2,1.4-3.9,1.8-5l2.7-6.3c2.1-4.8,3.1-9.8,4.1-14.9,2.5-14,2.3-29.5,9.2-42.2h-1.7c8.1,17.9,11.6,37.8,15.8,56.9,2.3,10.1,4.3,20.2,5.9,30.4.7,4.9,1.1,9.9,2.1,14.7s4,9.1,2.4,13.3c-.5,1,1.3,1.7,1.8.8A115.3,115.3,0,0,0,251.2,388a1,1,0,0,0-1-1.3h-5.7l.9,1.2L260,346a1.1,1.1,0,0,0-.7-1.3l-6.3-1.5.6,1.4a125.9,125.9,0,0,0,13.8-34.5h-1.9a368.1,368.1,0,0,0,20,40.9l.4-1.4a11.4,11.4,0,0,1-5.4,1.7c-.6,0-1.2.6-.9,1.2l13.6,34.8,1.2-1.3a7.8,7.8,0,0,0-6.8,2,1,1,0,0,0-.3,1c2.2,9,5.3,17.8,10.7,25.4a1.1,1.1,0,0,0,1.9-.3c3.4-10.2,8.5-19.7,10.9-30.3s2.8-20.3,3.9-30.4a1.2,1.2,0,0,0-.8-1l-7.6-1.5.6,1.5a201.9,201.9,0,0,0,15.2-38.1,1.1,1.1,0,0,0-.5-1.2,12.4,12.4,0,0,0-9.4-1.5l1.1,1.5A216.6,216.6,0,0,0,331,263.8h-1.9A574.9,574.9,0,0,1,347,319.6l1-1.3a21,21,0,0,0-9.2,2.1.7.7,0,0,0-.5.8,203.2,203.2,0,0,0,8.4,42.3l.7-1.2-4.7.7a1.1,1.1,0,0,0-.7,1.2l14.9,56.4.7-1.2-5.9,2.2a1.3,1.3,0,0,0-.7,1.3c4.8,13.9,9.8,27.6,15.3,41.3a1,1,0,0,0,1.9,0,416.9,416.9,0,0,0,11.6-42.1,1,1,0,0,0-.9-1.3h-3.4l1,1a141.3,141.3,0,0,1,11.3-40.9l-1.8-.2,11.9,39.2.7-1.3-2.5.6a.9.9,0,0,0-.7.6c-1,5.5,2.4,9.1,4.6,13.7,3.1,6.6,1.2,14.4,2.8,21.4,2.9,12.9,11.3,23.7,13.4,36.8a1,1,0,0,0,1.9-.2c.1-4,4.4-7.3,6.1-10.8a138.8,138.8,0,0,0,5.3-14,235.5,235.5,0,0,0,9-32.9,1,1,0,0,0-.7-1.2,23.3,23.3,0,0,0-10.5-1.4l.9,1.5a155.6,155.6,0,0,0,14.9-43.5,1,1,0,0,0-1-1.2l-5.6-.2,1,1.3c6.4-15.9,12.4-31.9,17.9-48.2l-1.9.3L476,387.8l1.5-1.3a5.2,5.2,0,0,0-6.7-.5c-3.3,2.2-3.2,6.1-2.4,9.6,1.6,6.4,4.5,12.8,6.7,19.1l7.7,21.4.7-1.2-8.3,3.1a1.1,1.1,0,0,0-.6,1.5,348.5,348.5,0,0,0,21.6,39.9l.4-1.4c-3.5,1.7-9.7,2.7-8.3,7.5s3.7,8,5.5,11.7l5.4,11.8a1.1,1.1,0,0,0,1.9-.3A260.6,260.6,0,0,1,511.3,468a1.1,1.1,0,0,0-1-1.3l-5.6-.5.9,1.3c4-12.8,8-25.5,11.9-38.3h-1.9a309.1,309.1,0,0,1,12.5,41.1l1-1.3h-4.8a.9.9,0,0,0-.9,1.3,101.4,101.4,0,0,0,16.3,39.3l.6-1.5-5.2,1.7a1,1,0,0,0-.6,1.5c3.1,7.1,5.7,14.5,8.9,21.6s5.5,13,10.4,16.9,9.1-2.6,10.8-7.1c4.2-10.9,7-22.3,11.2-33.3a522.2,522.2,0,0,1,21.6-49.1,1,1,0,0,0-.9-1.5h-8.7l.8,1.5a488.2,488.2,0,0,0,19.3-50.9,1.1,1.1,0,0,0-.7-1.3,15.1,15.1,0,0,0-7.3-.5l1.2,1.3L620.4,355a.9.9,0,0,0-.7-1.2l-6.4-1.6.7,1.3c5.1-21.1,13.6-41.1,18.8-62.1a1,1,0,0,0-1-1.2l-8.2-.7,1,1.3,10.6-41.4c3.5-13.4,6.2-27.4,11.9-40.1l-1.8-.2a466.6,466.6,0,0,0,19.7,78l.7-1.2-8.9,2.1a1.2,1.2,0,0,0-.7,1.3c6.4,19.7,15.6,38.3,23.3,57.5l.7-1.2-9.8,1.7a.9.9,0,0,0-.7,1.2,172.4,172.4,0,0,0,7.5,25.7c3.1,8.4,7.2,16.4,10.2,24.9l.7-1.3a8,8,0,0,0-5,3.4.9.9,0,0,0,0,1l17.6,29.4a1,1,0,0,0,1.8-.2c4.6-14.6,11.6-28.3,16.9-42.6s9.3-30.8,13.5-46.4a1,1,0,0,0-.7-1.2l-5.6-1.3.7,1.2c8-25.3,15.3-50.8,24-75.8l-1.8.2c12.6,21.1,19.4,45,25.2,68.6l1-1.3-9.5-.8a1,1,0,0,0-.9,1.3c1.4,6.3,5.3,12.1,8.3,17.7s8.8,13.6,7.8,20.2c-.2,1.2,1.6,1.8,1.9.5l17.1-78.5-1.8.2c11.5,22.4,12.1,48.8,25.3,70.4.4.7,1.7.7,1.8-.2l7.2-45.2h-1.9a196.7,196.7,0,0,0,15.6,47.4c7.2,14.9,15.9,29.1,18.3,45.7a.9.9,0,0,0,1.6.4c7.9-7.8,8.8-19.8,10.5-30.2a138.5,138.5,0,0,1,14.6-42.4,1,1,0,0,0-.8-1.5l-13.2-.6,1,1.3c6.9-29.2,16.3-57.7,22.6-87.1a1,1,0,0,0-1.2-1.2l-8.2,1.6,1.2,1.2a899.6,899.6,0,0,1,29.4-85.1l-1.8.2c3.4,7.2,7.1,14.2,10,21.6s4.3,14.3,6.2,21.7a185.3,185.3,0,0,0,16.1,41.3l.9-1.5-9.6-.2a1,1,0,0,0-.9,1.3,970.9,970.9,0,0,0,34.7,97.8l.9-1.3-16,1.3c-.7.1-1.3.9-.9,1.5,13.2,18.4,16.5,40.9,20.7,62.6,2,10.7,4.3,21.3,8,31.5s9.5,22.7,11.6,34.9c.3,1.3,2.2.7,2-.5-2.2-12.2-7.5-23.4-11.7-34.9s-6.2-21.9-8.3-33.1c-4-21.3-7.6-43.4-20.5-61.5l-.9,1.5,16-1.3c.6,0,1.3-.6,1-1.2a970.9,970.9,0,0,1-34.7-97.8l-1,1.2,9.6.2a1,1,0,0,0,.8-1.5,185.3,185.3,0,0,1-16.7-44.3c-3.4-14.4-9.2-27-15.6-40.3-.4-.8-1.6-.4-1.8.3A846.4,846.4,0,0,0,891,252.5a1,1,0,0,0,1.2,1.2l8.2-1.6-1.2-1.2c-6.3,29.3-15.8,57.9-22.7,87.1a1,1,0,0,0,1,1.2l13.2.6-.9-1.5a135.6,135.6,0,0,0-14.1,39.1c-2.2,11-2.2,24.7-10.7,33.1l1.7.5c-2.2-15.6-9.9-29.1-16.8-43a193.4,193.4,0,0,1-17.1-50.2c-.2-.9-1.8-.9-1.9,0l-7.2,45.3,1.8-.3c-13.2-21.6-13.8-48-25.3-70.4a1,1,0,0,0-1.8.3l-17.1,78.5,1.9.5c.9-5.9-3.1-12.4-5.7-17.4-3.6-6.9-8.6-13.9-10.4-21.6l-1,1.3,9.5.8a1,1,0,0,0,1-1.2c-5.9-23.8-12.8-47.8-25.5-69.1a1,1,0,0,0-1.8.3c-8.7,25-16.1,50.5-24,75.8a.9.9,0,0,0,.7,1.2l5.6,1.3-.7-1.2c-4.2,15.5-8,31.2-13.5,46.4s-12.4,27.9-16.9,42.6l1.8-.3-8.8-14.7-3.9-6.5c-1.4-2.3-6.8-8.3-1-9.6a1.4,1.4,0,0,0,.7-1.3c-3.1-8.4-7.2-16.4-10.3-24.8a193.5,193.5,0,0,1-7.5-25.7l-.7,1.2,9.8-1.7a1,1,0,0,0,.7-1.2c-7.7-19.2-16.9-37.9-23.2-57.6l-.7,1.3,8.8-2.2a1,1,0,0,0,.7-1.3,461.7,461.7,0,0,1-19.7-78c-.1-.8-1.5-.9-1.8-.2-5.6,12.3-8.3,25.7-11.6,38.7l-11.1,43.2a1,1,0,0,0,.9,1.3l8.2.7-.9-1.3c-5.2,21-13.7,41-18.8,62a.9.9,0,0,0,.7,1.2l6.4,1.6-.7-1.2-19.3,54c-.3.8.5,1.4,1.2,1.3a10.4,10.4,0,0,1,6.3.5L606,409a503.5,503.5,0,0,1-19.1,50.5,1,1,0,0,0,.9,1.5h8.7l-.9-1.5c-11.8,23.6-23,48.5-30.2,74-1.2,4.4-4.9,21.3-11.6,13.7-8.8-10-12.4-24.7-17.6-36.8l-.6,1.5,5.2-1.6a1,1,0,0,0,.6-1.5,100.9,100.9,0,0,1-16.1-38.9l-1,1.3h4.8a.9.9,0,0,0,.9-1.3,277.2,277.2,0,0,0-12.5-41,1,1,0,0,0-1.9,0c-3.9,12.7-7.9,25.5-11.9,38.2-.2.7.3,1.2,1,1.3l5.6.5-.9-1.3a277,277,0,0,0-10.3,40.8l1.9-.2-7.1-15.1c-.9-2.1-2.6-4.5-3.1-6.7s.3-3.3,2.6-4.4l4.2-2.1a1.1,1.1,0,0,0,.4-1.4,324.8,324.8,0,0,1-21.6-39.8l-.6,1.5,8.2-3.2a1,1,0,0,0,.7-1.2l-8.3-23.2-3.8-10.7c-.6-1.7-1.3-3.4-1.8-5.1a16.4,16.4,0,0,1-.9-4.4c0-4.1,2.1-5.6,6.2-4.2a1,1,0,0,0,1.6-1.3l-22.4-46.6c-.4-.9-1.6-.5-1.9.2-5.4,16.2-11.4,32.3-17.9,48.1a1,1,0,0,0,1,1.3l5.6.2-1-1.3a152.9,152.9,0,0,1-14.6,43,1,1,0,0,0,.8,1.5,22.7,22.7,0,0,1,10,1.3l-.7-1.2a245.3,245.3,0,0,1-9.6,34.5c-1.8,5.1-3.3,10.7-6.5,15.1-1.9,2.7-4.3,5.1-4.4,8.6l2-.3c-2-12.4-9.5-22.7-12.8-34.6-1.8-6.4-.7-12.9-2-19.4-.7-3.4-8.9-15.7-4.2-16.6a1.1,1.1,0,0,0,.7-1.3l-11.9-39.1a1,1,0,0,0-1.8-.3,142.8,142.8,0,0,0-11.6,41.9c-.1.5.5,1,1,1h3.4l-1-1.2a408,408,0,0,1-11.6,42h1.9c-5.4-13.6-10.5-27.4-15.2-41.3l-.7,1.3,5.9-2.3a1,1,0,0,0,.7-1.2l-15-56.4-.7,1.2,4.7-.7a.9.9,0,0,0,.7-1.2,219.8,219.8,0,0,1-5.7-22.6c-.7-4.2-1.4-8.4-1.9-12.7-.3-2.1-1-3.9.4-5.6s4.2-1.8,6.6-1.8a1,1,0,0,0,.9-1.3A581.9,581.9,0,0,0,331,263.3a1,1,0,0,0-1.9,0,212.2,212.2,0,0,1-17.5,48.8,1,1,0,0,0,1.1,1.5c2-.5,6.3-1,6.9,1.8.2.9-1.2,4.3-1.5,5.1-1.1,3.4-2.2,6.8-3.5,10.1a203.9,203.9,0,0,1-9.4,20.8.9.9,0,0,0,.6,1.4c2.7.6,6.1.3,6.6,3.2s-.5,5.7-.8,8a159.6,159.6,0,0,1-2.5,18.4c-2.4,10.9-7.7,20.7-11.2,31.2l1.9-.3a52.1,52.1,0,0,1-6.8-12.5,64.5,64.5,0,0,1-2.1-6.2c-.8-2.6-3.4-7.6,3-6.6.7.1,1.5-.5,1.2-1.3L281.5,352l-1,1.3a16,16,0,0,0,6.4-2,.9.9,0,0,0,.3-1.3,379,379,0,0,1-19.8-40.5c-.3-.8-1.7-1-1.9,0a124.8,124.8,0,0,1-13.6,34.1,1,1,0,0,0,.6,1.5l6.3,1.6-.7-1.3-14.6,42a1.1,1.1,0,0,0,1,1.3h5.7l-.9-1.3a114.3,114.3,0,0,1-11.6,32.1l1.8.7c1.3-3.1.2-6-.9-9.1-1.8-5.1-2.3-10.6-3-16-1.5-10.9-3.7-21.8-6-32.5-4.3-19.9-8-40.6-16.5-59.2a1,1,0,0,0-1.7,0c-7.3,13.4-6.9,29.8-9.8,44.5a77.1,77.1,0,0,1-5.1,16.3c-1,2.4-3.6,6.4-3.1,9.1l1.8-.7c-3-5.2-4.7-10.8-7-16.3-1.4-3.5-4.3-7.1-4.5-11a1,1,0,0,0-2,0c-1,12.2-6.3,23.2-10,34.8l1.8-.3c-9.6-15.7-19.5-31.3-25.1-49-.2-.6-1.2-1.1-1.7-.4-6,7.7-8.9,17-12.2,26a97.7,97.7,0,0,1-6.5,14.4c-2.2,3.9-3.8,7.6-2.8,12.1l1.9-.5c-3.4-8.5-7.3-16.8-10.6-25.3-2-5-3.9-10.1-5.5-15.3a30.2,30.2,0,0,1-1.3-5.8c-.1-3.3,4.2-4.5,6.6-6.1a1.1,1.1,0,0,0,.4-1.4c-7.4-17.1-13.3-35.1-14.3-53.9a1,1,0,0,0-2-.2c-3.7,10.4-7.9,20.7-11.1,31.2s-8.5,19.1-10.7,29.2a1.1,1.1,0,0,0,.7,1.3l6.1,1.6c.1.2-.4,1.1-.5,1.3a32.7,32.7,0,0,1-2.2,5.1c-2.4,5.4-4.9,10.8-7.4,16.2l-6.8,14.6c-2.2,4.7-3.8,10.3-6.7,14.5a1,1,0,0,0,.8,1.5c2.1.1,5.1-.5,7.1.1s.7-1.4.5.4-1.5,3.2-2.2,4.4c-2,4.1-4.3,8-6.5,12-5.1,9.1-10.3,18-14.7,27.5a1.1,1.1,0,0,0,1.2,1.5c2.1-.5,6-1.6,7,.5s0,3.3-.2,4.3a30.9,30.9,0,0,1-2.6,7.4,161.4,161.4,0,0,1-8.3,14.6C36.3,476.3,30.1,489.9,23,503c-.6,1.1,1.1,2.1,1.7,1Z" fill="#4db6c1"/>
      <g>
        <path d="M115.5,695.7c-9,.6-17.4-3.3-24.8-7.9-3.6-2.2-7.1-4.7-10.6-7.2a23.6,23.6,0,0,1-6-5.8c-3-4.6-4.1-10.2-4.4-15.6a79.7,79.7,0,0,1,1.8-18.9A115.6,115.6,0,0,1,77,622.1c1.9-4.9,4-10.3,7.3-14.4a16.5,16.5,0,0,1,9.8-6.2c4.3-.7,8.4,1.5,12.6,2.1a12.2,12.2,0,0,0,5.7-.3,11.2,11.2,0,0,0,4.8-3.8,64.4,64.4,0,0,0,7.1-11,84.4,84.4,0,0,0,8.7-25.3c1.3-7.7,1.3-15.5,2.5-23.2s3.3-14.2,9.2-18.5c1.7-1.3,3.6-2.1,5.6-1a25.2,25.2,0,0,1,4.1,3.9,15,15,0,0,0,8.8,4.7c7.2,1.1,14.6-2.2,19.3-7.6s7.9-14.8,9.9-22.9,3.8-17.3,9.1-24.3,13.6-10.5,19.8-4.3c2.5,2.5,4.4,5.9,7.8,7.6s7.6.9,11.1-.8,7.1-5.1,10.5-7.8a125.6,125.6,0,0,1,11-8.2c7-4.5,15.1-8.1,23.5-8.4s14.4,1.8,19.8,6.4a20.1,20.1,0,0,1,5.9,7.9l.9-1.5a23.1,23.1,0,0,0-20.7,19.9c-.4,3.3.5,6.6-.1,9.9s-2.3,5.3-4.4,7.3a52.7,52.7,0,0,1-7.2,5.2l-9.2,5.9c-5.9,3.6-12,6.9-17.9,10.5a28.1,28.1,0,0,0-6.7,5.2,18.7,18.7,0,0,0-4.1,8.2c-.8,3.1-1.1,6.2-1.6,9.3s-1,6.4-1.8,9.6a48.1,48.1,0,0,1-7.3,17.3c-6.4,8.8-18.7,14.4-29,8.9-2.6-1.5-5.2-3.3-8.2-3.8a8.3,8.3,0,0,0-7.2,2.1,24.8,24.8,0,0,0-5,7.4,41.7,41.7,0,0,0-2.9,8.4,53.7,53.7,0,0,0-1.1,18.3c.7,6.9,3,13.5,3.1,20.4s-2.6,12.5-8.7,14.3-10.1-4.6-15.3-6.4-10.8-.2-14.9,2.9-7.2,9.3-8,15a45.2,45.2,0,0,0-.4,9c.2,3.6.7,7.4.1,11-1,5.6-5,10.1-10,12.6a21.6,21.6,0,0,1-7.8,2.1c-1.3.1-1.3,2.1,0,2a23.6,23.6,0,0,0,14.4-6.3c4.4-4.3,5.8-9.9,5.7-16a85.3,85.3,0,0,1-.4-10.1,28.3,28.3,0,0,1,1.7-9.2c2-5.6,6.3-10.2,12.2-11.5a11.7,11.7,0,0,1,8,.9c2.6,1.3,4.8,3.4,7.3,4.8,5,2.7,10.4,1.2,14-2.9s4.5-11.1,3.6-17.2c-.4-3.5-1.3-6.8-1.9-10.3a78.1,78.1,0,0,1-1-9.6,48,48,0,0,1,2.9-18.4c1.8-5,5.6-13.1,12.2-11.2,3,.9,5.5,3,8.4,4.3a20.5,20.5,0,0,0,7.3,1.7,26.3,26.3,0,0,0,14.9-4.7c10.2-6.9,14.3-19.1,16.4-30.7l1.5-9.6c.5-3.2,1.1-6.5,2.9-9.3,3.4-5.4,10-8.1,15.3-11.2s12.3-7.3,18.3-11.2,10.3-6.2,12.8-11.4c1.3-2.9,1.2-5.8,1-8.9a22.4,22.4,0,0,1,1.1-8.5,21.2,21.2,0,0,1,10.2-11.8,19.7,19.7,0,0,1,7.5-2.2,1,1,0,0,0,.9-1.5c-6-14.1-23.9-17.6-37.3-13.6-8.6,2.6-16.2,7.7-23.3,13.2-3.6,2.8-6.9,6-10.8,8.5s-8.3,4.1-12.3,1.4-4.8-5.7-7.8-8a12,12,0,0,0-10.4-1.8c-8.1,2.2-13,9.6-15.9,17s-4.3,17.3-7.3,25.7-7.4,15.5-15.7,18.2a16.4,16.4,0,0,1-10.7.3,14,14,0,0,1-4.7-2.8,50.8,50.8,0,0,0-3.9-4.1,6.7,6.7,0,0,0-4.6-1.8c-2,.1-3.7,1.3-5.2,2.5a21.7,21.7,0,0,0-6.3,8.4c-3.1,6.9-3.6,14.6-4.1,22a102.6,102.6,0,0,1-4.9,25.6,95.2,95.2,0,0,1-5.7,12.6c-1.2,2-2.4,4-3.7,5.9a23.6,23.6,0,0,1-4.5,5.5c-3.8,2.8-8.7.7-12.7-.3a16.6,16.6,0,0,0-11.8,1c-5.7,3-8.8,8.7-11.5,14.3a132.4,132.4,0,0,0-6.3,17.3,97.3,97.3,0,0,0-3.4,19.4,44.7,44.7,0,0,0,1.7,17.8,25.5,25.5,0,0,0,3.5,7,31.5,31.5,0,0,0,6.7,5.9C86.9,688,94.5,693.2,103,696a32.9,32.9,0,0,0,12.5,1.7C116.7,697.6,116.7,695.6,115.5,695.7Z" fill="#4db6c1"/>
        <path d="M45.3,867.7a275.4,275.4,0,0,1-5.2-92.3c3.3-30.2,11.7-60.2,25.6-87.2s30.6-48.5,49.5-70c9.4-10.8,19.2-21.3,29.1-31.8s20.4-21.7,30.9-32.2c21.8-22,45-42.6,70.2-60.7,3.1-2.2,6.2-4.4,9.4-6.5,1-.8,0-2.5-1.1-1.8-25.8,17.6-49.7,38-72,59.8-11,10.6-21.5,21.7-32,32.8s-20,21.2-29.8,32c-19.2,21.4-37.5,44-51.6,69.2a251.5,251.5,0,0,0-28.8,85.5A277.7,277.7,0,0,0,41,856.8c.7,3.8,1.5,7.6,2.3,11.5.3,1.2,2.2.7,2-.6Z" fill="#acb56e"/>
        <path d="M242.6,499.8a54.7,54.7,0,0,0,33.2-8.6c1.1-.7.1-2.4-1-1.7a53.9,53.9,0,0,1-32.2,8.3c-1.3-.1-1.2,1.9,0,2Z" fill="#acb56e"/>
        <path d="M184.4,552.4a58.2,58.2,0,0,0,35.1,5.4c1.3-.2.7-2.1-.5-1.9a55.8,55.8,0,0,1-33.6-5.3c-1.2-.5-2.2,1.2-1,1.8Z" fill="#acb56e"/>
        <path d="M125.8,614.2a54.7,54.7,0,0,0,31.4,10.2c1.3.1,1.3-1.9,0-2a53.5,53.5,0,0,1-30.4-9.9c-1-.8-2,1-1,1.7Z" fill="#acb56e"/>
        <path d="M87.4,655.5a26,26,0,0,0,10,8.3,88.1,88.1,0,0,0,12.5,4.4c1.2.4,1.7-1.6.5-1.9a77.1,77.1,0,0,1-11.7-4.1,24.9,24.9,0,0,1-9.6-7.7c-.8-1.1-2.5-.1-1.7,1Z" fill="#acb56e"/>
        <path d="M86.4,647.2c1.7-9.2,4.6-18.1,7.6-27,.4-1.2-1.5-1.7-1.9-.5-3,8.8-5.9,17.8-7.6,27-.3,1.3,1.7,1.8,1.9.5Z" fill="#acb56e"/>
        <path d="M143.3,583.3c.6-11.2,3.8-22.1,8-32.5.5-1.2-1.4-1.7-1.9-.5-4.3,10.6-7.4,21.6-8.1,33-.1,1.3,1.9,1.3,2,0Z" fill="#acb56e"/>
        <path d="M203.1,521.5a86.9,86.9,0,0,1,10.3-23.1c.7-1.1-1.1-2.1-1.7-1A86.1,86.1,0,0,0,201.2,521a1,1,0,1,0,1.9.5Z" fill="#acb56e"/>
      </g>
    </g>
  </g>
</svg>
