<svg xmlns="http://www.w3.org/2000/svg" width="1024" height="1024" viewBox="0 0 1024 1024">
  <g>
    <g>
      <path d="M279.9,602.9c0-11.4.6-22.8,1.6-34.2s3-22.5,4.7-33.7c.7-4.9,1.9-10,4.7-14.2-.2.3,2.9,3.4,3.2,3.8s4,3,6,4.4l8.9,6c1.3.9,3.4,1.9,4.4,3.1s.6,1.8.2,3.1c-1.7,6.6-2.4,13.4-3.7,20.1L302.1,604c-1.8,9.9-4,19.8-4.7,29.9-.2,2,.6,10.2-2.5,10.7l-1.3-.2a47.5,47.5,0,0,0-9.3-1.5c-.4,0-5.9-.3-5.9,0-.3-6.5.5-13,.9-19.6S279.9,609.7,279.9,602.9Z" fill="#a4c4d5"/>
      <path d="M276.6,579.6c-.2-.3-.3-.7-.5-1a10.8,10.8,0,0,1-.9-8.1c.8-3.2,3.9-4.7,6.7-6.7l-.3,3.8c1.4.2,3.8-2,5.2-2.5a22.3,22.3,0,0,0,5-3.2c1.2-1,3-2.6,4.1-.8s-.7,3.6-1.8,4.6a13.1,13.1,0,0,0-2.3,2.4c-1.5,2.6-2.3,5.8-3.5,8.5a14.5,14.5,0,0,1-3.5,5.2,6.4,6.4,0,0,1-5,1.2C277.9,582.6,277.3,581.2,276.6,579.6Z" fill="#82625d"/>
      <path d="M212.1,566.1a22.7,22.7,0,0,1,6.2,2.1c7.2,3.8,12.5,10.4,17.5,16.7,6.9,8.5,11.8,18.5,19.6,26.2,1.9,1.8,4,3.6,5.2,5.9,3.3,6.2-2.2,11.5-7.7,13s-13.1.5-18.9-2.2-12.6-8.6-18-14-10.4-9.5-14.1-16c-4.8-8.3-9-25.6,2.3-30.7A14.3,14.3,0,0,1,212.1,566.1Z" fill="#99552e"/>
      <path d="M246.8,612.3c2.9-2.6,6.2-4.9,8.4-6.9,7.6-7.1,14.5-15,18.9-24.3,1.7-3.5,6-5,8-.7,3.2,6.8-2.2,16.2-5,22.3-4.9,10.7-13.3,26.4-26.6,27.7-3.5.3-7.7-2.4-8.8-5.7C240.1,619.8,243.1,615.7,246.8,612.3Z" fill="#99552e"/>
      <g>
        <path d="M205,556.1a27,27,0,0,0,6.2-11c1-3.7,2-6.1,5.9-7.6,6.9-2.8,13.4-2.2,18.6,3.5,2.1,2.3,3.5,5.1,5.2,7.8s3.4,4.9,2.1,7.8-3.9,3.6-6,4.8a63.1,63.1,0,0,0-12.5,8.6c-2.8,2.3-4.7,5.6-7.7,7.8-4.8,3.6-11.4.8-15.9-2.1a28.1,28.1,0,0,1-6.6-5.8c-2.6-3.1.5-4.7,3-6.6A47.1,47.1,0,0,0,205,556.1Z" fill="#74514b"/>
        <path d="M237.7,543.7a18.9,18.9,0,0,0-2-2.7c-5.2-5.7-11.7-6.3-18.6-3.5-3.9,1.5-4.9,3.9-5.9,7.6a27,27,0,0,1-6.2,11,47.1,47.1,0,0,1-7.7,7.2c-2.5,1.9-5.6,3.5-3,6.6C210.5,564.4,225.9,555.8,237.7,543.7Z" fill="#82625d"/>
        <path d="M212.5,543.4a36.7,36.7,0,0,1,.6-25.1,22.5,22.5,0,0,1,6.4-9.1c13.2-10.8,32.8-12.6,43.1,3.5,6.9,10.9,4.8,25.8.5,37.2-3,7.9-9,16.6-17.4,19.5-11.1,3.8-21.4-7.5-27.6-15.5A35.4,35.4,0,0,1,212.5,543.4Z" fill="#74514b"/>
        <path d="M241.6,550.4c13.3-14.2,12.5-34.6,1-49.5-8-.4-16.4,2.8-23.1,8.3a22.5,22.5,0,0,0-6.4,9.1,36.7,36.7,0,0,0-.6,25.1,35.4,35.4,0,0,0,5.6,10.5c1.2,1.5,2.5,3.2,4,4.8C229.4,557.7,236.8,556,241.6,550.4Z" fill="#82625d"/>
        <path d="M266,521.1c-1.1,1.2-4,.7-5.4.8s-4.9.3-6.8,1.8-2.2,3.4-3.7,4.7-4.7,1.6-7,2-4.1,5.7-7.1,4.6-1.9-3.1-4.1-3.4-6.1,2.5-7.1,4.9c-.4.8-.6,1.6-1,2.4a9.9,9.9,0,0,1-3.1,3,24.5,24.5,0,0,1-7.8,3.3,3.7,3.7,0,0,1-1.8.1,3.5,3.5,0,0,1-1.7-.9l-2.2-2a16.4,16.4,0,0,1-2.1-2.5c-4-5.7-4.2-12.8-3.5-19.4a27.9,27.9,0,0,1,9.3-18.6c8.2-7.4,18.9-8.1,29.2-5.7a50.3,50.3,0,0,1,10.1,3.5,31,31,0,0,1,10.8,8.2,28.3,28.3,0,0,1,3.8,5.9c.7,1.7,2.2,4.7,1.7,6.6A1.8,1.8,0,0,1,266,521.1Z" fill="#35353e"/>
        <path d="M250.2,499.1a1.8,1.8,0,0,1,.6,1.3c-.1,3.1-1.8,6.5-3.1,9.4a60.2,60.2,0,0,1-4.9,9,59,59,0,0,1-7.3,9.2c-2.2,2.3-5.4,6.2-8.5,7.3a2.8,2.8,0,0,1-3.3-.9c-.6-1.1.3-2.2.9-3.2a173.8,173.8,0,0,0,8.2-16.8c1.3-2.9,2.5-6,3.6-9s1.4-6,3.4-8.1,4-1.3,6-.6A13.8,13.8,0,0,1,250.2,499.1Z" fill="#facd42"/>
        <path d="M201.3,490a17.3,17.3,0,0,0-12.4-1.3c-4.5,1.3-8.7,5.2-11.9,8.5s-5.7,6.9-5.5,10.9a31.6,31.6,0,0,0,3.2,12.4,14.8,14.8,0,0,0,3.1,4.3c1.7,1.4,3.8,1.5,5.9,1.9a22.9,22.9,0,0,0,6.4,0,21.5,21.5,0,0,0,12.7-6.6,28.5,28.5,0,0,0,7.4-14.4c.9-5.4-1.9-10.9-6.2-14.1A12,12,0,0,0,201.3,490Z" fill="#35353e"/>
        <path d="M233.8,527.9a6.7,6.7,0,0,0-6.2-3,6.3,6.3,0,0,0-5.3,4.5c-1.1,3.2.6,5.9,2.5,8.4s4.3,4.9,6.9,2.8a8.5,8.5,0,0,0,2.6-4.6C234.8,533.6,235.1,530.1,233.8,527.9Z" fill="#82625d"/>
      </g>
      <path d="M229.4,579.4a48.2,48.2,0,0,1,2.7,5c3.3,6.4,4,15.2,5.9,22,1,3.5,3,6.7,3.6,10.4a17.9,17.9,0,0,1-1.9,10.9c-2.2,4.2-6,7.3-9.2,10.6s-4.2,4.7-5,7.6-1.9,6.8-3.1,10.1a85.2,85.2,0,0,1-11.3,21.8c-2.7,3.9-6.1,7.5-10.4,9.4-9.2,4-20.9-1.2-29.1-5.7a68,68,0,0,1-16.1-12.6c-3-3.3-11.8-11.6-10.3-16.4s4.7-6.4,7.3-9.1a67.8,67.8,0,0,0,8.2-10.2c7.1-10.7,10.5-24.1,12.8-36.5,1.8-9.6,6.4-22.6,13.7-29.5,9.4-8.7,23.3-6.4,32.7,1.2A47.7,47.7,0,0,1,229.4,579.4Z" fill="#4db6c1"/>
      <path d="M200.6,583.4a194,194,0,0,0,8.9-20.6c-7.6-2.4-16-1.5-22.3,4.4s-11.9,19.9-13.7,29.5c-2.3,12.4-5.7,25.8-12.8,36.5a67.8,67.8,0,0,1-8.2,10.2c-2.6,2.7-6.2,5.3-7.3,9.1s7.3,13.1,10.3,16.4a68,68,0,0,0,16.1,12.6,64,64,0,0,0,14.6,6.1c9.7-12.3,16.8-26.6,18.4-42.2C207.6,624.4,191.6,602.4,200.6,583.4Z" fill="#e18d58"/>
      <path d="M241.6,616.8c-.6-3.7-2.6-6.9-3.6-10.4-1.9-6.8-2.6-15.6-5.9-22a48.2,48.2,0,0,0-2.7-5,47.7,47.7,0,0,0-9.5-11,32.8,32.8,0,0,0-10.4-5.6,194,194,0,0,1-8.9,20.6c-9,19,7,41,4,62-1.6,15.6-8.7,29.9-18.4,42.2,5,1.3,10,1.5,14.5-.4s7.7-5.5,10.4-9.4A85.2,85.2,0,0,0,222.4,656c1.2-3.3,2.1-6.7,3.1-10.1s2.8-5.4,5-7.6,7-6.4,9.2-10.6A17.9,17.9,0,0,0,241.6,616.8Z" fill="#99552e"/>
      <path d="M182.7,563.2l.3-.3c7.1-7,19.4-6.3,27.9-3s16.9,12.2,21,20.9a35.2,35.2,0,0,1,3.3,13.2,23.8,23.8,0,0,1-.7,7c-1,3.4-4.6-1.1-5.5-2.4-3-4.2-2.8-9.5-4.7-14.1a33.5,33.5,0,0,0-8.6-12.1c-7.2-6.6-17.5-9.5-26.5-4.6a24.8,24.8,0,0,1-3.2,1.7c-2.5.8-4.7-.4-4.7-3A5.2,5.2,0,0,1,182.7,563.2Z" fill="#35353e"/>
      <path d="M164.3,743.3a315.1,315.1,0,0,1-24.4,37.4c-17.5,23.2-37.2,44.4-56.9,65.7-3.7,3.9-8.7,11.4-14,12.9s-7.4-5.5-5.6-9.9c4.7-10.8,12.1-20.3,17.8-30.6,4.5-8.1,8.7-16.5,12.6-24.9s6.4-15.5,12.6-21.8a13.9,13.9,0,0,0,2.7-3.2,15.2,15.2,0,0,0,1.2-3.6c5.5-26,15.8-50.6,24.6-75.5a14.7,14.7,0,0,1,2.3-4.7,14,14,0,0,1,5.7-3.5,78,78,0,0,1,24.3-4.6c5.2-.1,10.6.4,15,3.2,8.6,5.4,4.1,14.2,1.4,21.4A337.3,337.3,0,0,1,164.3,743.3Z" fill="#6e8390"/>
      <path d="M139.6,731.4c7.9-17.7,14-35.8,20.1-53.8a76.1,76.1,0,0,0-16.8,4,14,14,0,0,0-5.7,3.5,14.7,14.7,0,0,0-2.3,4.7c-8.8,24.9-19.1,49.5-24.6,75.5a15.2,15.2,0,0,1-1.2,3.6,13.9,13.9,0,0,1-2.7,3.2c-6.2,6.3-8.9,14-12.6,21.8s-8.1,16.8-12.6,24.9c-5.7,10.3-13.1,19.8-17.8,30.6-1.2,2.9-1.1,6.9.9,8.9,12.7-16.5,24.9-34.1,37.3-51.9C118.6,782.4,127.6,757.4,139.6,731.4Z" fill="#a4c4d5"/>
      <path d="M129.8,681.2a40,40,0,0,0,6.6,33.1c7.8,10.6,18.9,15,31.2,18.2,17.1,4.4,33.8,4.3,51.2,3.4,4.2-.2,3.7,1.4,3.9,5.4.5,10,.7,18.3,4.2,27.9,2.9,7.7,6.3,15.4,7.2,23.6.7,6.2-.1,12.4.1,18.7.2,4.2,1.2,14.9,6.2,16.6s12-3.2,13.5-7,1.1-6,1.1-9c-.1-16.3.4-32.7,1.6-48.9.6-8.3,1.4-16.6,2.3-24.8s1.7-15.2-.4-22.9c-1.1-4-5.3-6-8.6-8-19.5-11.7-38.5-25.4-59.5-34.4-4.9-2.2-10.1-4.5-15.4-5.7s-9.4-2.5-13.3-5.9-6.9-5.9-11.2-6.6-6.7,1.2-9.6,4.5A50.8,50.8,0,0,0,129.8,681.2Z" fill="#6e8390"/>
      <path d="M249.9,707.5c-19.5-11.7-38.5-25.4-59.5-34.4-4.9-2.2-10.1-4.5-15.4-5.7s-9.4-2.5-13.3-5.9-6.9-5.9-11.2-6.6-6.7,1.2-9.6,4.5a50.8,50.8,0,0,0-11.1,21.8,40,40,0,0,0,6.6,33.1,36.7,36.7,0,0,0,6.3,6.7c4.5,1.2,9.6.6,13.9,2.4,34.9,13.9,67.8-.9,102.7-4a27,27,0,0,0-.8-3.9C257.4,711.5,253.2,709.5,249.9,707.5Z" fill="#a4c4d5"/>
      <path d="M255,807.7c3.8.5,4.2,3.1,5.2,6.4s2.3,7.4,4.8,10.7a64.8,64.8,0,0,0,21.8,18.8,7.3,7.3,0,0,1,2.3,1.6,5.8,5.8,0,0,1,.7,3.2c0,2.3-.1,4.5-.3,6.8s-15.3,1.3-16.8,1.3c-6.3,0-12.7-.4-19.1-1a76,76,0,0,0-12.6-.6c-3.4.2-7.5.7-9.4-2.1s-.9-4.7-.4-7c2.1-12-.7-22.8-.3-34.6a8.5,8.5,0,0,1,.4-2.3,4.5,4.5,0,0,1,2.9-2.3C240.4,805.1,248.8,806.8,255,807.7Z" fill="#20496d"/>
      <path d="M84.2,850.9a10.2,10.2,0,0,1,1.1,3.5c.2,4.4-4.4,7.2-6.9,10.8s-2.5,6.4-2.9,9.9c-.7,5.6-.7,11.9,3,16.2,1.7,2,4.2,3.4,6,5.3s3,5.1,1.6,7.4a94.7,94.7,0,0,1-18.4,1.6,3.9,3.9,0,0,1-1.5-.2,6.3,6.3,0,0,1-1.2-1.1,307,307,0,0,1-26.2-35.8c-.8-1.3-1.6-2.7-1.3-4.2a4.6,4.6,0,0,1,1.2-2.4c6.4-9.2,14.2-18.2,23.1-25.2C68.8,831.3,81.1,844.8,84.2,850.9Z" fill="#20496d"/>
      <path d="M61.8,836.7c-8.9,7-16.7,16-23.1,25.2a4.6,4.6,0,0,0-1.2,2.4c-.3,1.5.5,2.9,1.3,4.2A307,307,0,0,0,65,904.3h.1c1.3-21.5,3.5-42.6,13.1-61.4C73.2,837.7,66.3,833.2,61.8,836.7Z" fill="#2559a7"/>
      <path d="M207.7,643.4a39,39,0,0,1-6.3,2.3,101.9,101.9,0,0,1-19.1,3.4c-10.9.8-21.9.3-32.8.1a10.2,10.2,0,0,0-3.1.3c-2.8,1.1-2.1,4.3.4,4.9a21.5,21.5,0,0,0,6.7.2q15-.9,30-2.1l15.2-1.3c4.8-.4,10-.3,14.5-2a41.2,41.2,0,0,0,6.6-3.4,15.2,15.2,0,0,0,4-3.2,4.8,4.8,0,0,0,.8-4.7c-1.4-3-4.9-1.7-6.8-.3A54.6,54.6,0,0,1,207.7,643.4Z" fill="#35353e"/>
      <path d="M174.1,555.4c-7.2-1.6-14.6,1.8-20.9,5.8-12.4,8-23.6,18.1-31.8,30.3-4,6-8.2,13.1-9.8,20.1s.8,17.1,2.5,24.7,6.2,10.6,11.2,14.1,10.8,9.2,15.6,7.2c2.4-1.1,4.1-3.2,5.8-5.3l7.4-9.5c8.1-10.3,13.6-22.4,17.9-34.7,2.2-6.2,4.1-12.6,5.8-19.1s2.3-11.5,6-16.5c2.1-2.8,5-6.6,1.8-10A22.7,22.7,0,0,0,174.1,555.4Z" fill="#20496d"/>
      <path d="M175.6,581.4c3.3-6.5,7.1-12.4,10.4-18.5l-.4-.4a22.7,22.7,0,0,0-11.5-7.1c-7.2-1.6-14.6,1.8-20.9,5.8-12.4,8-23.6,18.1-31.8,30.3-4,6-8.2,13.1-9.8,20.1s.8,17.1,2.5,24.7a17,17,0,0,0,1,3.2C143,635.1,161.1,606.1,175.6,581.4Z" fill="#2559a7"/>
      <path d="M314.5,518.9c-1.5.9-1.7,3.7-2.2,5.1-4.6,13.2-9.8,26.2-13.6,39.7s-6.5,25.7-9.5,38.6c-1.6,7.3-3.1,14.6-4.2,22s-2.7,15.1-1.7,22c-.1-.6,10.9,1.3,11.6,1.4l8.2,1.5c1.5.2,5.7,1.8,7,.5s.7-7.5.8-9.3c.7-6.7,1.9-13.2,2.8-19.8,1.2-9.7,2.5-18.9,5.6-28.2a290.2,290.2,0,0,1,10.9-28.6c2.1-4.7,4.3-9.4,6.8-13.9s5.2-8.3,7.4-12.6c1.3-2.6-2.1-2.9-4-3.8a49.2,49.2,0,0,1-8.7-4.8c-3.7-2.6-7-5.7-10.9-8-1.5-.8-4.5-2.7-6.1-1.9Z" fill="#bfd6e2"/>
      <path d="M217,567.4c6.5,4.8,9.3,12.6,12.6,19.6,4.4,9.2,7.3,19,11.6,28.2a57.4,57.4,0,0,0,7.9,12.7c3.1,3.6,6.2,7.2,7,12.1s-1.2,10.9-5.7,13.5-11.6.3-16.2-2.1c-11.1-5.8-14-16.5-20.7-26-9-12.6-22.3-25.9-25-41.7-1.1-6.5.9-14.9,7-18.4s14.6-2.4,20.6,1.5Z" fill="#99552e"/>
      <path d="M226.1,579.4c-2.2-4.5-4.9-8.9-9.1-12l-.9-.6c-6-3.9-14.2-5.2-20.6-1.5s-8.1,11.9-7,18.4c2.7,15.8,16,29.1,25,41.7,2.9,4.2,5.1,8.6,7.6,12.7,5.6,3.7,11.6,6.3,18.5,6.3C243.5,621.1,231.4,601.6,226.1,579.4Z" fill="#e18d58"/>
      <path d="M284.5,601.5c-1.4-4.3,1.5-8.4,3.4-12l2.7-5.4c1-1.8,1.9-2,3.7-2.8-.4.1-.8,3.3-.7,3.7.8,2.2,4.1.6,5.8.3s10-4.4,10.8-.5c.4,2-.6,5.1-.9,7.2s-3,4-4.3,6.4c-3.1,5.4-8.5,7.6-14.1,9.6-2,.7-4.2,1.8-5.3-.4S285.2,603.4,284.5,601.5Z" fill="#74514b"/>
      <path d="M272.5,611.6c3.7-3.6,7.3-7.4,10.8-11.2,1.7-1.8,1.2-3.3,4.8-3s4.2,6,3.6,9.8-3.1,5.1-4.7,7.5-3.2,6-4.9,8.8a94.6,94.6,0,0,1-17.6,21.7c-4.9,4.3-13.5,10.4-20.5,9.8s-8.9-9.5-6.7-15.1c3.2-7.9,11.1-12.1,18.2-15.8A75.4,75.4,0,0,0,272.5,611.6Z" fill="#99552e"/>
      <path d="M289.6,597.8l-1.5-.4c-3.6-.3-3.1,1.2-4.8,3-3.5,3.8-7.1,7.6-10.8,11.2a75.4,75.4,0,0,1-17,12.5c-7.1,3.7-15,7.9-18.2,15.8a17.1,17.1,0,0,0-.9,4.6,22,22,0,0,0,10.2-2.1C264.1,634.1,287.6,619,289.6,597.8Z" fill="#e18d58"/>
    </g>
    <g>
      <g>
        <path d="M766.4,448.5c3.4,5.3,5.1,12.6,6,18.4a14.3,14.3,0,0,0,.8,3.7c2.4,5.5,8.9-.1,11.8-2.1a21.3,21.3,0,0,0,3.9-3.5c1.2-1.4,1.3-2.5,1.4-4.4a23.9,23.9,0,0,0-1.3-9.2c-2.7-8.1-10.6-17.2-19.7-17.4a11.2,11.2,0,0,0-9.3,4.4,3.5,3.5,0,0,0-.6,3.4c.7,1.5,2.3,1.7,3.5,2.6A15.3,15.3,0,0,1,766.4,448.5Z" fill="#ba7d5d"/>
        <path d="M767.4,434.1a10.7,10.7,0,0,0-7.4,4.3,3.5,3.5,0,0,0-.6,3.4c.7,1.5,2.3,1.7,3.5,2.6a15.3,15.3,0,0,1,3.5,4.1c3.4,5.3,5.1,12.6,6,18.4a14.3,14.3,0,0,0,.8,3.7c2.4,5.5,8.9-.1,11.8-2.1l1.9-1.5C784.8,453.8,777.1,443.1,767.4,434.1Z" fill="#c18a6e"/>
        <path d="M797,448.5c6.6-6.7,5.2-17.7,2.8-25.7s-8.8-17.3-18.2-21-19-2.4-26.1,3.1c-12.1,9.4-8.7,26.4,1.3,35.8a47.9,47.9,0,0,0,18,10.2c4,1.3,7.6,2.7,12,2.2A16,16,0,0,0,797,448.5Z" fill="#ba7d5d"/>
        <path d="M790.7,437.6a326.9,326.9,0,0,0-35.1-32.7h-.1c-12.1,9.4-8.7,26.4,1.3,35.8a47.9,47.9,0,0,0,18,10.2l4.9,1.5C788.3,450.3,796.2,443.6,790.7,437.6Z" fill="#c18a6e"/>
        <path d="M751.2,438.8c2.7,3,6,6.3,9.7,8a7.4,7.4,0,0,0,6.5.2c3.5-1.9,2.7-8.5,3.1-11.9s1-2.6,2.5-4.5c3.7-1.4,6.3,1.9,7.7-3.4.9-3.5,2.5-9.2,1.4-12.8s-6-5.1-9.6-4.9c-6.5.4-12.4,3.9-17.5,8a24.7,24.7,0,0,0-6,6.5C745.5,429.7,747,434.2,751.2,438.8Z" fill="#35353e"/>
        <path d="M776,424.3l6-2.8c4.8-2.1,9.9-4.3,14-7.7a.7.7,0,0,0,.4-.5,1.1,1.1,0,0,0-.1-.8c-3-7-6.6-14.2-14.2-16.9a60.1,60.1,0,0,0-10.4-2.2,20.2,20.2,0,0,0-6-.1c-2.5.5-4.2,2.7-5.9,4.5-5.9,6.1-13.9,12.5-15.8,21.2-1.4,6.2,1.7,11.2,4.1,16.6a1.6,1.6,0,0,0,.6.8h.9c4.7-.5,8.8-3,12.9-5.3S771.4,426.5,776,424.3Z" fill="#20496d"/>
        <path d="M772.7,393.6l-1-.2a20.2,20.2,0,0,0-6-.1c-2.5.5-4.2,2.7-5.9,4.5-5.9,6.1-13.9,12.5-15.8,21.2-1.4,6.2,1.7,11.2,4.1,16.6a1.6,1.6,0,0,0,.6.8h.9c4.7-.5,8.8-3,12.9-5.3s8.3-4.4,12.6-6.5C777.8,413.5,778.7,402.6,772.7,393.6Z" fill="#2559a7"/>
        <path d="M786.9,418.7c6.4-3,12.7-5.9,18.8-9.4a106.1,106.1,0,0,0,9-5.8c1.4-1,7.7-6.8,2.3-4.9a169.6,169.6,0,0,0-26.3,12.2,19.2,19.2,0,0,0-5.6,4.6c-.6.7-2.3,3.5-.7,4a2.7,2.7,0,0,0,1.7-.4Z" fill="#20496d"/>
        <path d="M777.8,428.5c-2.1-3.4-6.3-6.2-9.2-3.6a5.9,5.9,0,0,0-.3,8.4c2,2.3,5.6,2.9,8.4,2S779.2,431,777.8,428.5Z" fill="#c18a6e"/>
      </g>
      <path d="M831.9,573.1a136.9,136.9,0,0,0,6.2,13.5,69.5,69.5,0,0,0,3.6,6.6c.8,1.3,1.4,2.9,2.9,3.6a18.5,18.5,0,0,0,4.1.7c1.5.1,3.3.9,4-.8s.3-5.5.4-7.7a118.9,118.9,0,0,0-.3-11.9c-.2-3.7,0-7.4,0-11.1.1-7.7-.2-15.5-2.4-22.9-1.2-4.1-4-5.9-8-7-2.5-.7-5.5-.7-7.6.9s-4.1,8.5-4.7,12.7C829,557.4,829,565.7,831.9,573.1Z" fill="#2f8e93"/>
      <path d="M760.8,574.9c0,.7-.1,1.4-.1,2.1a61.5,61.5,0,0,1-1.2,13.6c-1,4.6-3.1,8.8-5,13.1a249.6,249.6,0,0,0-11.2,29.1c-.9,2.9-1.6,5.9-2.6,8.7a80.4,80.4,0,0,0-2.7,8.3c-.6,2.2-.8,4.7.7,6.4a4.9,4.9,0,0,0,4.8,1.3c2.3-.6,3.6-2.3,5.3-3.8s3.4-2.9,4.8-4.5a53.5,53.5,0,0,0,4.1-6.4c2.8-4.5,5.7-9,8.6-13.5,5.9-9,11.9-17.9,18-26.6a121.2,121.2,0,0,0,7-10.6c2.2-4.1,4.3-8.4,6.7-12.4a132.9,132.9,0,0,1,9.1-13.5,19.2,19.2,0,0,0,3.7-6.7c1-3.7-.3-6.6-3-9.1a30,30,0,0,0-12.2-6.8,54.9,54.9,0,0,0-17.1-2c-4.2,0-9.6,1.2-12,5C761,555.1,760.8,565.1,760.8,574.9Z" fill="#2f8e93"/>
      <path d="M775.6,541.8c-3.5.5-7.3,1.8-9.1,4.8-5.5,8.5-5.7,18.5-5.7,28.3,0,.7-.1,1.4-.1,2.1a61.5,61.5,0,0,1-1.2,13.6c-1,4.6-3.1,8.8-5,13.1a249.6,249.6,0,0,0-11.2,29.1c-.9,2.9-1.6,5.9-2.6,8.7a80.4,80.4,0,0,0-2.7,8.3c-.6,2.2-.8,4.7.7,6.4a4.9,4.9,0,0,0,4.8,1.3l.7-.3c10.3-16.4,18.8-33.9,23.8-52.8C773.8,583.8,778.2,562.6,775.6,541.8Z" fill="#4db6c1"/>
      <path d="M811.5,541.5c11.5-22.3,11.3-55.9-6.2-74.3-4.4-4.6-9.5-8.5-15.8-9.7a21.4,21.4,0,0,0-15.8,2.6c-6.1,4-6.3,9.7-6.9,16.3a39.9,39.9,0,0,0,3.9,21,32.4,32.4,0,0,1,2.3,22.1c-1.3,5.1-3.8,9.8-5.8,14.6s-6.5,15.1-.1,19.5c4,2.8,10.1,3.5,14.8,4,11.5,1.2,21.5-2.4,27.7-12.6A39,39,0,0,0,811.5,541.5Z" fill="#adcad9"/>
      <path d="M805.3,467.2a38.9,38.9,0,0,0-5.2-4.8c-11.4,2.9-23.2,8.8-18.1,19,4,7,17,6,22,14s7,19,6,30a83.3,83.3,0,0,1-11.8,30A25.7,25.7,0,0,0,809.6,545a39,39,0,0,0,1.9-3.5C823,519.2,822.8,485.6,805.3,467.2Z" fill="#7c8f9b"/>
      <path d="M775.9,527.6l-2.1-.3c-4.1-.5-4.8,1.3-6,4.6s-3.5,5.8-4.6,9.1c-3.9,11.3-1.6,25.1,7.8,33a27.1,27.1,0,0,0,4.5,3c10.5,5.5,21.2,1.8,30.5-4.3,2.6-1.7,4.6-4,7.2-5.7a60.8,60.8,0,0,1,11.2-6.1c5.1-2.2,10.6-3.5,15.6-6s11.5-6.9,10.6-13c-.3-2.4-1.9-3.7-3.6-5.1s-4.2-3.7-7-4.5-7.6-.4-11.2,0l-16,1.7c-3.7.4-7.4,1.3-11.2,1.1-2.2,0-4.1-1.2-6.1-2s-4.6-1.8-6.9-2.5A93.6,93.6,0,0,0,775.9,527.6Z" fill="#2f8e93"/>
      <path d="M838.9,542.9c4-5,2.1-8.1-1.1-11.1a44.9,44.9,0,0,0-9,.5l-16,1.7c-3.7.4-7.4,1.3-11.2,1.1-2.2,0-4.1-1.2-6.1-2s-4.6-1.8-6.9-2.5a93.6,93.6,0,0,0-12.7-3l-2.1-.3c-4.1-.5-4.8,1.3-6,4.6s-3.5,5.8-4.6,9.1c-3.9,11.3-1.6,25.1,7.8,33l2.5,1.8c19.2-4,37.4-12.4,52.1-25.3C829.4,546.7,836.1,546.7,838.9,542.9Z" fill="#4db6c1"/>
      <path d="M755.5,639.5a19.9,19.9,0,0,1,3.6,1.7,1.6,1.6,0,0,1,.8.6,1.4,1.4,0,0,1,.3,1.1c.1,4-2.2,8-1.2,11.9a12.8,12.8,0,0,0,5.9,7.6l6.9,4.7a11.7,11.7,0,0,1,3.7,3.3,6,6,0,0,1,.4,5.5c0,.1-.1.2-.1.3h-.4c-6.9,1.4-14.5.1-21.5.1s-15,.2-22.4.6c-.3,0-.9-6.6-.9-7.1a23.8,23.8,0,0,1,.7-8.4c1.1-3.8,2.8-7.3,3.8-11.2s2-8.2,3.3-12.2c.8-2.5,6.1-1,7.9-.7A43.6,43.6,0,0,1,755.5,639.5Z" fill="#35353e"/>
      <path d="M880,614.7a3.7,3.7,0,0,0-.2-1.2c-.1-.2-.4-.4-.6-.6-6.9-5.5-15.6-8.4-22-14.5l-1-1.1a3.9,3.9,0,0,1-.6-1.5,18.2,18.2,0,0,1-.7-6.1c.1-1.2,1.6-5.2,1.1-6s-5.4-.1-6.5,0-4.8.6-7.2.7H838a20.9,20.9,0,0,0-3.6.7l-.7.4c-.3.3-.2.8-.1,1.3a83.5,83.5,0,0,1,1.2,31.5c-.6,3.9,1.8,3.6,5,3.7,11.7.6,23.3.5,35,.5a5.4,5.4,0,0,0,3.3-.7c1.3-.8,1.6-2.5,1.6-4S880,615.8,880,614.7Z" fill="#35353e"/>
      <path d="M901.5,426.2l5.8-2.7c.9-.4,1.9-1,2.4.4s-.8,2.2-1.4,2.9-1.3,1.1-1.9,1.7-1.8,1.6-1.9,2,.6,2.1.6,2.8a5.9,5.9,0,0,1-.6,3.5,7,7,0,0,1-1.3,1.6l-2.7,3.4c-.5.6-.4.7-1.3.7a8.3,8.3,0,0,1-3.8-.7c-1-.4-1-.6-2-.3-3.2,1.1-6.4,1.9-9.5,3.1a3.5,3.5,0,0,1-1.7.4,11.2,11.2,0,0,1-.8-2.4c-.3-1.9-1.2-4.5.7-5.8a7.3,7.3,0,0,1,2.9-1.1c2.1-.5,3.8-2,5.7-3.3a41.7,41.7,0,0,1,4.4-2.9C897.2,428.3,899.4,427.2,901.5,426.2Z" fill="#ba7d5d"/>
      <path d="M801.2,458.7c-7.7-3.8-19.4-3.4-26.4-1.7-4.4,1.1-10,3.6-11.7,8.2s2.6,7.9,6.5,3.9c7.8-7.9,23.6-12.5,33.1-4.8,2.7,2.2,4.9,8,4.6,11.6-1,11.2-9.6,21.3-17.2,28.9a151.6,151.6,0,0,1-16.6,14.4c-2.8,2.1-5.8,4-8.7,6.1a5.7,5.7,0,0,0-2.4,2.2c-.3.5-.8,4.5-.5,4.4,8.9-4.3,17.4-13.1,24.3-20a184.6,184.6,0,0,0,16.4-19c4.7-6.3,6.5-14.1,6.5-22C809.2,464.9,805.9,461,801.2,458.7Z" fill="#35353e"/>
      <path d="M768.8,465.5h0c-2.2-1.9-5-2.1-7.7-2.9-4.3-1.3-8.2-3.7-12,0s-6.9,5.5-9.5,9.7a57.1,57.1,0,0,0-5.6,13.8c-3.1,11.3-4.3,23.3-5.9,34.9-.2,1.5-.5,3-.7,4.4s2,5.7,3.5,7.7l1.9,2.1c.6.7,1,1.5,1.5,2.2a9.7,9.7,0,0,0,3.1,4.1c2.2,1.5,4,1.1,6.5,1s5.7.2,8.6.2,10-.9,12-5a43.7,43.7,0,0,0,3.5-9.5c.8-3.9,2.5-7.1,2.7-11.1.3-5.6.9-11.2.9-16.8C771.6,488.5,770.3,477.2,768.8,465.5Z" fill="#99552e"/>
      <path d="M757,518.4c9.6-15.2,10.2-34.8,9.6-54.3a49.4,49.4,0,0,0-5.5-1.5c-4.3-1.3-8.2-3.7-12,0s-6.9,5.5-9.5,9.7a57.1,57.1,0,0,0-5.6,13.8c-3.1,11.3-4.3,23.3-5.9,34.9-.2,1.5-.5,3-.7,4.4s2,5.7,3.5,7.7l1.3,1.4C742.8,531.8,752.1,526.1,757,518.4Z" fill="#e18d58"/>
      <path d="M727.5,520.7c.1,2.8-1.7,5.3-1.3,8s2,3.7,2.8,5.3,3,8.4,6.1,10.1,5.7.5,7.8.7a50.5,50.5,0,0,0,11-.7c2.7-.4,7.7-.1,9.5-2.3s2-4.6,2.8-6.6,3.5-5.6,3.6-8.9c-8.6-.3-17.2-.3-25.8-1.4a71.3,71.3,0,0,1-11.2-2.1C731.4,522.4,728.5,520.5,727.5,520.7Z" fill="#35353e"/>
      <path d="M776.1,474c2.7,8.4,11.2,10.1,18.2,8.8,5.3-.9,10.2-3.3,15.1-5.4l19.8-8.3c3.8-1.6,7.8-3,11.6-4.8s5.9-3.8,9.1-5.1c5-2,10.3-2.6,15.3-4.8,3.2-1.4,6.6-2.8,9.8-4.4l10.9-5.5c1.4-.6,1.6-3.2,1.2-4.6s-1.3-3.7-2.4-4.2-3.4.2-4.7.6c-3.6.9-7.2,2.4-10.8,3.5-6.1,2-12.3,3.9-18.5,5.5-12.3,3.4-24.8,6.2-37.4,8.4-7,1.2-14.5,3.2-21.5,3.2s-11.1.9-15.2,6.3C774.3,466.3,775,470.4,776.1,474Z" fill="#7c8f9b"/>
      <path d="M798,477.4c21-11,43-19,66-26A162.2,162.2,0,0,0,887.3,441a4.3,4.3,0,0,0-.2-1.1c-.3-1.1-1.3-3.7-2.4-4.2s-3.4.2-4.7.6c-3.6.9-7.2,2.4-10.8,3.5-6.1,2-12.3,3.9-18.5,5.5-12.3,3.4-24.8,6.2-37.4,8.4-7,1.2-14.5,3.2-21.5,3.2s-11.1.9-15.2,6.3c-2.3,3.1-1.6,7.2-.5,10.8a13.5,13.5,0,0,0,2.9,5C785.3,480.4,791.4,481,798,477.4Z" fill="#adcad9"/>
    </g>
    <g>
      <path d="M30.7,523.3l6.8-11.8c1.8-3,4.6-6.3,5.3-9.7a1,1,0,0,0-.4-1.2c-1.4-.9-3-1.1-4.6-1.6l.6,1.5,16.1-34.4c1.2-2.6,3.8-6.6,1.5-9.4s-3.4-1.5-4.9-.2l1.7.9c7-17.9,10-37.8,21.3-53.8l-1.8-.2c1.8,6,3.2,12.2,4.9,18.2.9,3.3,1.8,6.5,2.9,9.7.4,1.1.8,2.8,2,3.3a.9.9,0,0,0,1.1-.4,106,106,0,0,0,18.7-39.9c.2-.6-.3-1.4-.9-1.3l-5.6.8.8,1.5,12.5-21.5c3.8-6.7,7.3-13.9,12.9-19.2l-1.6-.2,22.1,41.5.8-1.5a9.1,9.1,0,0,0-4.5,1.1.8.8,0,0,0-.4,1.1,78.7,78.7,0,0,0,14.5,27.6,1.1,1.1,0,0,0,1.6-.2c5.5-10.5,10.5-21.2,15.2-32.1,2.4-5.5,4.8-11.1,6.7-16.8s1.9-12.7,4.7-17.8a1,1,0,0,0-.6-1.4l-5.8-1.1.6,1.4q10.9-19.1,21.6-38.4h-1.8c6.9,13,14,25.9,21.5,38.5l.4-1.4-4.8,2.4c-.5.2-.5.9-.3,1.3,4.8,10.5,7.1,21.7,10.8,32.6a1,1,0,0,0,1.8.2c3.1-5,6.9-10,9.5-15.3s4.1-11.3,6.1-16.8a1.1,1.1,0,0,0-.5-1.2l-6.1-2.8.3,1.4a189.4,189.4,0,0,0,13.9-46,1.1,1.1,0,0,0-1-1.3l-4.8-.3,1,1.2a373.3,373.3,0,0,1,14.2-47h-2a132.4,132.4,0,0,0,22.1,45.8l.3-1.3-5.5,3.4a1,1,0,0,0-.5,1.1l16.2,48,.9-1.3-5.5.2a1,1,0,0,0-1,1.3l11.4,42.2a1,1,0,0,0,1.8.3,143.5,143.5,0,0,0,17.7-32.7c1-2.6,2.4-5.7,2.1-8.6s-3.4-3.8-6.7-4.4l.6,1.5c5.8-10.2,11.5-20.4,16.8-30.9a122,122,0,0,0,7.6-16.4c1.9-5.7.1-5.8-5.4-8.2l.4,1.4c5.4-11,11.2-22.4,15-34.1,2.4-7.6,3.2-19.2,9.8-24.4l-1.6-.2c5.2,8.1,7.7,17.4,11.3,26.2s8.3,19.6,12.4,29.5l.9-1.3-5.8.5a1.1,1.1,0,0,0-1,1.3c3.6,12.9,6.2,26.1,9.2,39.2s5.4,26.5,9.6,39.1a1,1,0,0,0,1.8.3,126.9,126.9,0,0,0,11.5-18.2.9.9,0,0,0-.6-1.4l-4.8-1.5.6,1.5a118.7,118.7,0,0,0,20-53.1l-2,.3a318.6,318.6,0,0,0,12.5,38c.2.7,1.4,1.1,1.8.3,5.8-12.8,11.6-25.5,17.2-38.4a.9.9,0,0,0-.5-1.4l-7.1-1.3.6,1.4c4.6-10.3,9.2-20.8,14.4-30.9,4.2-8.2,9.7-15.8,11.7-24.8l-1.8.2c5.8,13.6,10.4,27.7,15.6,41.5a1.1,1.1,0,0,0,1.7.5c8-8,15.9-16.2,21.3-26.3a.9.9,0,0,0-.2-1.2,9.3,9.3,0,0,0-7.1-2.7l1,1.3,24.4-67.9h-1.9c6.8,17.3,12.8,34.8,18.2,52.6a1,1,0,0,0,1.8.2l12.4-24.7h-1.7c15,30.1,25.3,62.2,35.1,94.2l1-1.2c-3.1-.2-6-.7-9-.3a1,1,0,0,0-.7,1.3c3.7,11,10.7,20.3,15.7,30.6s7.1,20.2,14.2,27.7c5.5,5.9,7.3-.6,9.1-5.5,4.6-12.4,12.3-23.5,18.7-35.1a1,1,0,0,0-.6-1.4l-11.6-2,.7,1.3c4.8-17.9,11.4-35.1,18.6-52.1.3-.8-.6-1.4-1.3-1.3a33.7,33.7,0,0,1-8.4.1l.9,1.2c10.5-31.1,21-62.3,29.5-94.1l-1.8.3c7.8,15.1,12.5,32.3,18.2,48.2,3.2,9.3,6.5,18.5,9.9,27.7,1.9,5.2,3.6,10.8,6.3,15.7l.9-1.5-10.7-.4a1,1,0,0,0-1,1.2l24.4,58.5,1-1.3H699a1.1,1.1,0,0,0-1,1.2,84.6,84.6,0,0,0,9.7,22.2.9.9,0,0,0,1.5.2L733,339.5a1,1,0,0,0-.5-1.7l-8.6-2.5.6,1.5c12-21.9,24.3-43.7,36.8-65.2a1,1,0,0,0-.8-1.5,99.8,99.8,0,0,1-13.3,1.3l.2,1.9c2.4-.3,4.1-4.7,5-6.4,2.8-5,5.1-10.2,7.5-15.5,6.1-13.3,11.5-26.6,14.3-41.1a1.1,1.1,0,0,0-1-1.3c-4.6.5-8.9,2-13.4,3l1.2,1.2c5.7-17.8,11.1-35.6,17.1-53.3,3.4-9.8,6.8-19.6,10.7-29.1,2.7-6.8,5.5-14.1,9.9-20.1h-1.8c8,14,14.4,29.2,21.1,43.7,8.6,18.4,17.7,36.9,24.1,56.2l.7-1.3a66.2,66.2,0,0,1-11.8.7,1,1,0,0,0-.9,1.5q12.9,26.4,25.6,52.7l.6-1.4c-5.2.9-9.9-1.2-15-1.7a1,1,0,0,0-.8,1.5,193.6,193.6,0,0,1,19.7,54.7,1,1,0,0,0,1.8.2L897,251a1,1,0,0,0-.6-1.5,12.9,12.9,0,0,0-12.3,2.9l1.7,1q14.1-42.2,31.8-82.8c.3-.7,0-1.5-.8-1.5l-11.3-.5,1,1.3c3.5-13.9,7.7-27.7,11.9-41.5,4.9-16.1,9.3-33,16.7-48.1l-1.8-.3,24.8,91.9.7-1.2-9.3,2.5a1.1,1.1,0,0,0-.7,1.3c6.7,26,13,52.1,20.6,77.8l1-1.2c-3.6,0-8.3-.6-11.7.6a1,1,0,0,0-.7.7c-.2,2,1.8,4.9,2.6,6.6,2.4,5.5,5,10.9,7.4,16.4s4.8,12.2,8.2,17.9c4.4,7.4,9.7,14.2,13.9,21.7.6,1.2,2.3.1,1.7-1-4.4-8-10.1-15.1-14.7-23.1-3.5-6.3-5.9-13.2-8.9-19.8s-4.9-10.7-7.3-16.1l-.8-2.1c-.3-.7-.3.5-.6.6a4.3,4.3,0,0,1,1.6-.1c3.1.1,6.2-.3,9.3-.3a1.1,1.1,0,0,0,1-1.3c-7.7-25.8-14-51.9-20.7-77.9l-.7,1.3,9.3-2.6a1.1,1.1,0,0,0,.7-1.2L935.2,79.5a1,1,0,0,0-1.8-.3c-7.3,15-11.8,31.7-16.6,47.6-4.3,14.1-8.6,28.3-12.2,42.5a1,1,0,0,0,.9,1.3l11.3.5-.9-1.5q-17.9,41-32,83.2c-.4,1,.9,1.6,1.6,1a11,11,0,0,1,10.4-2.4l-.6-1.4-35,66.5,1.8.2a193.5,193.5,0,0,0-19.9-55.1l-.9,1.5c5.4.6,10,2.6,15.5,1.6a1,1,0,0,0,.6-1.5l-25.5-52.7L831,212a73.7,73.7,0,0,0,12.4-.7,1.1,1.1,0,0,0,.7-1.3c-6.4-19-15.4-37.4-23.9-55.5-6.9-15-13.4-30.5-21.5-44.8-.4-.7-1.3-.5-1.8,0-4,5.6-6.6,12.3-9.3,18.6-4,9.8-7.6,19.8-11,29.9-6.2,18-11.7,36.3-17.5,54.5a.9.9,0,0,0,1.2,1.2c4.4-.9,8.5-2.4,12.9-2.9l-.9-1.2c-2.7,13.7-7.7,26.3-13.4,39-2,4.5-4.1,9-6.3,13.4-.8,1.7-3.5,8.9-5.7,9.2s-.8,1.9.3,2a99.8,99.8,0,0,0,13.3-1.3l-.9-1.5c-12.6,21.5-24.8,43.3-36.8,65.2a1,1,0,0,0,.6,1.4l8.6,2.5-.4-1.6-23.8,20.8,1.6.2a82,82,0,0,1-9.4-21.7l-1,1.3h8.7a.9.9,0,0,0,.9-1.3l-24.3-58.4-1,1.3,10.7.4a1,1,0,0,0,.8-1.5c-2.8-5.1-4.6-11-6.6-16.4L678,234.1c-5.4-15.4-10.1-32-17.6-46.6a1,1,0,0,0-1.8.2c-8.5,31.8-19,62.9-29.5,94.1a1.1,1.1,0,0,0,1,1.3,34,34,0,0,0,9-.2l-1.2-1.2c-7.2,17-13.9,34.3-18.6,52.1a.9.9,0,0,0,.7,1.2l11.5,2-.5-1.5c-4.9,8.8-10.3,17.2-14.7,26.2a86.2,86.2,0,0,0-4.9,11.2c-.2.8-.6,2.9-1.2,3.4s-2.9.2-3.9-.6-3.3-4.5-4.4-6.4c-4.2-7.6-6.8-15.9-10.8-23.5-4.9-9.2-10.8-17.7-14.2-27.6l-.7,1.3c2.8-.4,5.7.2,8.5.3a1,1,0,0,0,1-1.3c-10-32.2-20.3-64.4-35.4-94.7a1,1,0,0,0-1.7,0l-12.4,24.7,1.8.3q-7.9-26.7-18.2-52.7a1,1,0,0,0-1.9,0L493.4,264a1.1,1.1,0,0,0,1,1.3,3,3,0,0,1,3.7,1.3q2.1.9.3,2.4a11.1,11.1,0,0,1-1.7,2.7,68.6,68.6,0,0,1-6.1,8.1c-3.7,4.3-7.7,8.3-11.6,12.3l1.6.4c-5.2-14-9.9-28.3-15.8-42a1,1,0,0,0-1.8.2c-2.1,9.4-8,17.2-12.2,25.7S441.5,296.1,437,306c-.2.6,0,1.4.6,1.5l7.1,1.3-.6-1.5c-5.6,12.8-11.4,25.6-17.2,38.3l1.8.3a337.7,337.7,0,0,1-12.5-38,1,1,0,0,0-1.9.2,116.7,116.7,0,0,1-19.7,52.1,1,1,0,0,0,.6,1.5l4.8,1.4-.6-1.5a143.1,143.1,0,0,1-11.5,18.2l1.8.2c-4.2-12.7-6.6-26.1-9.6-39.1s-5.6-26.3-9.1-39.3l-1,1.3,5.8-.5c.6-.1,1.3-.6,1-1.3-4.3-10.2-8.8-20.5-12.9-30.8-3.4-8.6-5.9-17.5-11-25.3a.9.9,0,0,0-1.5-.2c-6.2,4.9-7.5,15.2-9.5,22.2-3.5,12.7-9.8,24.9-15.6,36.7a1,1,0,0,0,.3,1.4c2.5,1,5.8,1,5,4a40,40,0,0,1-2.3,6.3c-2.5,5.7-5.4,11.2-8.3,16.7-4.5,8.7-9.3,17.2-14.1,25.7a.9.9,0,0,0,.6,1.4c3.8.7,6,1.4,4.9,5.8a78.8,78.8,0,0,1-4.1,10.5A161.6,161.6,0,0,1,293.2,402l1.8.2-11.4-42.3-.9,1.3,5.5-.2a1,1,0,0,0,1-1.2l-9-26.7L276,320.7c-.5-1.7-2.7-5.5-2.4-7.2s2.7-2.9,4.5-4a1,1,0,0,0,.4-1.4,129.8,129.8,0,0,1-21.8-45.4,1.1,1.1,0,0,0-2,0,386.3,386.3,0,0,0-14.1,47.1,1,1,0,0,0,.9,1.3l4.8.3-1-1.3a185.7,185.7,0,0,1-13.6,45.6,1,1,0,0,0,.4,1.4c2.7,1.2,5.4,1.4,4.6,4.7s-1.5,4.3-2.2,6.4-1.5,4.5-2.5,6.7c-2.6,5.4-6.5,10.4-9.6,15.5l1.8.3c-3.7-11.1-6.1-22.4-11-33.1l-.4,1.4,4.8-2.4a1,1,0,0,0,.4-1.3c-7.5-12.7-14.7-25.5-21.5-38.5a1.1,1.1,0,0,0-1.8,0q-10.5,19.3-21.6,38.4a1.1,1.1,0,0,0,.6,1.5l5.9,1.1-.6-1.5c-2.7,4.8-2.5,10.7-4.2,15.9a176,176,0,0,1-7.2,18.7c-4.7,10.9-9.7,21.6-15.2,32.1l1.5-.2a82.1,82.1,0,0,1-8.4-12.7c-1.2-2.3-2.3-4.7-3.3-7.1s-3.5-6.5.7-6.6a1,1,0,0,0,.9-1.5l-22-41.5a1.1,1.1,0,0,0-1.6-.2c-5.3,5-8.7,11.6-12.3,17.9L94.5,394.3c-.3.6.1,1.6.9,1.5l5.6-.8-1-1.2a108,108,0,0,1-10,26.4c-2.2,3.9-4.5,8.2-7.5,11.6-.1.2.5,1.7-.2-.2l-.9-2.8c-2.8-8.5-4.6-17.3-7.2-25.9a1,1,0,0,0-1.8-.3C61,418.8,57.9,438.8,50.8,456.9c-.4,1,1,1.6,1.7,1,1.8,1.9,2.1,3.7,1.1,5.5l-1.2,2.5-2.4,5-4.3,9.3-9,19.3a.9.9,0,0,0,.6,1.4c5.1,1.5-.2,7.5-2,10.4l-6.3,11c-.7,1.1,1,2.1,1.7,1Z" fill="#4db6c1"/>
      <path d="M7.8,944c9-5.1,16-12.8,24.8-18.2a32.3,32.3,0,0,1,7.2-3.6c2.1-.6,4.3-.6,6.3-1.4s3.6-2.7,4.6-5.1,1.2-5.2,3.2-6.9,3.6-1.7,5.3-2.2a55.6,55.6,0,0,1,13.5-1.2c8.7,0,17.2,1.2,25.7,2.1,10,1,19.9.6,29.5-2.4,7.4-2.4,11.4-9,17.6-13.2,9.4-6.4,19.7-9.1,30.5-12.1,7-1.9,13.9-3.7,20.9-5.4l7.9-1.8,2.4-.5c.9-.2,1.5.1.9-.4s1.8.2,1.7-.7c-1.3-10.6,16.8-12.4,23.9-13.2,10.6-1.2,21.3-1.1,32-.9l32.5.8c8.9.1,19.2,1.5,27.5-2,4.4-1.8,8.9-4.7,13.5-2.1,2.3,1.3,4.2,3.4,6.8,4.2a4.7,4.7,0,0,0,4.2-.2c1.7-1.1,3.2-4.2,4.8-5.7s3.4-3.1,5.1-4.7a99.7,99.7,0,0,0,16-20c5.4-8.6,9.4-16.6,20.2-19.3,6.7-1.7,14.2-1.8,19.8-6.6s8.8-11.3,12.7-17.1c1.9-2.9,3.7-5.8,5.8-8.5a20.9,20.9,0,0,1,5.3-5.4c2.8-1.7,5.7-1,8.7-.6,9.1,1.4,18.6-.2,27.9,0s20.2,3.1,30.5,3.1,20.1-.5,30.2-.1c7.4.2,10.5-3.1,14.6-8.8s12.4-7,18.5-11.4,7.3-9.5,8.8-15.9c.6-2.5,1-4.6,3.4-5.9s8.9-2,12.8-3c9.3-2.2,22-7.9,31.4-3.9,3.1,1.3,6.2,3.3,9.6,3.5s5.5-.7,8.3-.7c5.8,0,9.6-.4,12.1-6.2,3.6-8.1,6.3-18.4,15.9-21.5,7.6-2.5,15.9.3,23.5-2.7s11.6-10.7,18.8-14c8.9-4.1,20.4-5.3,30-5.8s21.1.9,31.7.3c2.5-.1,5-.4,7.5-.6s4.4.2,5.9-.6,3.1-5.1,4.2-6.8a45,45,0,0,1,8.2-9.8c3.5-3.1,7.7-4,12-5.7,5.8-2.2,8.4-6.6,9.8-12.4.8-3.1,1.2-6.3,2.3-9.3,1.8-4.9,5.4-6.8,10.3-7.8,9.2-1.8,18.7-.8,28-.7,3.7,0,7.3-.2,11-.4s7.2.3,10.6-.5c5.5-1.2,8.4-6.5,10.4-11.3a81.6,81.6,0,0,0,3.2-9.5c.4-1.9.2-2.5,1.8-3.5s5.5-1.3,7.6-1.9c8.9-2.6,17.5-6.7,26.8-6.9,5.8-.1,12.6.4,17-4.2s4.4-14.4,10.8-18,15.3-3.4,22.3-3.7,15.6.4,23.1-1.9a1,1,0,1,0-.5-1.9c-10,3-21.2,1.5-31.6,2.6-7.9.8-16,1.7-19.7,9.6-2.2,4.6-3.2,10.9-8,13.7s-10.9,1.6-16.1,1.9c-11.6.7-22.5,7-33.9,9.1a.8.8,0,0,0-.7.7c-1.2,6-2.9,12.4-6.2,17.7-4.5,7.3-12.1,5.7-19.6,6.2s-15.2-.1-22.8-.1-13.6-.1-19.3,2.6-6.1,6.1-7.2,10.4c-2,7.7-2.6,15-11.1,18-5.9,2.2-10.4,3.9-14.7,8.7a77.4,77.4,0,0,0-5.5,7.3c-.9,1.4-1.6,2.9-2.5,4.2s-3.5,1.9-5.9,2.2c-17.7,1.7-35.5-1.4-53.1,1.9-7.1,1.3-14.8,2.4-20.8,6.7s-10.6,11.3-18.6,12.6-14.2-.6-20.9,2.1-9.3,7.7-12.1,12.7a50.4,50.4,0,0,0-2.9,7.3c-.7,2.1-1.4,4-3.1,5.5s-4.1,1.7-6.7,1.7a46.2,46.2,0,0,0-7.4.6c-4.4.5-8.1-2.2-12.1-3.7-6.4-2.5-13.9-.1-20.3,1.4-4.1,1-8.1,2.2-12.2,3.1s-7.4,1.1-10.9,2.3a8.3,8.3,0,0,0-5.5,6.1c-2,7.4-3.2,13.6-10.5,17.8-5.1,3-11.2,3.7-15.2,8.4-1.8,2.1-3.1,4.6-5,6.7-3.6,3.8-7.6,3.4-12.4,3.2-9.1-.3-18.3.4-27.4.3s-18.4-2.5-27.8-3-17.8.7-26.7.3c-5.8-.3-10.5-2.3-15.3,1.8-10.1,8.5-13.1,24.7-24.7,31.6-6.4,3.8-14.4,3.1-21.2,5.8s-9.8,7.1-13.1,12.5c-4.4,7.2-8.8,14.2-14.4,20.6a98.1,98.1,0,0,1-7.9,7.9l-3.5,3.3c-.9.9-2.5,3.5-3.6,4.1-3.4,1.9-9.4-5.4-13.7-5.3-2.7.1-5.2,1.3-7.6,2.3a34.6,34.6,0,0,1-14.5,3c-19.4.2-38.8-.8-58.1-.9a182.4,182.4,0,0,0-22.2,1.1c-7.3.9-17,2.1-22.4,7.7a8.7,8.7,0,0,0-2.5,7.4l1.7-.7c-1.1-1.2-5.1.3-6.4.6-5.7,1.3-11.3,2.7-17,4.2-10.9,2.8-23.1,5.1-33.4,10-6.8,3.3-12.2,8.3-17.7,13.4-7.5,6.9-19.7,7.9-29.4,7.5s-18.8-2.2-28.3-2.5c-7.3-.3-16.2-.7-22.8,2.7-3.3,1.6-4,3.8-5.1,7.1s-3,5.5-7,6.3a30.9,30.9,0,0,0-5.9,1.8c-11.1,5-19.2,14.9-29.7,20.9-1.1.6-.1,2.3,1,1.7Z" fill="#acb56e"/>
    </g>
    <g>
      <path d="M436.9,750c.5-11.6.7-23.1.9-34.7.2-19,.3-38,.4-57,.2-27.1.2-54.3.3-81.4q0-45.6.1-91.2c0-30.1.4-60.3.2-90.4,0-3.8,0-7.6-.1-11.3l-.5.8a22.7,22.7,0,0,1,14.7-2.2c2.1.3,4.3,1.1,5.4,3a8.3,8.3,0,0,1,1,5.1c-.1,5.3-.5,10.6-.6,15.9s-.3,13.1-.5,19.7c-.5,26.3-.7,52.6-.9,78.9s-.4,53.2-.5,79.8-.1,52.5-.1,78.7c0,24,0,48,.2,72,0,3.3,0,6.5.1,9.7a1,1,0,0,0,2,0c-.3-24.8-.3-49.7-.3-74.6q0-40.3.1-80.7t.4-81.6c.3-27.2.5-54.3,1-81.4.2-6.9.3-13.7.5-20.5s.6-10.7.6-16.1c.1-3.5-.8-6.8-4.1-8.6s-9.1-1.9-13.4-1.1a20,20,0,0,0-6.6,2.3,1.1,1.1,0,0,0-.5.9c.4,30.2-.1,60.5-.1,90.7s-.1,60.8-.1,91.2c-.1,27.9-.1,55.9-.2,83.9-.1,19.9-.2,39.9-.5,59.9-.1,12.3-.3,24.7-.7,37.1-.1,1.1-.1,2.1-.2,3.2a1,1,0,0,0,2,0Z" fill="#acb56e"/>
      <path d="M548,707c.2-7.5.5-15,.7-22.4.3-11.6.3-23.3.4-34.9.2-22.9.2-45.7.3-68.6V500.4q.1-40.5,0-81c-.1-7.2,0-14.5-.4-21.8-.2-3.3-.6-6.6-.8-9.8a12.7,12.7,0,0,1,.6-6.4c1.8-4.3,8.2-4.5,12.2-4.3a10.2,10.2,0,0,1,6.3,2.1c2.1,2.1,1.8,4.8,1.4,7.5-.8,6.7-.7,13.5-.9,20.2s-.4,14.8-.5,22.2c-.3,14.4-.5,28.9-.6,43.3-.3,25.6-.4,51.3-.5,76.9s-.2,53.5-.2,80.3c0,17.8-.1,35.6,0,53.3.1,5.9.1,11.8.2,17.7a1,1,0,0,0,2,0c-.2-18-.3-36-.2-53.9q0-40.2.1-80.4c.1-26.8.2-53.5.5-80.3.2-28.6.5-57.2,1.4-85.8.1-3.7.2-7.4.4-11s1-5.1.5-7.6c-1-4.4-5.6-6.2-9.7-6.5s-9.7.1-12.7,3.1-2.4,8.4-2,12.5c1.4,14.7.9,29.7.9,44.5s.1,27.2,0,40.8v81.5c0,25.7-.1,51.5-.2,77.2-.1,14.3-.1,28.6-.4,42.9q-.1,11.9-.6,23.7c-.1,1.9-.2,3.8-.2,5.7s1.9,1.3,2,0Z" fill="#acb56e"/>
      <g>
        <polygon points="401.8 554.8 584.1 554.8 626.7 519.1 584.1 483.4 401.8 483.4 423.1 519.1 401.8 554.8" fill="#c8cfa2"/>
        <path d="M401.8,555.8H583.1a2.7,2.7,0,0,0,2.1-.7l19.5-16.3,21.4-18,1.3-1a1,1,0,0,0,0-1.4l-16.2-13.5-23.4-19.6-2.6-2.2a2.9,2.9,0,0,0-1.2-.7H401.8a1,1,0,0,0-.8,1.5l18.6,31.3,2.7,4.4v-1l-18.7,31.3-2.6,4.4c-.7,1.1,1,2.1,1.7,1L421.4,524l2.6-4.4a.9.9,0,0,0,0-1l-18.7-31.2-2.6-4.5-.9,1.5H576.6a57.7,57.7,0,0,0,7.2,0h.3l-.7-.3,14.4,12.1,22.9,19.2,5.3,4.4v-1.4l-14.5,12.1-22.9,19.1-5.2,4.5.7-.3H401.8A1,1,0,0,0,401.8,555.8Z" fill="#acb56e"/>
      </g>
      <path d="M523.1,487.2l-58-.4-29.6-.2-15.2-.2c-1.8,0-9.7-1.3-11.2.2s6.1,10.5,7.1,12c3.1,5.3,5.5,10.8,8.3,16.2s2.6,7.1-.2,12.1-4.9,8.3-7.5,12.3-3.9,5.3-5.8,8c-3.1,4.5.7,3.6,4.7,3.8l22.9.7c14,.2,28,.5,42-.2,5.3-.2,11-3,16-5s12.2-5.1,18.3-7.6c12.4-5.1,25.7-7,38.1-12.2s27.2-15.2,30.4-29.4c.9-3.7,3.3-9-1.8-9.7s-11.2-.1-16.6-.1l-33-.2Z" fill="#d3d9b5"/>
      <g>
        <polygon points="610.6 470.4 428.4 470.4 385.8 434.7 428.4 399.1 610.6 399.1 589.3 434.7 610.6 470.4" fill="#c8cfa2"/>
        <path d="M610.6,469.4H435.8a56.1,56.1,0,0,0-7.1,0h-.3l.7.3-14.4-12.1-22.9-19.2-5.3-4.4v1.4l14.4-12.1,22.9-19.1,5.3-4.4-.7.3H610.3c.1-.1.2,0,.3,0l-.8-1.6-18.7,31.3-2.6,4.4a.9.9,0,0,0,0,1l18.6,31.3,2.7,4.4c.6,1.1,2.4.1,1.7-1l-18.7-31.3-2.6-4.4v1L608.9,404l2.6-4.4a1,1,0,0,0-.9-1.5H429.3a2.9,2.9,0,0,0-2.1.6l-19.5,16.4L386.3,433l-1.2,1a1,1,0,0,0,0,1.4L401.3,449l23.4,19.6,2.6,2.1a2.1,2.1,0,0,0,1.2.7,26.2,26.2,0,0,0,2.8,0H610.6A1,1,0,0,0,610.6,469.4Z" fill="#acb56e"/>
      </g>
      <path d="M508.5,455.5c6.4-1.6,12.6-3.6,18.9-5.6l35-11.2c7.4-2.4,15.1-4.9,21.2-9.8,9.1-7.3,13.5-19,21.6-27.3a74.8,74.8,0,0,0-13.4-.6l-142.9.4c-9.6,0-16.5,1.8-24.7,6.9a122.8,122.8,0,0,0-17.9,13.4c-1.4,1.2-14.9,14.3-15.6,13.1,1.8,3.2,4.9,5.2,7.9,7.1a79.7,79.7,0,0,1,9.3,7.2c6.2,5.2,12.4,11.9,19.3,16.2s12.6.4,19.4-.9c13.1-2.5,26.5-3.4,39.8-5.1A208.3,208.3,0,0,0,508.5,455.5Z" fill="#d3d9b5"/>
      <rect x="454.9" y="414.1" width="98.3" height="41.21" fill="#e3e7d0"/>
      <rect x="454.9" y="498.5" width="98.3" height="41.21" rx="20.6" fill="#e3e7d0"/>
    </g>
  </g>
</svg>
