<svg xmlns="http://www.w3.org/2000/svg" width="1024" height="1024" viewBox="0 0 1024 1024">
  <g>
    <g>
      <polygon points="350 726.6 476.6 680.2 454.9 674.8 540.9 664.8 574 671.9 587.8 706.5 603 723.6 614.6 781.6 591.3 726.4 566.2 696.8 533.8 696.1 464.4 731 431.5 736.1 490.7 705.9 498.5 699.8 462.8 700.9 340.5 739.4 350 726.6" fill="#acb56e"/>
      <polygon points="215.7 718.4 324 692.3 373.4 690.5 360.4 663.3 337.4 662.2 300.5 668.1 275.6 677.1 155.8 713.7 162.8 718.4 287.5 681.2 286.4 691.6 209.4 713.2 215.7 718.4" fill="#acb56e"/>
      <polygon points="106.1 35.3 783.5 505.6 527.4 507.3 106.1 35.3" fill="#cdd4ab"/>
      <polygon points="168.2 55.7 790.2 467.7 937.5 467.7 168.2 55.7" fill="#cdd4ab"/>
    </g>
    <g>
      <path d="M28.5,497.6c9-.5,17.9,2.3,26.9,2.4s18.1-.5,27.1-.3c18.1.4,36,3.7,53.9,5.6s34.6,1.8,51.8,4a183.4,183.4,0,0,1,27.5,5.5c8.1,2.3,15.8,5.2,24.1,6.4,16.2,2.4,32.6.4,48.8-.2s33.9-3.3,51-4.7a171.3,171.3,0,0,1,26.8-.3,58.1,58.1,0,0,1,12.5,1.9c4.2,1.3,8.2,3.4,12.2,5.2,7.9,3.6,15.9,5.1,24.4,6.3a94.7,94.7,0,0,1,24.5,6.7c6.3,2.7,11,6.7,16.1,11.3,2.8,2.6,5.6,2.5,9.3,1.9,8.3-1.3,16-2.5,24.4-.8s14.3,4.9,21.3,7.7,14.5,5.7,21.1,9.7,11.9,10.4,16.9,16.6l7,8.7c2.3,2.7,4.9,5.3,6.4,8.6,2.8,5.9,2.3,13.1,3,19.3a98,98,0,0,0,10.6,36c3.8,7.1,7.5,14,10,21.8s3.1,14.5,6.4,21c6.4,13.1,18.9,21.8,24.2,35.7,3,7.9,4.5,16.3,5.8,24.6s2.6,17,3.5,25.5,1.5,16.4,3.1,24.5a89,89,0,0,0,8.1,22.5c7.3,14.6,17.5,27.2,25.8,41.1,7.2,12,14.2,27,26.4,34.8,6.3,4.1,13.7,5.6,17.9,12.4s6.9,14.8,11.1,21.8,9.3,13.9,12.7,21.6a.9.9,0,0,0,.9.5c4,.1,8.2.5,11.9,2.3s5.6,4,8,6.4a106.5,106.5,0,0,0,9.7,9.3c3.8,3.3,7.7,6.5,10.6,10.7.7,1.1,2.5.1,1.7-1-4.6-6.7-11.6-11-17.2-16.7-4.1-4.2-7.8-8.9-13.4-11.1a24.4,24.4,0,0,0-8-1.7c-2.8-.3-2.8-.6-4.1-3.2s-2.5-4.7-3.9-7c-4.8-7.8-9.6-15.2-13.5-23.6-3.2-6.8-6.3-13.4-13.2-17.2-3-1.6-6.3-2.9-9.3-4.6a39.1,39.1,0,0,1-9.7-8.9c-5.5-6.5-9.8-13.9-14.1-21.2s-9-14.5-13.8-21.5c-10.4-15.2-20.1-31-23.3-49.4-1.5-9.1-1.9-18.4-3.2-27.6s-2.3-17.6-3.9-26.3-3.7-16.9-7.8-24.5-8.4-11.6-12.9-17.1a71,71,0,0,1-6.9-9.4c-2.3-3.8-3.4-7.7-4.5-12a122.2,122.2,0,0,0-7.8-23c-3.3-7.1-7.6-13.6-10.5-20.9a87.7,87.7,0,0,1-5-21.4c-.9-6.5-.5-13.6-2.3-19.9s-6.5-10.6-10.4-15.5c-5.4-6.6-10.5-13.8-17.2-19.3s-12.3-7.5-18.9-10.3c-14.9-6.2-29.6-13.4-46.2-11.3-3.5.5-7.1,1.6-10.6,1.7s-3.9-.8-5.7-2.5a50,50,0,0,0-16.9-11.4,97.5,97.5,0,0,0-24.4-6.4,101.9,101.9,0,0,1-13.6-2.5,85.2,85.2,0,0,1-14-5.6c-16.3-7.5-34.8-6.2-52.2-4.6-9.5.9-19,2.1-28.4,3s-18.7,1.2-28,1.7c-17.7,1-35.4,2.1-52.6-3.3-9-2.8-18-5.5-27.3-7.1s-18.1-2.6-27.2-3.3-19.1-1-28.6-1.7-19.3-2.2-28.9-3.4-19.4-2.4-29.1-2.8-19.5.3-29.3.2a82.2,82.2,0,0,1-14.8-1.3c-4.3-.7-8.4-1.4-12.8-1.1-1.3.1-1.3,2.1,0,2Z" fill="#acb56e"/>
      <path d="M632.2,816.8a22.1,22.1,0,0,1,7.9,4.1c1.8,1.6,3.3,3.6,5,5.3a28.8,28.8,0,0,0,8.2,6.1,73.2,73.2,0,0,0,9.4,3.7,54.5,54.5,0,0,1,10.1,4.7c2.9,1.8,5.7,4,8.4,6,5.7,4.2,11.6,7.4,18.7,8.6s14,.7,20.9,2.1,13.9,6.1,20.1,10.5,13.5,9.7,20.4,14.4c3.4,2.3,6.3,5.3,10.5,6.3a53.2,53.2,0,0,0,8.9,1.4c2.1.1,4.2.1,6.1,1.3s5,4.5,6.9,7.1a84.6,84.6,0,0,1,5.5,9.1c3.3,6.1,6.4,12.4,10.7,18s9.5,10.6,14.2,15.9a82,82,0,0,1,11.5,17c2.7,5.2,5.5,10.4,9.3,14.9a25.1,25.1,0,0,0,14.2,9c7.9,1.7,16,.6,23.9,2,4.1.7,8.1,2.2,12.1,3.4l12.3,3.9c7.9,2.6,15.7,5.4,23.7,7.5s15,3.3,22.1,6.4,11.2,7.3,17,10.8a30.1,30.1,0,0,0,9.1,3.7c1.3.3,1.8-1.7.6-1.9-6.9-1.6-12.1-5.9-17.7-9.8s-12.7-6.6-19.8-8.5-15-3.8-22.5-6.2-16.6-5.5-25-8.1a81.6,81.6,0,0,0-12-3.2,89.2,89.2,0,0,0-11.6-.8c-7.1-.2-14.5-.6-20.4-5-9.9-7.6-13.2-20.7-20.4-30.4-4.1-5.6-9.1-10.5-13.8-15.6a90.1,90.1,0,0,1-12.4-17.6c-3.2-6.1-6.2-12.4-10.7-17.8-1.8-2.3-3.9-4.7-6.5-6a14.7,14.7,0,0,0-5.9-1.1c-4.5-.3-9.9-.6-13.6-3.5-5.5-4.4-11.4-8.2-17.1-12.3s-13.2-9.7-20.4-13.7-12.8-3.8-19.4-4.2-14.5-.9-21-4.4-11.1-8.2-17.1-11.7-13.3-4.8-19.5-8.2a34.1,34.1,0,0,1-7.7-6.5,44.3,44.3,0,0,0-4.9-4.8,24.6,24.6,0,0,0-7.8-3.8,1,1,0,1,0-.5,1.9Z" fill="#acb56e"/>
      <path d="M40.6,375.6c1.2-6.5,4.3-12.4,8.1-17.7H47c1.6,2.7,2.5,5.8,4,8.6a1,1,0,0,0,1.8-.2c2-7.3,3.6-14.8,7.4-21.4H58.5C62,350.3,65,356,69,361.1a1,1,0,0,0,1.7-.4,29.7,29.7,0,0,1,4.6-10.8,9.7,9.7,0,0,1,1.1-1.5c-1.6-.4-.4,1.5-.4,1.6.3,2.1,3.1,5.2,4.2,6.8s1.2.8,1.6.2,2.2-5.3,4.5-6.8l-1.5-.6c1.5,7,4.7,13.4,6.5,20.4a1,1,0,0,0,1.8.2c1.4-1.9,1.8-4.3,3.2-6.3H94.5c2,3.5,2.8,7.4,4.1,11.2a67.8,67.8,0,0,1,3,10,1,1,0,0,0,1.7.5c5.1-5.8,4.8-13.5,6.9-20.5h-1.9c.9,2.1,2.7,3.9,3.9,5.8,2.3,3.6,3.9,7.5,6.2,11.1a1.1,1.1,0,0,0,1.8,0,37.2,37.2,0,0,0,2.8-7.9l-1.9.3c4.1,7.4,5.9,15.7,11.7,22.2a1,1,0,0,0,1.5-.2c1.4-2.9,2.9-6.8,2.4-10.1l-1.9.5c2.6,7.4,6.3,13.9,10.2,20.7,3,5.2,4.4,11.3,8.6,15.8a1,1,0,0,0,1.4,0c2.9-3,4.2-7.4,5.6-11.3,2.2-6.2,4.6-12.4,7-18.5l-1.8.2c1,2,1.5,3.8,3.8,4.5a1,1,0,0,0,1.2-.7c.7-4.3,1.4-8.9,4.1-12.4h-1.8c1.9,2.9,3.4,6.1,6.3,8.1a1.1,1.1,0,0,0,1.4-.4c2-4.2,3.7-8.6,5.3-13l-1.6.4c2.9,3.6,6.4,7.2,8.4,11.3s2.7,7.5,4.5,11.1a1.1,1.1,0,0,0,1.4.3c1.2-.7,1.8-3.4,2.4-4.5a58.5,58.5,0,0,1,3-6.8l-1.9-.2c1.2,5.3,5.4,7.8,8.3,12.1a75,75,0,0,1,4.8,8.8c1.6,3.1,3.8,6.1,5,9.4a1,1,0,0,0,1.6.4c3.9-3.2,6.5-7.5,9-11.9l-1.8-.2c1.1,5.5,6.2,9.2,9.6,13.4l7.1,9.1c1.3,1.6,3.1,4.5,5.3,5s3.9-2.7,4.7-5c2.1-5.4,3.2-11.4,6.5-16.3h-1.7c2.2,4,6.2,6.3,8.1,10.5s2.9,7.8,6,11a1,1,0,0,0,1.7-.7c0-4,2.6-9.1,3.7-12.9,1.8-6.4,1.9-13.3,5.1-19.2l-1.6.2c3.9,3.8,6.1,8.4,8.5,13.2s5.8,9.1,6.9,14.5l1-1.2a13.7,13.7,0,0,1-4.9-1.8,1,1,0,0,0-1.2,1.6c4.5,5.4,8.4,12.3,11.8,18.5s5.3,10.7,10,14.6a1.1,1.1,0,0,0,1.4,0c2-2.4,3.1-6,4.1-8.8s2.8-5.7,1.8-8l-1.6,1.3c2.4,2.6,3.4,5.9,5.2,8.9a43.2,43.2,0,0,0,5.4,6.6c.6.8,1.6.1,1.7-.7s.5-4.3,1-6.4,0-2.4,1.3-1.5,4.3,5.2,6.1,7.4a1,1,0,0,0,1.7-.4c.8-4.2,2.7-8,3.1-12.3l-2,.3c.8,2.3,8,22.5,11.6,16.3,1.5-2.7,1.7-6.7,2.3-9.7,1-5.3,1.9-10.6,5-15.1l-1.6.2c2,2.3,3,5.1,4.3,7.8s2.7,4.4,4,6.7c2.7,4.7,4.8,9.6,8.4,13.8a1.1,1.1,0,0,0,1.2.1c5.7-3.8,4.8-11.6,8-17l-1.6.2c3.3,3.6,5.2,8.2,7.4,12.6s4.7,7.8,6.8,12a1,1,0,0,0,1.7,0c1.4-3.2,1.6-6.6,2.9-9.8l-1.7.4c2.5,3,2.2,6.9,5.7,9.1a1.1,1.1,0,0,0,1.4-.4c1.4-2,1.2-6.8,1.6-9.2s.8-5.1,1.3-7.6.4-3.8,1.3-4.9h-1.4c8.3,7.3,13.9,18,19.7,27.4,3.2,5,6.2,10.2,9.1,15.4s4.5,8.7,8.3,11.6c.6.5,1.3,0,1.5-.6,1.5-4.2,2.6-8.5,4-12.7s2.9-7,3.8-10.7l-1.8.2c2.9,4.3,4.2,9.7,8.2,13.3a1,1,0,0,0,1.7-.5c1.8-5.7,2.6-11.6,3.6-17.6s3-11.7,4.4-17.7h-2c.7,1.9,2.2,3.4,3.2,5.1,2.7,4.8,4.5,10,7.3,14.8s5.4,8.6,7.7,13.1,3.9,9.5,6.8,13.8a1,1,0,0,0,1.6.2c2.4-3,3-6.8,5.1-9.9l-1.9-.8c-.5,2.2,2.5,5.8,3.5,7.6,2.6,4.4,5.2,8.7,7.9,13,3.6,5.8,6.9,11.9,10.4,17.8,2.1,3.6,4.5,7,6.3,10.8s2.7,5.6,5.2,7.5c.6.5,1.8.3,1.7-.7-.3-3.4,1.3-5.8,2.6-8.8a50.1,50.1,0,0,0,2.5-9.4c1.2-6.7,1.7-13.5,3.5-20.1h-1.9c.4,2.1,2.5,4.2,3.7,5.9s3.5,5.1,5,7.9c3.1,5.5,6.7,10.7,9.7,16.2s4.1,10.7,7.3,15.5a1,1,0,0,0,1.8-.3c1.7-4.8,3-9.7,4.9-14.5s2.4-7.6,4.9-10.6h-1.4c6.8,6.1,7.8,16.2,15.4,21.7a.9.9,0,0,0,1.4-.6c1.5-5.6.6-11.9,3.8-17l-1.8-.7c-1.3,3.3,3.5,10.4,4.9,13.2,4,8.2,6.8,16.8,10.4,25.1,4.4,10.3,8.2,20.5,11.7,31.1,1.8,5.3,3.7,10.5,5.7,15.8s2.6,8.2,5.2,11.7a1,1,0,0,0,1.8-.3c4.3-13.5,10.3-26.5,16.6-39.3,5.5-11.1,11.7-22.1,13.6-34.6h-1.9c4.2,11.7,10.7,22.2,15.7,33.4,3.4,7.6,5.7,17.3,12.6,22.5a1.1,1.1,0,0,0,1.5-.6c2.2-5.8,1.3-12.4,4.3-17.9h-1.7c7.1,13.2,11.5,27.6,16.4,41.8s10.9,28.6,16,43.1,9.3,26.7,15.1,39.8,9.7,27.3,16.9,39.8c.6,1,2.3.3,1.9-.7-1.1-2.8.5-5.5,1.4-8s1.8-5.5,2.6-8.3c1.7-6.3,3.3-12.6,5.1-18.8l5.4-19.4c.8-3,1.7-6.1,2.5-9.2s1-7.3,2.8-9.5l-1.6-.2c1.1,1.5,1.7,3.9,2.4,5.7,1.4,3.6,2.9,7.3,4.3,11,2.4,6,5.1,12,7.1,18.2a1,1,0,0,0,1.9-.5c-.9-4.9,1.2-9.9,2.8-14.4s3-9.1,4.5-13.7c3.4-10.7,6.7-21.3,7.5-32.4h-2c.1,5.3,3.5,10.2,5.4,15,2.6,6.3,4.8,12.6,7.6,18.8,6.1,13.5,13.6,26.5,16.9,41.1.3,1.1,1.6.9,2,0,2.3-5.8,2.6-12,4.1-18,.4-1.8.8-3.5,1.3-5.2s1.3-5.8,2.5-6.4,4.3,8.8,4.9,10.5c1.5,4.2,3,8.3,4.6,12.4,11.2,28.6,22,57.3,35.2,85.1,3.8,7.9,7.9,15.7,11.9,23.6s5.3,14.9,9.2,21.8a1,1,0,0,0,1.8-.8c-.4-1.8.8-4.5,1.2-6.2a57.7,57.7,0,0,0,.9-6q1.2-11.1,3-22.2c2.3-14,5.4-28,9-41.7h-2c7.2,20.5,9.5,43,20.5,62a1,1,0,0,0,1.8-.8c-.7-2.4,1-6.2,1.7-8.6a90.9,90.9,0,0,0,2.5-10.3c.9-4.3,1.7-8.6,2.3-13s1.1-11.5,4-16.6l-1.8-1.1c-1.9,4.6,2.4,11.8,4.2,15.8,4.3,9.8,7.4,20.1,10.8,30.2,4.2,12.7,8.6,25.3,12.8,38,1.9,5.9,3.9,11.9,6,17.9,1.6,4.3,2.8,8.8,5.7,12.5.7,1,2.5,0,1.7-1-3-3.9-4.2-8.7-5.9-13.3s-3.6-10.5-5.3-15.8c-3.9-11.8-7.9-23.5-11.9-35.2-3.2-9.6-5.9-19.6-9.8-28.9-1.4-3.3-2.9-6.4-4.2-9.7s-3.4-7-2.3-9.4-1.1-2.2-1.8-1.1a34.6,34.6,0,0,0-3.6,12.9c-.8,6.4-1.9,12.7-3.2,19-.7,3.7-1.7,7.1-2.7,10.7s-1.9,5.2-1.1,7.6l1.8-.8c-10.8-18.8-13.1-41.2-20.2-61.6a1.1,1.1,0,0,0-2,0c-3.9,15-7.1,30.1-9.5,45.4-1.1,6.9-1.9,13.9-2.7,20.9-.4,3.4-2.6,7.6-1.8,11l1.8-.8c-3.7-6.7-5.3-14.3-8.8-21.1s-8.1-15.6-11.9-23.5c-7.7-16.2-14.7-32.7-21.3-49.3-5.8-14.7-12-29.4-17.2-44.3-.9-2.7-4.4-17.6-8.6-16.5s-4.1,8.2-4.8,10.6c-1.8,6.9-2.1,14.2-4.8,20.8h2c-3-13.1-9.4-24.9-15.1-37-3.1-6.7-5.8-13.5-8.5-20.4-2.1-5.3-6.1-11.3-6.3-17a1,1,0,0,0-2,0c-1,12.7-5.2,24.8-9,36.9-2.4,7.4-7.2,16.2-5.7,24.1l1.9-.5c-2.1-6.5-4.9-12.8-7.4-19.2-1.5-3.8-3-7.6-4.6-11.4-.6-1.5-1-3.5-1.9-4.8s-1.2-.8-1.6-.2-1.5,3.6-2.1,5.8-2,7.4-3,11.1c-2.1,7.6-4.3,15.3-6.4,23s-3.8,14.2-5.8,21.3c-1.2,4.1-4.7,9.5-3.1,13.9l1.9-.8c-7.1-12.2-10.9-26.1-16.6-39-3.2-7.1-6.4-14.2-9.1-21.5s-4.8-14.8-7.4-22.1c-5.1-14-10.8-27.9-15.6-42.1s-9-27.2-15.8-39.8a.9.9,0,0,0-1.7,0c-3.1,5.7-2.3,12.4-4.6,18.4l1.5-.6c-6.8-5.1-8.8-15.3-12.3-22.7-5-10.8-11.1-20.8-15.1-32-.3-.8-1.7-1.1-1.9,0-2.1,13.4-9.1,25.1-14.9,37.1s-11.3,24.1-15.3,36.8l1.8-.2c-2.6-3.5-3.7-7.8-5.2-11.9s-3.8-10-5.5-15.1c-3.1-9.6-6.2-19.1-10.4-28.3s-6-16.5-9.9-24.3c-1.4-2.8-2.7-5.5-4-8.3s-3.4-5.7-2.7-7.5-1.3-1.7-1.8-.8c-3.3,5.3-2.5,11.7-4,17.5l1.5-.6c-7.4-5.3-8.4-15.4-15-21.4a.9.9,0,0,0-1.4,0c-2.6,3.2-3.6,7.3-5.2,11s-3.4,10-5.1,15l1.8-.2c-3-4.6-4.4-9.9-6.9-14.8s-6.3-10.1-9.2-15.4c-1.5-2.7-3.1-5.2-4.8-7.7s-4.1-4.8-4.6-7.1a1,1,0,0,0-1.9,0c-2,7.1-2.4,14.5-3.9,21.7a45.1,45.1,0,0,1-3.3,10c-1,2.4-1.8,4.4-1.5,7.1l1.7-.7c-2.9-2.2-4.1-5.7-5.7-8.8s-3.7-6.1-5.5-9.1c-3.4-5.7-6.4-11.5-9.9-17l-6.6-10.9c-1-1.7-5.3-7.7-5-9a1.1,1.1,0,0,0-1.9-.8c-2,3.1-2.4,6.8-4.7,9.6l1.5.2c-2.5-3.8-3.9-8.2-6-12.3s-5-8.8-7.6-13.2a106.4,106.4,0,0,1-6.7-13c-1.2-2.6-3.6-5.2-4.4-7.8a1.1,1.1,0,0,0-2,0c-1.3,5.9-3.3,11.7-4.3,17.7s-1.8,11.9-3.6,17.6l1.6-.4c-3.8-3.4-5.1-8.7-7.9-12.9a1,1,0,0,0-1.8.2c-.9,3.7-2.7,7.1-3.8,10.8s-2.5,8.5-4,12.7l1.4-.6c-4.6-3.5-7.3-10.7-10.2-15.6s-6.1-10.3-9.3-15.3c-5.2-8-9.9-16.9-17.2-23.2a1,1,0,0,0-1.4,0c-2,2.5-2.1,7.4-2.6,10.4s-.8,4.9-1.2,7.4-.2,3.5-.7,4.3l1.3-.4c-3-1.8-3.1-6.1-5.3-8.7a1,1,0,0,0-1.6.5c-1.2,3-1.4,6.3-2.7,9.3h1.7c-2.3-4.6-5.2-8.7-7.4-13.3s-4-8.3-7.1-11.7a1.1,1.1,0,0,0-1.6.2,37.3,37.3,0,0,0-3,8.7c-.3,1.3-1.4,6.2-2.8,6.5s-4.1-4.2-4.7-5.4c-2.2-3.9-4.5-7.7-6.6-11.6s-3-7.1-5.6-10a.9.9,0,0,0-1.5.2c-3.7,5.4-4.5,12-5.7,18.3-.2.8-1,6.9-2,7.1s-3.7-6.7-4.2-7.6a59.7,59.7,0,0,1-3.3-8.9,1,1,0,0,0-2,.3c-.4,4.1-2.3,7.8-3,11.8l1.7-.5-6.2-7.4c-1-1.3-1.1-1.6-2.7-1.6a1,1,0,0,0-.9.7,45.1,45.1,0,0,0-2.1,10.2l1.7-.7c-2.4-2.8-4.8-5.4-6.4-8.7a27.1,27.1,0,0,0-4.2-6.9c-.8-.8-2,.3-1.6,1.3s-1.6,5.6-2.1,6.8-1.7,5.5-3.4,7.4h1.4c-5.3-4.3-7.6-10.8-11-16.5s-6.7-11.6-10.8-16.5l-1.2,1.6a15.3,15.3,0,0,0,5.9,2,1.1,1.1,0,0,0,1-1.3c-1.2-5.6-4.7-10-7.2-15s-4.7-9.7-8.8-13.7a1,1,0,0,0-1.5.2c-3.3,6.2-3.5,13.2-5.4,19.8-1.1,4-3.7,9.1-3.7,13.4l1.7-.8c-3.3-3.3-4-7.8-6.2-11.7s-5.6-5.7-7.6-9.3a1,1,0,0,0-1.7,0c-2.2,3.3-3.4,7-4.7,10.8s-2,10.6-5.9,8.4c-1.6-1-3.2-3.9-4.3-5.3l-5.1-6.4c-3.2-4.1-8.5-7.9-9.6-13.2a1,1,0,0,0-1.8-.3c-2.4,4.2-4.9,8.4-8.7,11.5l1.7.5a45.8,45.8,0,0,0-3.7-6.9c-1.6-3-2.9-6-4.5-8.9-2.8-5-8.7-9-9.8-14.5a1.1,1.1,0,0,0-1.9-.3c-.9,1.7-1.6,3.6-2.4,5.4s-1.8,4.9-2.2,5.2l1.3.3c-2-3.9-2.9-8.4-5.1-12.3s-5.4-7-8.1-10.4a1.1,1.1,0,0,0-1.7.4c-1.6,4.3-3.2,8.5-5.1,12.6l1.3-.4c-2.6-1.7-3.9-4.7-5.5-7.3a1.1,1.1,0,0,0-1.8,0c-2.7,3.6-3.5,8.4-4.2,12.8l1.2-.7c-1.6-.4-1.9-2.2-2.6-3.5s-1.5-.5-1.8.2c-2.2,5.5-4.4,10.9-6.3,16.4s-2.6,9.3-5.8,12.6H155c-4-4.4-5.4-10.4-8.3-15.4-3.8-6.6-7.4-13-10-20.2a1,1,0,0,0-1.9.5c.4,2.6-1.1,6.3-2.2,8.5l1.6-.2c-5.6-6.2-7.4-14.5-11.3-21.8a1.1,1.1,0,0,0-1.9.3,28.4,28.4,0,0,1-2.6,7.4h1.8c-2.2-3.4-3.7-7.1-5.8-10.5-1.3-1.9-3.3-3.8-4.2-6a1,1,0,0,0-1.9,0c-2,6.6-1.6,14.2-6.5,19.6l1.7.5c-.6-4.1-2.3-7.7-3.5-11.6s-1.9-6.9-3.7-10.1a1.1,1.1,0,0,0-1.8,0c-1.3,2-1.7,4.4-3.1,6.3l1.8.2c-1.8-6.9-5-13.3-6.5-20.4a1,1,0,0,0-1.4-.6c-2.7,1.9-2.9,4.9-4.9,7.2l1.6.2c-2-2.8-3.9-5.4-5-8.6a1,1,0,0,0-.9-.7c-1.4-.1-2.7,2.5-3.3,3.5a26.1,26.1,0,0,0-4,10.1l1.7-.4c-4-4.9-6.9-10.5-10.3-15.8a1,1,0,0,0-1.7,0c-4,6.7-5.5,14.4-7.6,21.8l1.8-.2c-1.5-2.8-2.4-5.9-4-8.6a1,1,0,0,0-1.7,0A44,44,0,0,0,38.7,375c-.2,1.3,1.7,1.8,1.9.6Z" fill="#4db6c1"/>
      <path d="M7.3,211.8c14.5-.1,28.6-3.1,42.7-6.1,7.7-1.6,15.4-3.3,23.3-4s14.9-.1,22.3.5c28.1,2.2,57.2-1.8,84.7,5.3s50.8,25.3,78.2,32.9,57-.4,85.8.4c14.6.5,29.2,2.3,43.8.8,12.4-1.3,24.3-5.4,36.7-1.6,6.9,2.1,13.7,4.7,20.8,6.6s14.4,3.8,21.6,6c14.5,4.3,28.9,9.2,43.6,13s28.3,6.1,42.4,9.3,27.5,5.9,41.4,4.7,23.8-7.3,36.1-10.4c14.9-3.7,28.8.4,43.2,4.2s29.9,7.7,44.8,11.9,29,8.6,43.8,11.8c7.3,1.6,14.5,3.2,21.6,5.4s13.9,5.1,21.1,6.8c13.5,3,27.7,2.5,40.7,7.3,6.5,2.3,12.7,5.3,18.9,8.1l-.2-1.6c-5.5,5.2-14.5,5.3-21.4,7.5-8.5,2.6-16.4,7.4-24.7,10.5-19.1,7.1-38.5,10.2-58.8,10.3-10.2.1-20.4-.1-30.6.3-8.6.5-17.1,2.2-25.8,2.7-5.9.4-12.2.4-17.8,2.4-3.7,1.2-8.8,5.1-8.3,9.5s6.4,5.9,9.4,8.1,8.1,6.2,4.3,9.1-6.7,3.4-9.9,5.1c-7.9,4.2-15.4,6.9-24.4,7.6s-19.1,1.1-28.6,1.7-18.3,1.6-27.3,3.2-19.2,3-28.9,4.3c-17,2.3-32.3,10.6-49.2,13.4-19.1,3.2-39.1-1.3-57.3,6.7s-34.3,17.5-47.5,31c-.9.9.5,2.4,1.4,1.4,12.3-12.6,28.2-22,44.1-29.3a65.9,65.9,0,0,1,26.5-6.2c8.9-.2,17.8.2,26.7-.8a116.1,116.1,0,0,0,23.4-5c8.7-2.8,17.1-6.6,26.2-8.3s18.1-2.1,27-3.7,20-3.4,30.2-4.3,18.7-1.2,28-1.8c7.7-.4,15.2-1.1,22.4-4.1,3.7-1.5,7.2-3.6,10.8-5.4s5.8-2.3,8.1-4.3,1.3-6.1-1.3-8.7a27.6,27.6,0,0,0-6.9-5.3c-3.3-2-6.7-3.8-3.8-8,4.2-5.9,13.1-5.7,19.6-6.1,8.1-.5,15.9-2,24-2.6,9.9-.7,19.8-.5,29.7-.5s21.8-.2,32.6-1.8a158.6,158.6,0,0,0,31.8-8.4c9.2-3.5,18.1-8.9,27.6-11.4,6.7-1.8,14.8-2.4,20.1-7.4a.9.9,0,0,0-.2-1.5c-11.2-5-22.1-10.4-34.5-12-7.8-1-15.6-1.7-23.3-3.2s-14-4.2-21.1-6.5c-14.1-4.6-28.9-6.7-43.2-10.7s-29.5-8.7-44.4-12.6-29.5-8.8-44.4-11.4c-12.9-2.3-24.7.1-36.7,4.7-6.1,2.2-12.2,4.5-18.6,5.6a81.4,81.4,0,0,1-22.6.3c-14.5-1.6-28.6-5.7-42.9-8.4-29.9-5.8-58.7-16-88-24.1-11.8-3.3-23.5-9.3-36-8.3-6.1.4-12.1,1.9-18.2,2.8a130.6,130.6,0,0,1-23.4.9c-14.9-.6-29.6-1.9-44.6-.7s-28.7,3.2-43.1,2.6c-30.4-1.4-55.4-18.8-82.6-30.4a127.3,127.3,0,0,0-38.4-9.5c-13.6-1.3-27.3-.8-41-.9s-30.5-2.9-45.5-1.5-28.4,5.4-42.6,7.9a140.5,140.5,0,0,1-23.4,2.2c-1.3.1-1.3,2.1,0,2Z" fill="#acb56e"/>
      <path d="M1000.8,300c-25.6-1.4-51.3-1.9-77-2.1s-51.5-.1-77.3-.2c-14.4,0-28.9-.2-43.4-.4-1.3-.1-1.3,1.9,0,2,25.7.5,51.4.4,77.1.4s51.5.1,77.3.6c14.4.4,28.9.9,43.3,1.7a1,1,0,0,0,0-2Z" fill="#4db6c1"/>
      <path d="M720.2,468c-4.9-4.6-10.2-8.9-14.2-14.3-1.8-2.6-3.5-5.4-3.3-8.6s2.8-5.2,5.8-6.4,7.8-3.2,11.8-4.4a59.4,59.4,0,0,1,13.2-2c9.8-.6,19.7-.2,29.5-.7s21.3-1.6,32-2.6,20.4-3.1,30.7-4.4c8.5-1.1,17.4.5,25.6-2.7,4.7-1.7,12-5.3,11.5-11.4-.2-2.4-2.3-3.7-4.3-4.6a93.7,93.7,0,0,0-9-2.8,32.9,32.9,0,0,1-15.3-9.8c-2-2.2-4-5-4.1-8.1a7.7,7.7,0,0,1,4.9-7c3.1-1.2,6.7-1.2,10-1.1s6.6.5,9.8.5a98.7,98.7,0,0,0,14.4-1.1l15.5-2c10-1.2,20-2.1,29.9-3.5s19.9-3.3,29.3-6.7c7.2-2.6,15.7-5.3,20.1-12,2-3.1,1.9-6.1,1.2-9.6s-.6-5.7.8-8.2,7-5,11.1-5.5c10.9-1.3,21.7,1.4,32.6.9a21.1,21.1,0,0,0,5.6-.9c1.2-.4.7-2.3-.5-1.9-4.2,1.4-9.1.9-13.5.6s-11.6-1-17.4-1-10.2.1-14.7,2.3-6.5,6.4-6.3,11.2,1.7,6.8-.1,10.2-6,6.3-9.8,8.2a116.9,116.9,0,0,1-27.1,8.5c-10.1,2-20.4,3.1-30.7,4.2s-20.9,2.8-31.5,3.8a69.6,69.6,0,0,1-12.1.4c-3.5-.2-7-.5-10.5-.4s-6.3.5-8.8,2.2a9.8,9.8,0,0,0-4.1,7.3c-.4,6.3,5.5,11.6,10,15a31.4,31.4,0,0,0,7.5,4.4c2.9,1.1,6,1.7,9,2.7s5.9,1.5,6.1,4-2.8,5.5-5.2,7a31.5,31.5,0,0,1-7.8,3.3c-4.9,1.2-10,1.1-15,1.2-10.4.2-20.6,2.8-30.9,4.1s-21.4,2.2-32.1,2.9-20.7.7-31.1.9-17.7,1.3-26,4.8c-3,1.3-6.6,2.2-9.2,4.2s-3.1,4.9-2.8,7.9,2.2,5.9,4.1,8.3a63.5,63.5,0,0,0,7.4,8.1c2.2,2.1,4.4,4,6.6,6a1,1,0,0,0,1.4-1.4Z" fill="#4db6c1"/>
    </g>
    <g>
      <path d="M137.7,560.8a4,4,0,0,0-4.3,3.4c-.4,2,.9,3.9,1.9,5.5a10.8,10.8,0,0,1,1.5,4.7c.2,1.7-.1,3.3,1.4,4.5s3.2.8,3.7-1.4.4-6.1,2.2-9-2.3-6.4-5-7.4Z" fill="#ba7d5d"/>
      <path d="M143.4,565.9c-8.6,11.6-7.7,31.6-2.2,43.9s3.4,23.2,3.7,35.5,1.5,25.6,1.9,38.5c.1,4.1-.6,6.2,3.3,7.5s10.2,1.9,13.4-1.5c1.6-1.7,2.3-4.4,2.6-6.7a178.3,178.3,0,0,0,2.3-19.3c.5-11.7,2.8-23.4,5.1-34.6,1.3-6.7,2-13.5,3.7-20.1,2.1-8.6,4.9-16.6,7.6-25.1s3.9-17-4.3-22.5-17.4-3.3-25.2-1.1C152.3,561.3,147.5,563.8,143.4,565.9Z" fill="#4db6c1"/>
      <path d="M164.2,578.6c3.6,37.7,1.9,74.9-3,112.8a7.3,7.3,0,0,0,2.3-1.6c1.6-1.7,2.3-4.4,2.6-6.7a178.3,178.3,0,0,0,2.3-19.3c.5-11.7,2.8-23.4,5.1-34.6,1.3-6.7,2-13.5,3.7-20.1,2.1-8.6,4.9-16.6,7.6-25.1,1.9-5.9,3-11.9.7-16.9A65.7,65.7,0,0,0,164.2,578.6Z" fill="#2f8e93"/>
      <g>
        <path d="M136.7,436.6c-8.9,15.6,2.6,34.6,17.2,41.6,9.9,4.8,22.9,5.8,30.6-3.2,5.9-6.7,6.8-16.5,5.8-25a51.4,51.4,0,0,0-3.5-14,19.8,19.8,0,0,0-6.5-8.8c-3.7-2.6-8.3-3.4-12.7-3.8s-9-.9-13.6.4a28.4,28.4,0,0,0-17.2,12.7A.1.1,0,0,1,136.7,436.6Z" fill="#ba7d5d"/>
        <path d="M174.7,435.4a77.7,77.7,0,0,0-3.7-11.6l-3.4-.4c-4.7-.5-9-.9-13.6.4a28.4,28.4,0,0,0-17.2,12.7.1.1,0,0,1-.1.1c-8.9,15.6,2.6,34.6,17.2,41.6a34.4,34.4,0,0,0,16.3,3.6,52.8,52.8,0,0,0,5.5-8.4C181.7,462.4,178.7,446.4,174.7,435.4Z" fill="#c18a6e"/>
        <path d="M156.9,498.4c-3-2-2.8-6.1-3.2-9.4s-.6-8.5-.6-12.7.1-7.5,2.8-9.2,7.1-.4,9.9.8,7.8,6.8,10,10.8a67.5,67.5,0,0,1,4.3,9.5c.8,2.2,2.8,6.2,1.2,8.5s-7.9,4.2-11.9,4.5a23.4,23.4,0,0,1-9.8-1.5A11.3,11.3,0,0,1,156.9,498.4Z" fill="#c18a6e"/>
        <path d="M180.1,488.2a67.5,67.5,0,0,0-4.3-9.5,33.1,33.1,0,0,0-1.8-2.9,89.5,89.5,0,0,1-9.7,25.1,21.9,21.9,0,0,0,5.1.3c4-.3,9.3-.9,11.9-4.5S180.9,490.4,180.1,488.2Z" fill="#ba7d5d"/>
        <path d="M132.6,449.6a20.3,20.3,0,0,0,1.5,7.3c1.8,5.3,4.7,11.2,9.6,14.4s14.5,1.2,20.5-1.9,8.1-6.5,8.7-11.9c.4-2.8.2-8.2,4.5-7.8,1.4.1,1.6,1.8,3.1.6s1.1-2.2,1.2-3.3a55.4,55.4,0,0,0-.2-11.5c-.2-1.2-.1-2.9-.8-4s-6.2-1.8-8.6-1.7c-5.2.3-10,1.8-15.1,3.2a51.6,51.6,0,0,0-8.5,2.5,71,71,0,0,0-9.9,6.1,16.7,16.7,0,0,0-5,4.5A7.9,7.9,0,0,0,132.6,449.6Z" fill="#35353e"/>
        <path d="M176.7,445.3c2.6.1,6.2-1.6,8.7-2.4a67.4,67.4,0,0,0,8.7-3.8,76.7,76.7,0,0,0,10.8-7c1.5-1.2,8.1-5,4.6-6.9-5.6-3.2-14.5-1.7-20.5-.2a43.3,43.3,0,0,0-16.9,8.7c-2.7,2.3-10.8,6.7-5.2,10.7C169.8,446.4,172.8,445.1,176.7,445.3Z" fill="#20496d"/>
        <path d="M133.4,454.9c1.3,1.3,3.5,1.2,5.6,1.1,8.4-.5,16.6-2.7,24.5-5.3s15.6-4.8,22.8-8c3.2-1.5,2.2-3.7,1.2-6.3-1.7-5-3.3-13.3-8.5-16s-9.5-3.8-14.3-5.5c-3.2-1.2-5.7-.8-8.8.5s-8,4.9-11.7,7.8-9,6.7-11.1,11-1.3,7.8-1.3,11.6a24.3,24.3,0,0,0,.8,7.6A3.6,3.6,0,0,0,133.4,454.9Z" fill="#2559a7"/>
        <path d="M187.5,436.4c-1.7-5-3.3-13.3-8.5-16s-9.5-3.8-14.3-5.5a9,9,0,0,0-2.7-.7,27.8,27.8,0,0,1,6.7,8.2c3.1,8.7,2.9,17.4,1.5,26.1a139.6,139.6,0,0,0,16.1-5.8C189.5,441.2,188.5,439,187.5,436.4Z" fill="#20496d"/>
      </g>
      <path d="M194.9,564.2a23.9,23.9,0,0,0-4.8-2.4c-8.7-3.1-20.8-3.1-28.3,2.8-10,7.8-7.4,26.4-3.6,36.7,5.2,14,16.7,22.3,27.6,31.6,2.3,2,5.2,4.3,6.7,6.8,3.8,6.6,3.8,14.1,4.8,21.4a154.7,154.7,0,0,0,5.7,26c1.5,5.4,4,7.9,9.6,7.9,7.1,0,9.4-5.7,9.1-12.1-.9-24.6.8-50.1-8.2-73.6-3-8-6.8-15.7-9.6-23.8S202.3,569.3,194.9,564.2Z" fill="#4db6c1"/>
      <path d="M221.7,682.9c-.9-24.6.8-50.1-8.2-73.6-3-8-6.8-15.7-9.6-23.8s-1.6-16.2-9-21.3a23.9,23.9,0,0,0-4.8-2.4l-1.3-.4c3.1,20.4,9.8,40.2,18.9,60,10.1,21.8,12.4,45.8,11.9,70.5C221.2,689.6,221.8,686.4,221.7,682.9Z" fill="#2f8e93"/>
      <path d="M153.8,486.2c-10.6-2.8-21.3,12.4-25.9,19.4-6,9.1-13.1,17.8-16.9,27.7-1.1,2.9-3.1,7.3-.6,10s7.7,1.7,10.1.6c3.9-1.7,7.5-7.4,10.7-10.3,5.6-5.3,11-11.1,16.5-16.6s10.5-11,11.3-19.2C159.5,493.3,159.9,487.2,153.8,486.2Z" fill="#a4c4d5"/>
      <path d="M153.8,486.2c-5.1-1.4-10.3,1.5-14.7,5.6-2.2,18.5-6.8,36.5-17.5,51.6,3.5-2.3,6.7-7.2,9.6-9.8,5.6-5.3,11-11.1,16.5-16.6s10.5-11,11.3-19.2C159.5,493.3,159.9,487.2,153.8,486.2Z" fill="#6e8390"/>
      <path d="M132,549.4c-3-4.1-5.9-8.3-8.7-12.5s-5.5-4.3-9.6-2.5c-14.1,6.1,10.7,26.3,15.9,30.6,1.6,1.3,3.3,3.3,5.5,2.8s3.8-3.3,3.8-5.3c0-4.4-3.1-7.6-5.4-11Z" fill="#a4c4d5"/>
      <path d="M177.3,486.4c-5.9-3.5-12.7-4.6-20.4-3.2a47.9,47.9,0,0,0-13.3,4.7c-12.4,6.8-11.1,24.5-6.9,35.6,5.2,13.6,11.4,20.8,7.1,34.8-.4,1.5-5.3,11.5-3.1,12.3s6.5.3,9.8.2,8.2.1,12.3.4c12.8,1,27.6,8.3,40.2,3.7a45.2,45.2,0,0,1,.6-9.7c2.6-15.4-3.4-26.5-6.5-41.8C194.4,510.4,189.5,493.6,177.3,486.4Z" fill="#a4c4d5"/>
      <path d="M197.1,523.4c-2.6-12.5-7.3-28.7-18.7-36.3,10.8,28,13.4,59.3,12.7,89.2a28.1,28.1,0,0,0,11.9-1.4,45.2,45.2,0,0,1,.6-9.7C206.2,549.8,200.2,538.7,197.1,523.4Z" fill="#6e8390"/>
      <path d="M206.4,567.4c-2,.8-4.2,1.3-6.3,2.2s-2.3,3-1.9,4.8a5.7,5.7,0,0,0,1.1,2.5c.8,1.3.5,1.4.3,2.9s-.4,3.3.7,4.4,2.7.8,3.7,2,.9,4.6,2.6,3,1.6-2.8,1.8-4.1-1-4.1-.7-6c.7-4.7,7.5-6.1,5.3-12-.9-2.2-3.7-.9-5.2-.2Z" fill="#ba7d5d"/>
      <path d="M172.3,484.9c5.3-.9,12.2,2.4,16.2,4.4a101.1,101.1,0,0,1,14.3,9,107.1,107.1,0,0,1,23.3,22.3c4.5,6,18.9,19.1,15.5,26.5-1.4,3-9.7,7.4-12.7,5.6-6-3.6-10.2-10.9-15.4-15.6-12.7-11.6-27.7-19.7-41.3-30a19.1,19.1,0,0,1-4.8-4.6c-2.8-4-3-10.4-.9-14.8C167.9,485,169.9,485.3,172.3,484.9Z" fill="#a4c4d5"/>
      <path d="M240.2,539.7c4.9,4-.3,10.7-3.6,14s-9.2,9-14,13.1c-2.5,2.1-5.1,4.1-7.7,6.1s-4.2,3.2-7.5,1.6-3-3.7-2.5-6.4,3.4-5.4,4.8-7.5a100.2,100.2,0,0,1,6.5-8.1C230.1,536.5,229.6,531.3,240.2,539.7Z" fill="#a4c4d5"/>
      <path d="M226.1,520.6l-2.5-3c6.2,11.2,10.7,22.9,10.5,34.8,3.2-1.1,6.6-3.5,7.5-5.3C245,539.7,230.6,526.6,226.1,520.6Z" fill="#6e8390"/>
      <path d="M240.2,539.8a18.8,18.8,0,0,1-2.5,4.6c-8,11.7-18.2,21.3-28.7,30.7,2.3.6,3.7-.6,5.9-2.2s5.2-4,7.7-6.1c4.8-4.1,9.5-8.5,14-13.1S245.1,543.8,240.2,539.8Z" fill="#6e8390"/>
      <path d="M200.7,683c.3-1.6,20.1-.6,21.5,1.4s.7,9,.8,11.3,0,3.9,1,5.5,4.8,3,6.9,5,3.2,5.3,1.6,7.5-5.9,2.2-7.6,3c-5.7,2.6-8.1,3.6-14.5,2.8-4.8-.6-9.7-.3-9.7-6.8C200.7,702.7,198.8,693,200.7,683Z" fill="#35353e"/>
      <path d="M145.5,681.4c4.5,0,8.9-.8,13.4-1,.8,0,8.3-.6,8.6.2,1.9,6.1-1.3,13.2,2,18.8,1.3,2.3,4.2,3.4,6,5.4s1.8,2.7,1.8,5.2.6,1.4,0,2.4c-1.7,3-5.7,4.5-8.7,5.6a31,31,0,0,1-15.4,1.1,30,30,0,0,1-6-.9c-1.4-.6-1.2-1.3-1.3-2.8-.3-6-.4-12.1-.7-18.1s.1-10.6-.2-15.9Z" fill="#35353e"/>
    </g>
    <g>
      <path d="M342,347.3c-7.4-.9-14.2-2.7-20.9,1.5-3.9,2.5-7,6-10,9.5C300.9,370,290,383,280.6,395.7c-3.9,5.3-6.5,8.9-7.8,15.8-.8,4.1-1.6,11.6,2.7,13.6s10.7-.3,13.4-2.5c9.4-7.7,18.9-15.2,27.9-23.5s23.6-17.6,27.8-28.8C346.6,364.9,349.4,346.8,342,347.3Z" fill="#e18d58"/>
      <path d="M342,347.3l-5.5-.7c-10.4,29.6-28.6,56.3-51.5,78a11,11,0,0,0,3.9-2c9.4-7.7,18.9-15.2,27.9-23.5s23.6-17.6,27.8-28.8C346.6,364.9,349.4,346.8,342,347.3Z" fill="#99552e"/>
      <path d="M275.6,409.1c-4,2.7-5.5,7.7-3.1,13.3s5.4,7.2,8.8,10.2l17.2,15c5.1,4.4,12.3,8.8,16,14.4,2.6,3.8,2.7,4.8,6.8,2.2,5.7-3.6,6.3-8,3.1-13.9a79.7,79.7,0,0,0-5.8-8.5,71.2,71.2,0,0,1-5.1-9.9c-2.8-6.1-6.2-12-11.1-16.6s-13-8.7-20.6-8.2A13.4,13.4,0,0,0,275.6,409.1Z" fill="#e18d58"/>
      <path d="M327.7,476.4c-2.9-.3-6.7,5.8-8.1,8.2a29.1,29.1,0,0,0-3.5,10c-1.9,9.5-3.7,18.7-3.7,28.4,0,7.4.7,14.6.8,22.1.2,17.1.1,36.3,4.7,52.9,1.6,5.9,4.1,14.5,9.2,18.3,2.6,1.9,6.3,2,9.5,1.9,6.2-.2,7.9-4,9.9-9.4,10.8-28.8,20.8-58.7,23.5-89.5.8-8.8,1.9-17.5,2-26.4s-7.2-10.5-14.8-12.9C348,477.2,337,472.3,327.7,476.4Z" fill="#a4c4d5"/>
      <path d="M345.7,602.4a15.1,15.1,0,0,0,.3,7.6l.5-1.2c10.3-27.6,20-56.4,23.1-85.9-8.1.8-15.8,2.5-22.6,6C350.6,553.9,353.8,578.1,345.7,602.4Z" fill="#6e8390"/>
      <path d="M348.2,568.4a27.1,27.1,0,0,0-15.7.8c-2.5.7-4.6,1.1-6.4,3.2-6.9,8-7.7,20.9-7.7,30.9s-2.6,20.4-2.6,30.9c0,23.2,1.8,47.4-1.5,70.3-.7,4.4-1.4,7,2.2,9.2s8.5,3.5,11.2-.7,3.2-10.8,5.2-16a74.7,74.7,0,0,0,5.2-19.6c1.8-17.2,4.3-33.1,10.3-49.2,4.6-12.2,6.6-24.3,7.6-37.1C356.6,582.3,359.4,571.4,348.2,568.4Z" fill="#a4c4d5"/>
      <path d="M351.6,569.8c-7.4,48.7-14.9,96.9-25.5,145a7.3,7.3,0,0,0,1.6-1.8c3-4.8,3.2-10.8,5.2-16a74.7,74.7,0,0,0,5.2-19.6c1.8-17.2,4.3-33.1,10.3-49.2,4.6-12.2,6.6-24.3,7.6-37.1C356.6,583.3,358.8,574,351.6,569.8Z" fill="#6e8390"/>
      <path d="M386.3,479.8c-11.9-.9-22.5,2.8-32.6,9-17.9,10.9-16.5,35.8-6.6,51.4a103.5,103.5,0,0,0,10,12.9c3.2,3.5,5.6,7.8,9.2,10.9,20.4,18,21.9,48.7,43.2,66.2a23.3,23.3,0,0,0,7.8,4.7c7.8,2.4,11.6-2.8,14.1-9.2,1.8-4.7,1.2-9.8,1.2-14.9,0-19.2-.7-37.9-4.7-56.6l-13-60.6c-1.7-7.7-3.4-11.4-11.5-12C397.8,481.1,392.1,480.2,386.3,479.8Z" fill="#a4c4d5"/>
      <path d="M432.6,610.8c0-19.2-.7-37.9-4.7-56.6-4.3-20.2-8.7-40.4-13-60.6-1.7-7.7-3.4-11.4-11.5-12l-7.7-.9v.7c8.4,52.6,25,102.9,26.1,154,4.9-.4,7.6-4.7,9.6-9.7S432.6,615.9,432.6,610.8Z" fill="#6e8390"/>
      <path d="M399.1,610.7c.4,2.7,1.1,5.5,1.6,8.1a419,419,0,0,0,13,51.9c2.6,8.2,5.3,16.4,8.2,24.6,1.2,3.6,2.8,7,3.9,10.6s1.3,7.1,2.5,10.5,8.6,10.4,13.3,6.5,1.5-12.5,1.3-16.4c-1-29.7-5.4-59.1-10.6-88.4-.8-4.8-1.7-9.7-4.1-13.9-4.8-8.7-21.3-14.3-27.5-3.9C398.8,603.6,398.7,607.1,399.1,610.7Z" fill="#a4c4d5"/>
      <path d="M442.9,706.5c-1-29.7-5.4-59.1-10.6-88.4-.8-4.8-1.7-9.7-4.1-13.9s-6-6.7-10.5-8.3c11.7,42,14.9,84.8,17.7,127.6,2.1.9,4.3,1,6.2-.6C445.1,720,443.1,710.4,442.9,706.5Z" fill="#6e8390"/>
      <path d="M317.9,461.2c.5-1.5,1.5-1.9,2.6-3.2s1.5-2.2,2.8-2.7,3,.8,4.1,1.9,2.5,1.6,2.3,3.8c-.3,3.8-1.1,5.6-3.8,8.7s-3.8,3.9-5.1,6.3c-.4.8-.5,2.2-1.7,1.6s-.9-3.6-.8-5.4a41.9,41.9,0,0,0,.3-5c-.3-2.1-1.4-3.2-.9-5.5Z" fill="#74514b"/>
      <g>
        <path d="M341.6,321.6a4.9,4.9,0,0,1,.1,1.2c0,8.2-1.3,16.1-2.3,24.2-.7,5.4.8,10.1,6.2,12.3s11.1,2.3,16.5,1.4,13.2-.5,13.9-7.1a13.6,13.6,0,0,0-.7-5.3,165.1,165.1,0,0,0-8-23.7,30.6,30.6,0,0,0-6.1-8.6c-2.4-2.5-5.6-4-7.9-6.7s-2.8-4.4-6.5-3C340.6,308.5,341.5,316.3,341.6,321.6Z" fill="#74514b"/>
        <path d="M365.7,321.6a39.4,39.4,0,0,0-4.5-5.6c-2.4-2.5-5.6-4-7.9-6.7s-2.8-4.4-6.5-3c-6.2,2.2-5.3,10-5.2,15.3a4.9,4.9,0,0,1,.1,1.2c0,8.2-1.3,16.1-2.3,24.2-.7,5.4.8,10.1,6.2,12.3a29.6,29.6,0,0,0,15.6,1.5A78.6,78.6,0,0,0,365.7,321.6Z" fill="#82625d"/>
        <path d="M390.5,290.4c-6-17.5-22.3-31.7-42.8-25.1-23.3,7.7-31.4,36.2-15.5,54.2,5.5,6.2,13.5,9.8,21.5,12.3s18.1,6.6,25.7,3.6c11.7-4.6,13.8-20.6,13.6-31.1A44.8,44.8,0,0,0,390.5,290.4Z" fill="#74514b"/>
        <path d="M370.3,266.5a30,30,0,0,0-22.6-1.2c-23.3,7.7-31.4,36.2-15.5,54.2,5.5,6.2,13.5,9.8,21.5,12.3a104.2,104.2,0,0,0,12.5,3.7C389.1,322.5,382,287.8,370.3,266.5Z" fill="#82625d"/>
        <path d="M369.5,295.7c-4.7,1.6-1.2,7.9-.7,10.9,1.6,9.4-7.2,19-15.1,23.1a31.2,31.2,0,0,1-14.4,3.4c-11-.3-18.4-10.5-20-20.1-3.4-21.3,9-44.8,31.9-50.1,10.7-2.5,39.2,2,32,18.4-1.9,4.1.5,14.7-4.6,17-2.8,1.3-4.9-3.3-8.1-2.8Z" fill="#35353e"/>
        <path d="M337.4,287a26.2,26.2,0,0,0-12.9-9.7c-7.1-2.4-16.6-2-22.6,3-12.4,10.4-13.4,27.8-8.3,42.1,4.2,11.8,15.6,16.6,27.3,12.4C340.9,327.6,350.3,305,337.4,287Z" fill="#35353e"/>
        <path d="M369.4,297.4c-.5-6.6.6-13.6-1.4-19.9a26.3,26.3,0,0,0-5.8-9.8c-2.9-3.1-5.8-4.7-10.1-4.7a13.4,13.4,0,0,0-4.9,1c-.9.3-3.2,2.3-3.9,1.3s3.7-3.6,4.7-3.9c6.2-2.1,15-2.4,20.4,1.9,9.5,7.7,10.4,22.8,8.2,33.8-.5,3.1-1.9,4.5-5.1,3.9S369.6,299.2,369.4,297.4Z" fill="#facd42"/>
        <path d="M377.9,301.8a16.5,16.5,0,0,0-1.4-7,6.2,6.2,0,0,0-6.8-3.2c-4.6,1.1-5.6,7.6-4.9,11.4s7.7,13.7,11.4,7.3C377.4,308.2,377.9,305,377.9,301.8Z" fill="#82625d"/>
      </g>
      <path d="M355.5,341.5h-.9c-13.4,0-30.9,4.2-36.8,17.6s-2.7,27.6,3,40.3c3.4,7.8,7.8,15.2,10.5,23.3,4.3,12.8,1.1,26.1-3.6,38.4-2.1,5.5-7,12.5-7.7,18.2-1.3,11.6,20.2,14.2,27.9,15.4,16.5,2.7,34.9,4.6,51.2,0,3.6-1.1,11.9-2.9,13.5-6.7a10,10,0,0,0,.7-4.2c.9-22,3.6-43.9,1-65.9C410.3,384.8,394.7,342.2,355.5,341.5Z" fill="#99552e"/>
      <path d="M404.7,411.4c-2.5-23-17.4-42.4-27.3-64.3a46.4,46.4,0,0,0-21.9-5.6h-.9c-13.4,0-30.9,4.2-36.8,17.6s-2.7,27.6,3,40.3c3.4,7.8,7.8,15.2,10.5,23.3,4.3,12.8,1.1,26.1-3.6,38.4-2.1,5.5-7,12.5-7.7,18.2-1.3,11.6,20.2,14.2,27.9,15.4,15.6,2.5,32.9,4.4,48.5.6C401.3,467.5,407.4,439,404.7,411.4Z" fill="#e18d58"/>
      <path d="M411.5,469a9,9,0,0,0-4.8,1.8c-2.2,1.9-3.1,5.6-2.7,8.4s1.1,2.6,1.8,4-.1,3.8.6,5.7,4.9,4.7,7.3,6.8a12,12,0,0,1,3.9,7.2c2-.6,2.4-4.1,2.9-5.9s.2-6.1.2-9.1-.5-3.8,1.6-5.1,6.6-4,4.6-7.5c-.6-1.2-2.3-3.7-3.5-4.4A21.6,21.6,0,0,0,411.5,469Z" fill="#74514b"/>
      <path d="M372.2,346.2a34,34,0,0,1,12.7,1.7,141.9,141.9,0,0,1,30.4,14c13.5,8,25.7,17.9,37.8,27.8,10.6,8.8,21.3,17.4,30.4,27.9,3.1,3.7,8.7,10.8,3.2,14.7-7.6,5.3-25.5-.1-32.4-4.4-12.1-7.5-24.3-14.6-36.8-21.4-9.6-5.3-18.9-11.2-28.7-16.2s-19.9-7.6-28.2-14.2a19.8,19.8,0,0,1-6.8-8.9c-2.1-6.7,2.8-14.8,8.5-18.2A22.6,22.6,0,0,1,372.2,346.2Z" fill="#e18d58"/>
      <path d="M463,420.6c7.8-2.9,23.1-4.6,27.8,4.8s-9,17.7-15.8,22c-4,2.5-7.8,5.3-11.8,7.9-7.9,5.2-16.1,9.9-23.6,15.6-4.4,3.3-12.1,10.1-18.1,8.4-3.4-1-10.6-7-9.4-11,.6-2.4,5-4.8,6.8-6.2,6.6-5.1,13.4-11,18.3-17.8s10.5-14.4,17.9-19.6A36.8,36.8,0,0,1,463,420.6Z" fill="#e18d58"/>
      <path d="M490.8,425.4a10.6,10.6,0,0,0-4.4-4.7c-3.5,21.9-38.2,36.5-55.7,51.7-3,2-5,5-8,7a.1.1,0,0,0-.1.1c5.8.7,12.9-5.5,17-8.6,7.5-5.7,15.7-10.4,23.6-15.6,4-2.6,7.8-5.4,11.8-7.9C481.8,443.1,496.1,435.9,490.8,425.4Z" fill="#99552e"/>
      <path d="M418.4,700.1c-.5-7.4-1-14.1-1.1-14.1,4.7-.6,8.7-.4,13.3-.5s13-4.3,15.4-.8.4,7.1.7,9.7c.9,9.3,5.3,17.6,14,21.9,4,2.1,7.5,2.7,9.6,7.2s3,4,.1,6.3-8.8,3.5-12.9,5.1c-10.4,3.9-20.8,6.3-31.6,2.8-7.2-2.3-5.7-12.5-6.1-18.6C419.6,717.7,419,708.5,418.4,700.1Z" fill="#20496d"/>
      <path d="M442.7,726.4c1.6-13.7-5-27.4-8.2-41.6a18,18,0,0,1-3.9.7c-4.6.1-8.6-.1-13.3.5.1,0,.6,6.7,1.1,14.1s1.2,17.6,1.4,19c.4,6.1-1.1,16.3,6.1,18.6a26.1,26.1,0,0,0,5.9,1.3C437.6,737.1,441.7,733.4,442.7,726.4Z" fill="#2559a7"/>
      <path d="M314.5,685h0c2.1-1.7,7-.3,9.4-.1,4.6.3,9.3.3,13.8,1s3.8,1.6,3.9,5.1-.4,6.7-.1,10.1,2.6,5.7,4.2,9c2.9,5.8,9,9.4,9.1,16.1,0,1.8.2,3.8-.6,5.3-5.9,10.8-24.2,8.5-34.1,7.9-5.1-.4-6-2.4-6.5-7.1a241.9,241.9,0,0,1-1.3-25.5c0-3.7,0-7.3.2-11S312.6,686.6,314.5,685Z" fill="#20496d"/>
      <path d="M333.7,729.4c7.8-10.3,2.3-27.9-1.4-44l-8.4-.5c-2.4-.2-7.3-1.6-9.4.1h0c-1.9,1.6-1.8,8.5-2,10.8s-.2,7.3-.2,11a241.9,241.9,0,0,0,1.3,25.5c.3,2.4.7,4.2,1.7,5.3C323.2,736.6,330,733.9,333.7,729.4Z" fill="#2559a7"/>
    </g>
  </g>
</svg>
