<svg width="180" height="136" viewBox="0 0 180 136" fill="none" xmlns="http://www.w3.org/2000/svg">
<g clip-path="url(#clip0)">
<path d="M180 0H0V135.016H180V0Z" fill="black"/>
<path d="M16.2539 17.0109H24.0663C27.0274 17.0109 28.4135 18.6489 28.4135 20.9171C28.4135 22.2401 27.7205 23.3742 26.5864 23.8782C28.1615 24.3192 28.7915 25.7683 28.7915 27.2804C28.7915 30.0525 27.1534 31.5016 23.9403 31.5016H16.2539V17.0109ZM20.2861 20.098V22.8702H22.9952C23.9403 22.8702 24.3813 22.2401 24.3813 21.4841C24.3813 20.602 23.8773 20.098 23.0582 20.098H20.2861V20.098ZM20.2861 25.7683V28.6034H23.1212C24.1293 28.6034 24.6333 28.0364 24.6333 27.1544C24.6333 26.3353 24.1923 25.7683 23.2473 25.7683H20.2861Z" fill="white"/>
<path d="M34.2724 31.5646H30.2402V17.0109H34.2724V31.5646Z" fill="white"/>
<path d="M35.7217 28.8555C35.7217 26.4613 37.7378 25.2643 40.4469 25.2643H42.211C42.148 24.1302 41.329 23.8152 40.3209 23.8152C38.9978 23.8152 37.9898 24.1932 37.3598 24.9493L35.9107 22.6812C36.9817 21.4841 38.7458 20.8541 40.9509 20.8541C43.9121 20.8541 46.1802 21.9881 46.1802 25.3903V31.5646H42.778L42.526 30.1785C41.833 31.2496 40.7619 31.8796 39.1869 31.8796C37.1077 31.8796 35.7217 30.8086 35.7217 28.8555ZM42.211 27.5954V27.3434H40.9509C39.8799 27.3434 39.3129 27.7214 39.3129 28.4774C39.3129 29.1075 39.7539 29.4855 40.5729 29.4855C41.581 29.4855 42.211 28.7925 42.211 27.5954Z" fill="white"/>
<path d="M47.5664 26.3983C47.5664 22.5552 49.6455 20.8541 53.2367 20.8541C55.4418 20.8541 56.9539 21.5471 57.8359 23.1852L55.0638 25.2013C54.6228 24.3192 54.1187 24.0672 53.2997 24.0672C52.1026 24.0672 51.4096 24.5713 51.4096 26.4613C51.4096 28.0364 51.9136 28.9815 53.2367 28.9815C54.2447 28.9815 54.8748 28.5404 55.1898 27.7844L57.8989 29.3595C57.0169 31.0606 55.4418 32.0056 52.9847 32.0056C49.7085 31.8796 47.5664 30.3045 47.5664 26.3983Z" fill="white"/>
<path d="M58.9072 17.0109H62.9394L62.8134 25.4533L66.0896 21.1061H70.3738L66.5936 25.7053L70.4368 31.5016H66.0266L63.9475 28.2884L62.8764 29.4855V31.5016H58.9072V17.0109Z" fill="white"/>
<path d="M71.8223 17.0109H79.5717C82.8478 17.0109 84.5489 19.027 84.5489 21.9881C84.5489 24.0672 83.7299 25.5163 82.2808 26.3353L84.6749 31.5646H80.0127L78.1856 27.1544H75.9175V31.5646H71.8223V17.0109ZM75.9175 20.413V23.8152H78.6266C79.6977 23.8152 80.3277 23.1852 80.3277 22.0511C80.3277 21.1061 79.8867 20.35 78.6896 20.35H75.9175V20.413Z" fill="white"/>
<path d="M91.2279 20.8541C95.0081 20.8541 96.8982 22.5552 96.8982 26.3353C96.8982 29.9895 94.9451 31.8796 91.2279 31.8796C87.4477 31.8796 85.5576 30.0525 85.5576 26.3353C85.5576 22.6182 87.6997 20.8541 91.2279 20.8541ZM91.2279 23.8152C89.8418 23.8152 89.3378 24.6343 89.3378 26.3983C89.3378 28.2254 89.9048 28.9815 91.2279 28.9815C92.551 28.9815 93.118 28.1624 93.118 26.3983C93.118 24.6343 92.614 23.8152 91.2279 23.8152Z" fill="white"/>
<path d="M97.9062 26.3983C97.9062 22.5552 99.9854 20.8541 103.577 20.8541C105.782 20.8541 107.294 21.5471 108.176 23.1852L105.404 25.2013C104.963 24.3192 104.459 24.0672 103.64 24.0672C102.442 24.0672 101.749 24.5713 101.749 26.4613C101.749 28.0364 102.253 28.9815 103.577 28.9815C104.585 28.9815 105.215 28.5404 105.53 27.7844L108.239 29.3595C107.357 31.0606 105.782 32.0056 103.325 32.0056C100.048 31.8796 97.9062 30.3045 97.9062 26.3983Z" fill="white"/>
<path d="M109.31 17.0109H113.342L113.216 25.4533L116.492 21.1061H120.776L116.996 25.7053L120.839 31.5016H116.429L114.35 28.2884L113.279 29.4855V31.5016H109.31V17.0109Z" fill="white"/>
<path d="M121.532 21.1061C122.351 20.8541 122.981 20.413 123.233 19.594C122.099 19.531 121.469 18.838 121.469 17.7669C121.469 16.5068 122.225 15.9398 123.485 15.9398C124.745 15.9398 125.564 16.6329 125.564 18.2079C125.564 20.6021 124.367 22.1141 122.288 22.6182L121.532 21.1061Z" fill="white"/>
<path d="M131.423 28.8555C131.423 28.4144 130.919 28.2884 130.037 28.0994L129.092 27.9104C127.202 27.5324 125.753 26.4613 125.753 24.5713C125.753 22.4291 127.202 20.8541 130.352 20.8541C132.305 20.8541 133.88 21.3581 134.952 22.6812L133.061 24.6343C132.494 24.0042 131.738 23.4372 130.478 23.4372C129.659 23.4372 129.155 23.6262 129.155 24.1302C129.155 24.4452 129.47 24.7603 130.289 24.9493L131.612 25.2013C134.006 25.6423 134.952 26.8394 134.952 28.3514C134.952 30.1785 133.691 31.9426 130.1 31.9426C127.895 31.9426 126.131 31.3126 125.249 30.0525L126.95 28.1624C127.58 29.0445 128.714 29.5485 130.037 29.5485C130.919 29.4225 131.423 29.2965 131.423 28.8555Z" fill="white"/>
<path d="M16.2539 41.8971H31.3117V46.1183H21.6092V49.2055H29.9256V53.4897H21.6092V56.7028H31.5637V60.924H16.2539V41.8971Z" fill="white"/>
<path d="M33.8316 47.2524H38.1158L38.5568 49.5835C39.5648 47.8824 41.2659 46.8744 43.219 46.8744C45.6131 46.8744 46.8732 48.1975 47.3772 49.9615C48.2593 48.0084 50.0234 46.8744 52.2285 46.8744C55.6306 46.8744 57.0167 49.1425 57.0167 52.2297V60.8611H51.7244V53.9307C51.7244 52.1666 51.2834 51.4736 50.1494 51.4736C48.9523 51.4736 48.0703 52.2927 48.0703 54.0567V60.8611H42.778V53.9307C42.778 52.1666 42.274 51.4106 41.0769 51.4106C39.9429 51.4106 39.0608 52.2297 39.0608 53.9937V60.7981H33.7686V47.2524H33.8316Z" fill="white"/>
<path d="M58.8438 54.2458C58.8438 49.7095 61.4899 46.8744 66.0261 46.8744C70.8143 46.8744 72.7674 50.0245 72.7674 53.9307C72.7674 54.4348 72.7674 54.9388 72.6414 55.5058H63.758C64.01 57.1439 65.0181 57.8369 66.6561 57.8369C67.9162 57.8369 68.7982 57.4589 69.3653 56.4509L72.3894 58.404C71.2554 60.4201 69.0503 61.3651 66.1521 61.3651C61.7419 61.3651 58.8438 59.034 58.8438 54.2458ZM63.758 52.7337H67.9792C67.9162 51.3476 67.2232 50.5286 65.9631 50.5286C64.766 50.4656 63.884 51.2216 63.758 52.7337Z" fill="white"/>
<path d="M74.6582 47.2524H79.0054L79.4464 49.8985C80.3915 48.0084 82.0926 46.8113 84.1717 46.8113L84.2347 51.7886C81.3365 51.5996 80.0135 53.3637 79.9505 56.0098V60.861H74.6582V47.2524V47.2524Z" fill="white"/>
<path d="M99.985 60.168C99.985 64.7673 96.5828 66.9724 91.9206 66.9724C89.2114 66.9724 86.5653 66.1533 85.4943 64.1372L88.2664 61.5541C89.0854 62.8142 90.2825 63.3182 91.6686 63.3182C93.6217 63.3182 94.6927 62.3101 94.6927 60.231V58.593C93.8737 59.979 92.5506 60.7351 90.6605 60.7351C87.3214 60.7351 84.9902 58.53 84.9902 53.9307C84.9902 49.2685 87.4474 46.9374 90.9755 46.9374C92.9286 46.9374 94.4407 47.6934 95.3228 49.2055L95.7008 47.3154H99.922V60.168H99.985ZM92.3616 50.7176C90.9125 50.7176 90.0305 51.7256 90.0305 53.8047C90.0305 56.0098 90.8495 56.9549 92.3616 56.9549C93.8737 56.9549 94.7557 55.8208 94.7557 53.7417C94.7557 51.7886 93.8107 50.7176 92.3616 50.7176Z" fill="white"/>
<path d="M101.875 54.2458C101.875 49.7095 104.521 46.8744 109.057 46.8744C113.846 46.8744 115.799 50.0245 115.799 53.9307C115.799 54.4348 115.799 54.9388 115.673 55.5058H106.789C107.041 57.1439 108.049 57.8369 109.687 57.8369C110.947 57.8369 111.829 57.4589 112.397 56.4509L115.421 58.404C114.287 60.4201 112.082 61.3651 109.183 61.3651C104.773 61.3651 101.875 59.034 101.875 54.2458ZM106.789 52.7337H111.01C110.947 51.3476 110.254 50.5286 108.994 50.5286C107.797 50.4656 106.915 51.2216 106.789 52.7337Z" fill="white"/>
<path d="M122.036 47.2524L122.414 49.6465C123.422 47.8824 125.186 46.8744 127.391 46.8744C130.983 46.8744 132.495 49.2055 132.495 52.2927V60.8611H127.265V54.1828C127.265 52.1036 126.635 51.4736 125.312 51.4736C123.989 51.4736 123.044 52.3557 123.044 54.2458V60.8611H117.752V47.2524H122.036Z" fill="white"/>
<path d="M134.322 54.1198C134.322 49.0795 137.094 46.8744 141.694 46.8744C144.592 46.8744 146.545 47.7564 147.742 49.8985L144.151 52.4817C143.584 51.3476 142.891 50.9696 141.82 50.9696C140.245 50.9696 139.363 51.6626 139.363 54.1198C139.363 56.1359 139.993 57.3959 141.757 57.3959C143.08 57.3959 143.962 56.8289 144.34 55.8208L147.931 57.8369C146.734 60.042 144.718 61.2391 141.505 61.2391C137.157 61.3651 134.322 59.223 134.322 54.1198Z" fill="white"/>
<path d="M153.097 60.861L147.805 47.2523H153.223L155.806 55.2537L158.263 47.2523H163.681L157.444 63.3811C156.373 66.0903 154.231 66.9093 151.459 66.9093C150.073 66.9093 149.128 66.7203 148.183 66.3423L148.624 62.6881C149.38 63.0661 150.073 63.1921 150.703 63.1921C151.711 63.1921 152.467 62.7511 152.782 61.68L153.097 60.861Z" fill="white"/>
<path d="M28.54 74.9108C27.595 73.5247 26.5869 72.8317 24.6968 72.8317C22.7437 72.8317 21.9877 73.5877 21.9877 74.5327C21.9877 75.4148 22.6807 75.9188 24.5708 76.3598L26.3349 76.7378C31.1862 77.8089 32.5092 80.014 32.5092 82.7861C32.5092 86.5663 29.6741 89.0865 24.0668 89.0865C20.9166 89.0865 17.7665 88.2044 16.1914 85.3063L19.6566 82.5971C20.6016 84.2982 21.9877 85.1803 24.1928 85.1803C26.1459 85.1803 27.343 84.5502 27.343 83.4162C27.343 82.5341 26.8389 82.1561 25.0118 81.7151L23.0587 81.2741C18.3335 80.203 16.9474 77.5569 16.9474 75.0368C16.9474 71.3196 19.6566 68.7365 24.9488 68.7365C27.91 68.7365 30.6191 69.8075 32.1312 72.4536L28.54 74.9108Z" fill="white"/>
<path d="M33.958 84.9283C33.958 81.7151 36.6671 80.0771 40.3213 80.0771H42.7154C42.5894 78.502 41.5184 78.124 40.1323 78.124C38.3052 78.124 37.0452 78.628 36.1001 79.636L34.273 76.6749C35.7221 75.0368 38.0532 74.2178 41.0144 74.2178C44.9836 74.2178 48.0077 75.7298 48.0077 80.3291V88.6455H43.4715L43.1565 86.7554C42.2744 88.2045 40.7623 89.0235 38.6832 89.0235C35.7851 89.0235 33.958 87.5744 33.958 84.9283ZM42.7154 83.2272V82.8492H40.9514C39.4393 82.8492 38.7462 83.3532 38.7462 84.4243C38.7462 85.2433 39.3133 85.7473 40.4473 85.7473C41.8334 85.8103 42.7154 84.8653 42.7154 83.2272Z" fill="white"/>
<path d="M54.3084 74.5957L56.9546 83.0381L59.4117 74.5957H64.956L59.6007 88.6454H54.0564L48.7012 74.5957H54.3084V74.5957Z" fill="white"/>
<path d="M68.862 67.9174C70.7521 67.9174 71.8232 68.7365 71.8232 70.5636C71.8232 72.3276 70.7521 73.1467 68.862 73.1467C66.9089 73.1467 65.8379 72.3276 65.8379 70.5636C65.8379 68.7365 66.9719 67.9174 68.862 67.9174ZM71.5712 74.5958V88.6455H66.1529V74.5958H71.5712V74.5958Z" fill="white"/>
<path d="M78.628 74.5957L79.069 77.0529C80.1401 75.2258 81.9672 74.1547 84.1723 74.1547C87.8895 74.1547 89.4015 76.5488 89.4015 79.762V88.5825H83.9833V81.6521C83.9833 79.51 83.2902 78.88 81.9672 78.88C80.6441 78.88 79.636 79.825 79.636 81.7781V88.5825H74.2178V74.5327H78.628V74.5957Z" fill="white"/>
<path d="M106.538 87.8264C106.538 92.5516 103.073 94.8198 98.2849 94.8198C95.5128 94.8198 92.8036 94.0007 91.6696 91.8586L94.5047 89.2125C95.3237 90.4725 96.5838 91.0396 97.9699 91.0396C99.986 91.0396 101.057 90.0315 101.057 87.8894V86.1253C100.238 87.5744 98.8519 88.3304 96.8988 88.3304C93.4337 88.3304 91.1025 86.0623 91.1025 81.3371C91.1025 76.5489 93.6227 74.1547 97.2768 74.1547C99.2299 74.1547 100.805 74.9108 101.75 76.4858L102.128 74.5327H106.475V87.8264H106.538ZM98.7259 78.1239C97.2138 78.1239 96.3318 79.195 96.3318 81.2741C96.3318 83.5422 97.1508 84.4872 98.7259 84.4872C100.301 84.4872 101.183 83.3532 101.183 81.2111C101.183 79.258 100.175 78.1239 98.7259 78.1239Z" fill="white"/>
<path d="M116.303 84.9913C116.303 84.4243 115.673 84.2353 114.413 83.9833L113.153 83.7312C110.633 83.2272 108.617 81.7781 108.617 79.258C108.617 76.4229 110.57 74.2808 114.791 74.2808C117.437 74.2808 119.516 74.9738 120.965 76.7379L118.445 79.321C117.689 78.439 116.681 77.7459 114.98 77.7459C113.909 77.7459 113.216 77.998 113.216 78.628C113.216 79.069 113.657 79.447 114.728 79.699L116.492 80.014C119.705 80.6441 121.028 82.2192 121.028 84.2353C121.028 86.6924 119.327 89.0235 114.476 89.0235C111.515 89.0235 109.121 88.1415 107.924 86.4404L110.255 83.8572C111.074 85.0543 112.649 85.7473 114.413 85.7473C115.61 85.7473 116.303 85.4953 116.303 84.9913Z" fill="white"/>
<path d="M16.2539 98.663H21.9872V118.572H16.2539V98.663V98.663Z" fill="white"/>
<path d="M29.9888 104.333L30.4299 106.853C31.5009 105.026 33.328 103.955 35.5961 103.955C39.3763 103.955 40.8884 106.349 40.8884 109.626V118.572H35.4071V111.579C35.4071 109.374 34.7141 108.744 33.391 108.744C32.0049 108.744 31.0599 109.689 30.9969 111.642V118.572H25.5156V104.333H29.9888Z" fill="white"/>
<path d="M46.1809 97.5289C48.134 97.5289 49.2051 98.348 49.2051 100.238C49.2051 102.065 48.134 102.884 46.1809 102.884C44.2278 102.884 43.0938 102.065 43.0938 100.238C43.1568 98.348 44.2278 97.5289 46.1809 97.5289ZM48.953 104.333V118.572H43.4718V104.333H48.953Z" fill="white"/>
<path d="M52.355 104.333V100.364H57.7732V104.333H61.4274V108.302H57.7732V113.217C57.7732 114.477 58.3403 115.107 59.6003 115.107C60.2304 115.107 60.7974 114.981 61.3644 114.729L62.0574 118.005C60.9234 118.635 59.6003 119.013 57.9622 119.013C54.9381 119.013 52.355 117.816 52.355 113.784V108.302H50.3389V104.333H52.355Z" fill="white"/>
<path d="M66.0266 97.5289C67.9797 97.5289 69.0508 98.348 69.0508 100.238C69.0508 102.065 67.9797 102.884 66.0266 102.884C64.0735 102.884 62.9395 102.065 62.9395 100.238C63.0025 98.348 64.0735 97.5289 66.0266 97.5289ZM68.7988 104.333V118.572H63.3175V104.333H68.7988Z" fill="white"/>
<path d="M70.752 114.792C70.752 111.516 73.4611 109.878 77.1783 109.878H79.6354C79.5094 108.302 78.4383 107.861 77.0523 107.861C75.2252 107.861 73.9021 108.428 72.9571 109.374L71.067 106.349C72.516 104.711 74.9102 103.829 77.9343 103.829C81.9665 103.829 85.0537 105.341 85.0537 110.067V118.509H80.4544L80.1394 116.619C79.2574 118.068 77.6823 118.95 75.5402 118.95C72.642 118.95 70.752 117.501 70.752 114.792ZM79.6354 113.091V112.713H77.8713C76.3592 112.713 75.6032 113.217 75.6032 114.288C75.6032 115.17 76.1702 115.674 77.3043 115.674C78.7533 115.674 79.6354 114.792 79.6354 113.091Z" fill="white"/>
<path d="M88.3296 104.333V100.364H93.7479V104.333H97.402V108.302H93.7479V113.217C93.7479 114.477 94.3149 115.107 95.5749 115.107C96.205 115.107 96.772 114.981 97.339 114.729L98.0321 118.005C96.898 118.635 95.5749 119.013 93.9369 119.013C90.9127 119.013 88.3296 117.816 88.3296 113.784V108.302H86.3135V104.333H88.3296Z" fill="white"/>
<path d="M102.064 97.5289C104.017 97.5289 105.088 98.348 105.088 100.238C105.088 102.065 104.017 102.884 102.064 102.884C100.111 102.884 98.9766 102.065 98.9766 100.238C98.9766 98.348 100.111 97.5289 102.064 97.5289ZM104.773 104.333V118.572H99.2916V104.333H104.773Z" fill="white"/>
<path d="M111.703 104.333L114.413 112.902L116.933 104.333H122.54L117.059 118.572H111.451L106.033 104.333H111.703Z" fill="white"/>
<path d="M122.604 111.579C122.604 106.853 125.376 103.892 130.101 103.892C135.141 103.892 137.094 107.168 137.094 111.264C137.094 111.831 137.094 112.335 136.968 112.902H127.707C127.959 114.666 129.03 115.359 130.731 115.359C132.054 115.359 132.999 114.918 133.566 113.91L136.716 115.926C135.519 118.005 133.251 119.013 130.227 119.013C125.691 119.013 122.604 116.556 122.604 111.579ZM127.77 110.004H132.18C132.117 108.555 131.361 107.672 130.101 107.672C128.841 107.672 127.959 108.429 127.77 110.004Z" fill="white"/>
</g>
<defs>
<clipPath id="clip0">
<rect width="180" height="135.016" fill="white"/>
</clipPath>
</defs>
</svg>
