<svg width="180" height="132" viewBox="0 0 180 132" fill="none" xmlns="http://www.w3.org/2000/svg">
<path d="M156 66C156 102.403 126.403 132 90 132C53.5969 132 24 102.403 24 66C24 29.5969 53.5969 0 90 0C126.403 0 156 29.5969 156 66Z" fill="white"/>
<path d="M80.0996 95.9063C80.7957 96.1125 81.466 96.3961 82.2137 96.4992C84.6113 97.0922 87.1121 97.4532 89.6902 97.4532C90.902 97.4532 92.0879 97.35 93.2738 97.2211C93.2738 97.2211 94.0731 97.0664 95.3879 96.7571V58.8844L80.0996 66V95.9063ZM102.246 55.6875V94.5914C102.942 94.3336 103.638 94.0242 104.36 93.7149C108.794 91.2914 112.584 87.8367 115.394 83.6344C115.394 83.6344 116.296 81.9586 117.534 79.6383V48.5719L102.246 55.6875ZM60.1191 75.3328L73.2676 69.1969V92.761C72.0301 91.9102 71.1535 91.2141 71.1535 91.2141C65.9457 87.2696 62.027 81.7524 60.1191 75.3328Z" fill="#FDD043"/>
<path d="M115.421 83.6601V49.5515L126.687 44.2921C119.107 31.7625 105.392 23.3578 89.7166 23.3578C65.8947 23.3578 46.5072 42.7453 46.5072 66.5672C46.5072 90.389 65.8947 109.777 89.7166 109.777C105.005 109.777 118.437 101.759 126.12 89.7445L115.421 83.6601ZM150.921 66C150.921 99.6445 123.645 126.921 90.0002 126.921C56.3557 126.921 29.0791 99.6445 29.0791 66C29.0791 32.3554 56.3557 5.07886 90.0002 5.07886C123.645 5.07886 150.921 32.3554 150.921 66ZM115.421 49.5515L104.36 54.7078V93.6632C101.009 95.4937 97.2705 96.757 93.3002 97.2211V59.864L82.2401 65.0203V96.4734C78.1666 95.4422 74.4283 93.6117 71.1799 91.1625V70.1765L60.1455 75.3328C59.3205 72.5484 58.8565 69.6093 58.8565 66.5672C58.8565 49.5515 72.701 35.707 89.7166 35.707C100.442 35.707 109.878 41.2242 115.421 49.5515Z" fill="#205BA7"/>
</svg>
