<svg xmlns="http://www.w3.org/2000/svg" width="1024" height="1024" viewBox="0 0 1024 1024">
  <g>
    <path d="M510.3,615.4A31.8,31.8,0,0,1,527,603.7c19.4-6,39.4,6.9,49.2,23.1,7.1,11.5,10.5,24.7,13.4,37.7,2.2,9.6,5,23.8-.7,32.7s-19.9,9.4-29.5,8.6-26.2-2.6-33.1-11.5-8.7-20.4-13.6-30.9c-3.6-7.8-7.3-15.6-8.5-24.1A31.7,31.7,0,0,1,510.3,615.4Z" fill="#99552e"/>
    <path d="M554.7,606.7c-8.6-4.3-18.2-5.9-27.7-3a32.4,32.4,0,0,0-22.8,35.6c1.2,8.5,4.9,16.3,8.5,24.1,4.9,10.5,6.5,21.8,13.6,30.9s18,9.9,28,11C564.8,672.1,568.6,637.6,554.7,606.7Z" fill="#e18d58"/>
    <path d="M527.8,685.2a202.5,202.5,0,0,1,24.5-4.3c9.6-1.1,19.4-1,28.7-3.9,2.8-.8,5.5-2.4,8.2-3.1,5.1-1.3,4.7,7.8,4.6,10.7-.3,5.5-1.2,11-4.9,15.3-8.6,10-24.6,9.7-36.6,9.2-9.6-.4-22.7-1.4-29.4-9-3.5-4.1-8.2-11.2-.9-13.4Z" fill="#35353e"/>
    <path d="M545.9,607.6a8.9,8.9,0,0,0,.6-3.3c.3-2.3.3-4.6-2.3-5.4a31.7,31.7,0,0,0-13.7-.8c-2.6.3-6,1-8,2.8s-1.5,4.3-1.3,6.7a4.9,4.9,0,0,1,2.8-.9c-.4-6.2,11.6-7.1,15.7-6.7s3.8,2.4,3.7,5.5c0,.7-.3,1.8.4,2.4S545.5,608.3,545.9,607.6Z" fill="#35353e"/>
    <path d="M419.4,629c-2.9-.6-6.2-4-9.3-2.3s-2.7,5.3-2.2,7.8c1.3,5.9,5.1,8.5,9.9,11.3s7.4,9.3,12.2,12.6c2,1.5,5.4,2.3,7.7.6s1.7-7.9.6-11.3-5.3-6.4-6.1-10.5c-.5-2.2.5-5.8-1.2-7.6S422.7,629.8,419.4,629Z" fill="#c18a6e"/>
    <path d="M518.2,619.1c-15.8-7.3-29.7,16.8-34.2,24.7s-10.4,15.8-14.1,24.2a97.7,97.7,0,0,0-6.3,20.6c-.8,4-1.2,10,2.1,13.4,5.2,5.5,12.9.9,16.8-2.8,17.2-16.1,27.1-35.2,38.9-53.8,2.4-3.9,4.7-7.9,5.2-12.3a13.1,13.1,0,0,0-5.1-12.1A18.6,18.6,0,0,0,518.2,619.1Z" fill="#a4c4d5"/>
    <path d="M428,650.9a5.3,5.3,0,0,0-1.5,4.1c.4,4.1,2.5,8.8,4.2,12.6,6.7,15.4,20.1,37.5,39.5,36.9,4-.1,10.4-3.6,11.6-7.8,2.1-8.1-10.2-16.9-15-21.4-7.8-7.2-16.7-13.5-23.2-22.1C439.5,647.7,433.6,644.8,428,650.9Z" fill="#a4c4d5"/>
    <path d="M514,709.5c-4.2,5.9-7.4,12.5-11.5,18.5a295.8,295.8,0,0,0-18.3,31.2c-4.9,10-11.6,22.9-2.4,32.6s19.9,2.3,27.6-4.2c4.1-3.5,7.6-7.7,11.9-10.9a97.1,97.1,0,0,0,12.3-10.8,94.2,94.2,0,0,0,19.2-30.7c3.9-10.4,8.7-24.5,2.7-34.8-7.6-12.8-25.7-6.8-34.6,1.1A47.8,47.8,0,0,0,514,709.5Z" fill="#2f8e93"/>
    <path d="M490.2,760.5a14.8,14.8,0,0,0-10.8,7.5c-4.1,8.2-1.2,18.7,0,27.2,1.9,12.1,3.6,24.2,6.7,36.1,1.5,5.9,3.2,12.2,6.1,17.6s7.3,3.4,12.8,2.4c2.9-.5,6.1.5,8.5-1.6s2.1-10.5,2-14.6c-.1-12.7-.8-25.3-1.7-38s1.8-26.9-9.6-34.1A20.1,20.1,0,0,0,490.2,760.5Z" fill="#2f8e93"/>
    <path d="M509.1,767.7a15.8,15.8,0,0,0-4.9-4.7,20.1,20.1,0,0,0-14-2.5,14.8,14.8,0,0,0-10.8,7.5c-4.1,8.2-1.2,18.7,0,27.2,1.9,12.1,3.6,24.2,6.7,36.1,1.5,5.9,3.2,12.2,6.1,17.6a8.6,8.6,0,0,0,1.7,2.3c.1-18.5,2.6-37.1,6.1-55.4C502.1,785.9,505.8,776.8,509.1,767.7Z" fill="#4db6c1"/>
    <path d="M533,749.8c11.7-13,18.9-27.9,24.8-43.3a22.5,22.5,0,0,0-2.3-6.1c-7.6-12.8-25.7-6.8-34.6,1.1a47.8,47.8,0,0,0-6.9,8c-4.2,5.9-7.4,12.5-11.5,18.5a295.8,295.8,0,0,0-18.3,31.2c-4.6,9.3-10.7,21.2-4,30.7C497.9,776.9,517.5,767.1,533,749.8Z" fill="#4db6c1"/>
    <path d="M556.5,755.3c-14.8,10.8-5.1,26,5.6,35.1A315.2,315.2,0,0,0,593.6,814c5.4,3.5,10.9,6.9,16.5,10.1s12.6,9.6,20.1,5.9c14.3-7.1,2-22.5-5.3-29.3a351,351,0,0,1-36.2-38.9c-2.4-3-4.7-6.1-7.8-8.4C573.4,747.8,563.5,750.2,556.5,755.3Z" fill="#2f8e93"/>
    <path d="M524.3,704.3c-1.6,10.1,2.4,21.7,5,30.9,3.6,13.1,9,25.2,15,37.3,4.6,9.5,11,17.6,22.5,18.2,8.2.4,18.8-4.3,22-12.3,4.2-10.9,1.2-27.2-1.1-38.2s-6.4-23-10.4-34.2c-3.1-8.9-7.6-15.8-16.9-19.2s-24.4-2-31.8,7.2A22.3,22.3,0,0,0,524.3,704.3Z" fill="#2f8e93"/>
    <path d="M564,760.8c1.7-26.4-8.3-51.5-17.4-75.8-6.9.6-13.6,3.5-18,9a22.3,22.3,0,0,0-4.3,10.3c-1.6,10.1,2.4,21.7,5,30.9,3.6,13.1,9,25.2,15,37.3A42.1,42.1,0,0,0,552,784l2-1.2C561,778.8,564,768.8,564,760.8Z" fill="#4db6c1"/>
    <path d="M537,610.2a32.6,32.6,0,0,0-11.7-.7c-25.2,3-34,28.9-35,50.8s7.3,37.7,13.3,57.3c.3,1,.7,2.1,1,3.2s22-3.5,24-3.9a88.1,88.1,0,0,0,28.2-10.4c6.7-3.9,20.6-12,20.8-20.9s-2.3-16.4-3.8-24.2a105,105,0,0,0-7-24C561.2,624.9,550.7,613.4,537,610.2Z" fill="#7c8f9b"/>
    <path d="M535,656.8c-16.1,1.7-31.6-13.9-35.8-29.7-5.8,9.7-8.4,22-8.9,33.2-.9,21.1,7.3,37.7,13.3,57.3.3,1,.7,2.1,1,3.2s22-3.5,24-3.9,5.3-1.1,7.9-1.8C541.1,696.2,538.9,675.5,535,656.8Z" fill="#a4c4d5"/>
    <path d="M525.4,612.8c5.5-6.4,15.5-3,21.9.3,9,4.5,17.2,12.5,24.1,19.8a137.2,137.2,0,0,1,24,34.4c2.4,5.1,7.7,13.6,7.4,19.4s-7,9.2-12.4,7.8c-11.4-3.1-18.7-13-26.3-21.2-9.9-10.5-21.4-19.8-30.4-31.2-5.3-6.7-15.3-20.5-8.6-29Z" fill="#7c8f9b"/>
    <path d="M541.7,667.7c3.9,8.3,14.9,16.1,20.6,20.2s15.9,9.6,24.6,10.1c5.9.3,12.7-3.1,14.2-9.1,2.6-9.9-7-16.8-14.6-20.9a107.6,107.6,0,0,0-13.5-5.8c-5.7-2.1-10.4-6.1-16-8.1-3.6-1.3-11-2.5-14.3.3S540.1,664.2,541.7,667.7Z" fill="#7c8f9b"/>
    <path d="M531.1,642.4c.3-3.5,2.2-7.4,3.1-10.2,2.2-6.8,4.4-13.6,6.7-20.4s7.3-.1,10.7,1.8c1.3.7,2.8,1,3.3,2.6,1.6,5.1-1.5,10.3-3.3,14.9s-2.8,7.4-4.4,11-2.2,6.8-6.1,7.4-6.7,0-8.6-2.3A7,7,0,0,1,531.1,642.4Z" fill="#35353e"/>
    <path d="M552.2,647.7c-1.5-3-4.4-5.1-9.4-5.5s-9.9-3.5-13.8-1.1c-5.5,3.3-4.4,12.5-3.7,17.7s4.7,7.2,10.1,7.6,15.2,2.6,17-4.5C553.7,656.7,554,651.4,552.2,647.7Z" fill="#c18a6e"/>
    <path d="M539.7,645c4.1-.4,8.2.2,10.7,1.7,6.7,4,11.8,13.2,7.1,20.4-3.5,5.3-8.1,6.3-13.1,2.8s-13.5-7.1-16-11.8C524.2,650.2,531.9,645.8,539.7,645Z" fill="#c18a6e"/>
    <g>
      <path d="M495.5,588.8c-1.1,8,1.8,16.9,3.4,24.5,1.2,5.1,2.4,11.3,6.8,14.7s14.5,2.3,19.6-2.2,3.5-12,2.3-17.9c-1.8-8.5-3.1-18.9-7.4-26.5s-15.9-9.2-21.4-1.2A20.6,20.6,0,0,0,495.5,588.8Z" fill="#ba7d5d"/>
      <path d="M497.8,608.2c.4,1.8.8,3.5,1.1,5.1,1.2,5.1,2.4,11.3,6.8,14.7s7.7,3,11.8,1.9c-1.1-4.6-1.8-9.4-5.5-13.1A74.7,74.7,0,0,0,497.8,608.2Z" fill="#c18a6e"/>
      <path d="M489.3,548.6a29,29,0,0,0-9.2,8.2c-6.1,8.5-6.6,19.4-7.1,29.5a31,31,0,0,0,13.7,26.9c10.1,6.4,24.1,6.8,32.8-1.9s10.9-18.2,12.9-28.1c2.6-12.4.2-26-10.7-33.8S499.2,543.1,489.3,548.6Z" fill="#ba7d5d"/>
      <path d="M474.1,573.2a117.7,117.7,0,0,0-1.1,13.1A29.8,29.8,0,0,0,495.5,617c8.9-9.1,14.6-21.4,17.6-34.8A166.3,166.3,0,0,0,474.1,573.2Z" fill="#c18a6e"/>
      <path d="M506.9,564c2.2,1.3,4.8,2.6,6.5,4.6s1.5,5.7,2.1,9.1c.1,1.1.8,2.7,2,3.1s1.9-.7,3-.7c7.2,0,4,11.4,8.4,13.6s3.9-5.5,4.5-7.5a40.4,40.4,0,0,0,.8-17.3c-1.2-7-7.5-11.9-13.4-15.1-4.4-2.5-10.3-3.7-15.1-1.3s-4.1,7-1,9.9A15.3,15.3,0,0,0,506.9,564Z" fill="#35353e"/>
      <path d="M476.1,569.4a94.3,94.3,0,0,1,30.9-.6c5,.8,10.6,1.6,15.3,3.6,1.1.5,12.8,5.2,12.8,5.3,0-7.3,1.4-14.6-1.6-21.6-2-5-6.2-7.8-10.8-10.3-6.1-3.3-15.2-8.9-22.3-7.7s-13.2,6.2-18.3,10.9-8.7,13.4-8.6,21.5C473.5,570.1,474.5,569.7,476.1,569.4Z" fill="#20496d"/>
      <path d="M520.2,544.5c-5.9-3.3-13.6-7.4-19.8-6.4s-13.2,6.2-18.3,10.9-8.7,13.4-8.6,21.5c0-.4,1-.8,2.6-1.1a94.3,94.3,0,0,1,30.9-.6c2.6.4,5.4.8,8.1,1.4a70.1,70.1,0,0,1,6.9-8.4C528.4,555.4,525,550,520.2,544.5Z" fill="#2559a7"/>
      <path d="M473.8,556c-14-.5-29.4,3.5-25.8,7.2s13.9,5.5,25.4,8.6c1.9-3.3,11.7-3.7,21.1-3.5s21.2,1.3,34.4,7.2C525.4,570,510.5,557.3,473.8,556Z" fill="#2559a7"/>
      <path d="M519.8,579.7a9.9,9.9,0,0,1,3.8-6.3c2.3-1.6,5.3-1.9,6.5,1.2a9.6,9.6,0,0,1-1.1,7.2c-1.1,1.7-4.3,5.4-6.6,5.3s-3-4.1-2.8-6.3C519.7,580.5,519.7,580.1,519.8,579.7Z" fill="#ba7d5d"/>
    </g>
    <path d="M485.6,833.8c-.6-4.1-1-8-.8-8a145.8,145.8,0,0,0,20.9-2.8c2.5-.5,8.6-1.6,10.4.9a8.4,8.4,0,0,1,1.1,4.1c1,9.4,2.2,18.8,2.9,28.2.4,5.1.9,13.2-5.7,14.2s-14.2.3-21.1.2c-8.7-.1-17.5-.3-26.3-.1-1.8,0-4.6,1-6-.8s-.8-5.5-.2-6.8c1.4-3,5.6-3.1,8.3-4.3a62.4,62.4,0,0,0,10.5-7.1c2.5-1.9,6.8-4,7.1-7.5C486.8,843.3,486.1,838.4,485.6,833.8Z" fill="#35353e"/>
    <path d="M622.3,798.9c-5.6,1.7-10.2,11.6-13,15.1s-6.3,5.1-6.3,8.7,6.7,6.3,9.3,9.2,2.6,10.5-.4,14.9-5.9,4.5-9.3,6.9-2.2,5.8-3.2,10.5c6.5.3,13.7.8,20.1.4,2.5-.2,6.9-.4,8.9-1.5C636,858.7,640.3,847,645,840c2.2-3.2,9.9-10.5,9.5-14.3-.3-2.2-3.9-4.4-5.5-5.8-7.3-6.2-13.7-14.4-21.5-20A6,6,0,0,0,622.3,798.9Z" fill="#35353e"/>
  </g>
  <g>
    <path d="M255.9,581.2c-4.2,7.6-6.2,16.7-8.8,25.3-6.3,21-16.4,40.3-27.5,58.4-9.4,15.2-27.4,33.5-25.8,53.9.9,10.6,10.1,20.2,19.7,17.4,4.5-1.2,8.3-4.3,11.9-7.3,17.4-14.1,34.8-28.3,50.5-44.8s32-34.2,35.6-57.6c1.5-10.2,4.4-21.4,3-32-1.6-12.8-8.3-18.4-18.3-22.2-13.5-5.1-28.7-8.4-38.4,5.9A30.5,30.5,0,0,0,255.9,581.2Z" fill="#6e8390"/>
    <path d="M213.8,698.1a23.5,23.5,0,0,0-14.6,2.5c-7.5,4.1-6.9,14.3-6.3,21.4,1,11.7,1.3,23.5,1.9,35.2l3.6,71c.5,7.9,1.1,21.2,12.5,17.4,15.4-5.1,11.1-24.4,12.4-36.4,2.3-19.8,9.5-38.6,12.2-58.2,1.6-11.4,1.6-23.1-1.1-34.3A24.9,24.9,0,0,0,213.8,698.1Z" fill="#6e8390"/>
    <path d="M229.4,706.8a25.3,25.3,0,0,0-15.6-8.7,23.5,23.5,0,0,0-14.6,2.5c-7.5,4.1-6.9,14.3-6.3,21.4,1,11.7,1.3,23.5,1.9,35.2l3.6,71c.1.7.1,1.5.2,2.3A86,86,0,0,0,211,804.8C219.7,771.1,224.6,740.3,229.4,706.8Z" fill="#a4c4d5"/>
    <path d="M311.6,625.9c1.5-10.1,4.2-21,2.9-31.4-1.6-12.8-8.3-18.4-18.3-22.2-13.5-5.1-28.7-8.4-38.4,5.9a30.5,30.5,0,0,0-1.9,3c-4.2,7.6-6.2,16.7-8.8,25.3-6.3,21-16.4,40.3-27.5,58.4-9.4,15.2-27.4,33.5-25.8,53.9a21.6,21.6,0,0,0,7.8,14.8A197.7,197.7,0,0,0,234,710.8C262.6,683.9,286.7,654.7,311.6,625.9Z" fill="#a4c4d5"/>
    <path d="M308.7,719.6c-14.3,13.9,1.2,34,10.6,46.1a339.4,339.4,0,0,0,39.2,42.9c7.2,6.6,14.6,12.9,22.2,18.8,4.4,3.4,16.8,16.1,22.7,13.8,15.5-6.1-3.5-31.5-9-38.6-14.5-18.8-21.6-40.9-33.9-61-1.6-2.4-3.2-4.9-4.9-7.2-9.6-12.8-25.8-27.6-42.4-18.1A23.6,23.6,0,0,0,308.7,719.6Z" fill="#6e8390"/>
    <path d="M268.9,601.5a18.7,18.7,0,0,0-5,10c-.7,5.1.2,10.3,1.3,15.3A440.4,440.4,0,0,0,283,689.3c3.7,10.3,7.9,20.4,12.4,30.4,3.8,8.2,7.7,21.3,15.6,26.6,9.7,6.5,25.6-2.8,29-12.8,1.7-4.8,1.1-10.2.8-15.3a207.1,207.1,0,0,1,1.5-42.4c1.9-13.4,5.7-27,2.9-40.6a218,218,0,0,0-13-41.6c-2.3-5.3-4.4-11.8-9.6-15s-11.8-.1-16.8,1.4C292.8,583.8,278,591.3,268.9,601.5Z" fill="#6e8390"/>
    <path d="M299,725.8c28-32,28-77,18-118-2.2-10.2-1.2-20.4-2-30.2a58.8,58.8,0,0,0-9.2,2.4c-13,3.8-27.8,11.3-36.9,21.5a18.7,18.7,0,0,0-5,10c-.7,5.1.2,10.3,1.3,15.3A440.4,440.4,0,0,0,283,689.3c3.7,10.3,7.9,20.4,12.4,30.4,1,2.1,1.9,4.4,2.9,6.8A4.6,4.6,0,0,0,299,725.8Z" fill="#a4c4d5"/>
    <path d="M331.1,485.5c1.4,3.1,2.6,6.1,3.8,8.9a145.5,145.5,0,0,1,11.2,56.4c-.1,12.1-.8,24.9-7.8,35.3s-18.2,13.1-29.7,14.1a106,106,0,0,1-23.2-1.2c-6.3-.8-11-1.6-16.4-5.3-25.3-17.7-22.1-55.1-28.6-81.8-1.9-7.8-4.6-15.5-4.9-23.5-.6-18.3,14.4-27,29.9-32,12.4-3.9,30.7-7.2,42.7-.6S325.9,474.3,331.1,485.5Z" fill="#2559a7"/>
    <path d="M264.1,467.1c-3.9-.4-7.8,1.1-11.4,2.9-10.3,5.3-23.6,10.4-28.6,21.6-2.8,6.2-3.6,13-4.1,19.7-1.3,16.1-2.2,32.1-2.9,48.2s.3,29.4,6.5,43.6c2.1,4.7,6,9.3,11.4,6.2s7.2-11.3,8.9-17a298.7,298.7,0,0,0,10.8-52.2c1-9.1,1.7-18.3,4.1-27.1a49.1,49.1,0,0,1,7.6-16.6c3.8-5.3,6.5-7.5,7.3-14.4s-1.6-13.6-8.6-14.8Z" fill="#e18d58"/>
    <path d="M404.8,621.2c1.6,4.7,5.9,8.9,10,10.9s6.6,3.1,7.5,6.1-.7,4.8,3.3,4.5,7.5-4.8,8.4-7.8-.8-6.4-2.7-9.2c-3.9-5.9-8.6-11.8-14.5-15.7-3.1-2-8.7-2.2-10.9,1.2A10.9,10.9,0,0,0,404.8,621.2Z" fill="#82625d"/>
    <path d="M213.2,524.7c-6.7-1.1-13.8,7.7-11.8,16,3.4,13.6,6.2,27.2,9.6,40.7,2.5,10.2,3.9,27.5,15.9,31,10.3,3.1,15-8.2,15.4-16.7,1.1-23.3-12.7-44.3-22.2-64.7C218.2,527,215.7,525.1,213.2,524.7Z" fill="#e18d58"/>
    <path d="M290.9,465.2a17.1,17.1,0,0,0-4.5-2.8c-5.1-2.3-10.9-2.4-16.4-1.3-30.6,6-39.7,38.1-41.9,65.2-.8,8.9-2.3,19.5.9,28s10.7,15.3,12,23.8c1.8,12,.7,23.7.5,35.6,0,3-.4,5,1.8,7.1s10.1,3.4,14.7,3.9a112.4,112.4,0,0,0,17.4.5,109.3,109.3,0,0,0,46.1-13.4c5.3-2.9,15.4-7.5,16.2-14.4.5-3.7-1.1-7.6-2-11.1l-3.3-13.5c-4.6-18.8-9.7-37.3-17-55.5-3.7-9.1-7.6-18.1-11.6-27S297.9,471.3,290.9,465.2Z" fill="#99552e"/>
    <path d="M293.8,531.4l-.2-.2a16.3,16.3,0,0,0-3.8-3.6c-5-3.1-8.8,2.6-13.8,1.2-14-4-22-16-29-27-4.1-6.5-5.5-13.9-5.3-21.5-8.8,13-12.4,30.3-13.6,46-.8,8.9-2.3,19.5.9,28s10.7,15.3,12,23.8c1.8,12,.7,23.7.5,35.6,0,3-.4,5,1.8,7.1s10.1,3.4,14.7,3.9a112.4,112.4,0,0,0,17.4.5,109.3,109.3,0,0,0,46-13.4c1.6-18.6-2.5-37.3-10.7-54A126.1,126.1,0,0,0,293.8,531.4Z" fill="#e18d58"/>
    <path d="M277.2,464c8.1-7.5,26.1-2.3,36.1,3.7,15.3,9.2,27.1,22.7,38.6,36.1,12.8,14.9,22.4,32.1,32.6,48.8L418.7,608a13,13,0,0,1,2,4.3c1.1,5.9-12.9,15.3-18.2,12.5-1.8-1-2.9-2.9-3.9-4.7-19.2-34.5-49.6-62.1-79-87.6-9.9-8.6-19.6-17.4-29-26.4s-16.4-15.4-17.5-28.3C272.6,471.2,274.2,466.8,277.2,464Z" fill="#99552e"/>
    <path d="M202.3,507.6c.1-.6.4-1.2.6-1.9,2-4.9,6.2-8.5,10.2-11.8l20.6-16.7c4-3.2,8.2-6.8,13.1-8.6,2-.7,3.9-.6,2.5,1.8a15.3,15.3,0,0,1-4.3,3.7,60.2,60.2,0,0,0-17.5,16.6c-5.2,7.4-8.6,16.4-12.7,24.5a16.5,16.5,0,0,1-2.9,4.5c-3.1,3.2-6.4,1.3-8.3-2.1A13.4,13.4,0,0,1,202.3,507.6Z" fill="#35353e"/>
    <path d="M292.3,452.7c-.9-3.2-6.2-6.4-8.7-7.3a18.3,18.3,0,0,0-16.1,2.9c-2.4,1.7-10.5,12.3-5,14.7s5.8-8.1,7.1-10c3.2-4.7,13.1-4.3,16.1.4,1.2,2,2.4,4.9,4.9,3.2A3.6,3.6,0,0,0,292.3,452.7Z" fill="#35353e"/>
    <path d="M209.4,502.5a15.2,15.2,0,0,0-9.2.1c-8.1,2.9-8.4,19.6-6,26.2.7,2,2.2,5.6,3.8,6.7,4.9,3.4,15.6,4.7,20.7,1s6.9-14.3,4.1-19.1S218,508,214,504.8A11.1,11.1,0,0,0,209.4,502.5Z" fill="#82625d"/>
    <path d="M198.8,528c0,5.3,2.5,12.2,7.4,15s13.7-1.5,14-8-.3-14.2-7.1-16S198.7,521.6,198.8,528Z" fill="#82625d"/>
    <path d="M291.8,456.6a9.9,9.9,0,0,0-5.1,1.1c-3.7,2.5-3,8.3-3.3,12.2a137,137,0,0,0,10,60.3c6.7,16.4,15.7,31.7,25.1,46.7,3.1,5,10.2,16.7,17.6,12,2.6-1.6,1.8-5.8,4.1-7.3-7.5,4.8-12.5-4.5-16.1-9.8a170.2,170.2,0,0,1-23-49.9c-5.3-19-7.8-39.4-3.6-58.9C298.4,458.7,296.4,456.7,291.8,456.6Z" fill="#35353e"/>
    <path d="M372.6,823.2c.6-.9,1.8-1.7,3.1-3.1,4.1-4.2,7.9-8.7,12.1-12.9s8.7-7.6,13.7-2.3c2,2.1,3.2,4.7,4.5,7.3,4,8.3,14.2,14.6,15.2,24.2.3,2.7.7,7,0,9.6s-4,6.6-6.3,9.6-3.9,6.3-6.5,9-2.4,2.9-4,3.8c-3.8,2.1-9.1,2.7-13.2,3.2-2.1.2-22.6,1.7-22.7-.7s.4-4.3-.4-6.1,8.1-7.5,9-8.4c3.2-2.9,6.3-5.5,7.1-9.9s-2.8-7.3-4.8-10a107.2,107.2,0,0,1-6.2-8.8C371.8,825.4,371.8,824.3,372.6,823.2Z" fill="#20496d"/>
    <path d="M383,815.8l-1.6-1.8c-1.9,2.1-3.7,4.1-5.7,6.1s-2.5,2.2-3.1,3.1-.8,2.2.6,4.5a107.2,107.2,0,0,0,6.2,8.8c2,2.7,5.4,6.4,4.8,10s-3.9,7-7.1,9.9c-.9.9-9.4,7.5-9,8.4s.3,4.2.4,6.1h0A63.5,63.5,0,0,0,389,860.8C404,849.8,395,828.8,383,815.8Z" fill="#2559a7"/>
    <path d="M193.6,819.6a4.9,4.9,0,0,0,.1-1.2c.8-7.4,9.5-4.8,14.9-5.2s14.6-3.8,17.6,2.3c1.8,3.7,1.1,10.8,1.5,14.9.2,0,2,21.7,2.1,24.1.2,5.3.9,9.5-3.9,11.9s-10.4,1.5-15.4,1.4c-9.9-.1-19.8.4-29.6.4-4.2.5-14.7,2.5-16.9-2.7-1.3-3-.6-7.3,1.2-9,8.5-8.1,26.3-10.2,27.8-24.5C193.4,827.9,193.3,823.7,193.6,819.6Z" fill="#20496d"/>
    <path d="M217.2,812c-3.1.3-6.3,1-8.6,1.2-5.4.4-14.1-2.2-14.9,5.2a4.9,4.9,0,0,1-.1,1.2c-.3,4.1-.2,8.3-.6,12.4-1.5,14.3-19.3,16.4-27.8,24.5-1.8,1.7-2.5,6-1.2,9,2.2,5.2,12.7,3.2,16.9,2.7,6.8,0,13.5-.2,20.3-.3,4.8-4.9,8.7-10.4,10.8-17.1C216,838.9,215.5,825.2,217.2,812Z" fill="#2559a7"/>
    <g>
      <path d="M205.8,380c-9.5,4-19.6,12.8-25.3,21.3-8.2,12.2-4.5,28.3,4.7,38.9,5.9,6.7,12.9,10.7,21.9,7.9,11.9-3.7,19.3-14.7,22.7-26.2s4.9-28.8-3.9-38.3C220.6,377.8,212.8,377,205.8,380Z" fill="#35353e"/>
      <path d="M229.5,452c.9,11.9,9.9,22.8,15,33.2,2.9,6,5,10.9,12.6,10.3s12.9-5.1,16.3-11.4,3.6-17.2-2.3-23.5-7.8-13.8-14.3-18.4-13.4-2.1-20,.4S229.2,448.2,229.5,452Z" fill="#74514b"/>
      <path d="M261.4,483.1c-14.9-9.2-23.7-22.4-30.1-36.9a7.4,7.4,0,0,0-1.8,5.8c.9,11.9,9.9,22.8,15,33.2,2.9,6,5,10.9,12.6,10.3l2.7-.5C263.3,491,267.1,486.2,261.4,483.1Z" fill="#82625d"/>
      <path d="M282.9,416.9c-2-9.2-6.9-17.6-15.9-23.1-17.5-10.9-42.6-6.6-51.4,11.6-7,14.5-4.9,34.1,4.6,47.3,6.9,9.5,19.2,20.3,32.7,19.3,18.9-1.3,28.5-22,30.5-36.8A53.6,53.6,0,0,0,282.9,416.9Z" fill="#74514b"/>
      <path d="M269.2,395.2a16.4,16.4,0,0,0-2.2-1.4c-17.5-10.9-42.6-6.6-51.4,11.6-7,14.5-4.9,34.1,4.6,47.3,4.7,6.5,12,13.6,20.4,17.2a52.4,52.4,0,0,0,9.5-4.7C275.1,451.2,281,419.1,269.2,395.2Z" fill="#82625d"/>
      <path d="M245.8,380.9c15.2.8,32.1,10.3,35.6,25.8a13.9,13.9,0,0,1,.4,3.5c-.3,2.4-1.4,1.3-2.5,0-4.1-5.2-11.1-6.2-17.4-5.5s-14.4,2.8-18,7.5c-1.5,2-1.5,5-2.3,7.2s-2.6,3.7-4.3,5.2-3.9,2.3-4.9,4.9-2.9,12.9-6.5,7.5c-1.2-1.9-.5-4.8-3.2-5.5s-4.9,3.3-5.8,5.5-2.7,12.2-6.6,6.5a10.2,10.2,0,0,1-1.1-2.9c-2.6-11.2-2.9-23.5.7-34.6a43.5,43.5,0,0,1,7.2-13.4C224.2,384,234.8,380.3,245.8,380.9Z" fill="#35353e"/>
      <path d="M222.1,433.9c2.7-2.4,2.1-8.8,2.5-11.8,2.4-20.1,23.1-32.5,42.4-31.3,2.1.1,4.1,1.5,6,1.3-3-7.7-14.3-9.4-21.5-8.8a40.4,40.4,0,0,0-27,12.4,39.3,39.3,0,0,0-10.1,21.2c-.6,4.3-2.6,17.1,4.2,17.9A4.2,4.2,0,0,0,222.1,433.9Z" fill="#facd42"/>
      <path d="M225.3,434c0-.1,0-.1-.1-.2-.8-5.5-3.9-10.8-10.2-9.4s-6.9,9.5-5,14.3c1.1,3,3.2,5.4,5.1,8s2.2,3.4,4.1,3.8C227.2,452,225.9,438.3,225.3,434Z" fill="#82625d"/>
    </g>
  </g>
</svg>
