<svg xmlns="http://www.w3.org/2000/svg" width="1342" height="370"><path fill="none" stroke="#92acd3" stroke-miterlimit="10" d="M676 263.121H204"/><path fill="none" stroke="#80dcf8" stroke-miterlimit="10" d="M1332 360V33.128h-284V360"/><path fill="none" stroke="#a6dae0" stroke-miterlimit="10" d="M200 360V147.779h844V360"/><path d="M78.268 164.168c.192 1.004.358 1.993.486 3.006a2.94 2.94 0 00.586 1.584c1.06 1.213 3.313.888 4.64.756l5.104-.506c2.615-.26 3.058-2.91 3.018-5.278q-.046-2.704-.334-5.402-.151-1.408-.372-2.809a5.673 5.673 0 00-.624-2.293c-.898-1.334-3.057-1.543-4.404-1.82a33.422 33.422 0 00-5.055-.526c-1.886-.097-3.778-.214-5.665-.21-1.773.005-.827 1.975-.414 3.04a60.244 60.244 0 013.034 10.458z" fill="#74514b"/><path d="M82.17 157.782c-.781-2.733-3.241-4.629-4.97-7.09a52.511 52.511 0 00-1.552-.022c-1.773.005-.827 1.975-.414 3.039a60.368 60.368 0 012.981 10.201c2.8-1.195 4.93-3.855 3.955-6.128z" fill="#82625d"/><path d="M79.004 154.557c3.878 1.546 8.19 2.394 12.051 1.035a14.043 14.043 0 005.474-3.318 9.946 9.946 0 002.6-6.208 24.159 24.159 0 00.09-5.423 23.56 23.56 0 00-8.572-16.139c-2.348-1.974-5.355-3.665-8.467-3.353-4.715.472-9.204 1.575-12.536 5.125a17.26 17.26 0 00-4.706 12.217c.22 6.432 3.939 10.762 9.415 13.822a39.996 39.996 0 004.651 2.242z" fill="#74514b"/><path d="M88.15 150.715c6.536-8.403 5.449-20.41-.841-28.456a9.352 9.352 0 00-5.13-1.108c-4.714.472-9.203 1.575-12.535 5.125a17.26 17.26 0 00-4.706 12.217c.22 6.432 3.939 10.762 9.415 13.822a39.98 39.98 0 004.652 2.242q.752.3 1.525.56c3.001-.678 5.95-1.898 7.62-4.401z" fill="#82625d"/><path d="M67.732 125.06a20.323 20.323 0 0112.076-4.517c1.46-.063 7.822-.28 7.675 1.966a3.316 3.316 0 01-.83 1.696l-2.887 3.805a2.944 2.944 0 00-.741 1.523 3.401 3.401 0 00.151.982 10.464 10.464 0 01-.293 5.84 4.698 4.698 0 00-.493 2.824 4.154 4.154 0 01.306.98 1.265 1.265 0 01-.767 1.135c-1.314.616-2.254-.46-3.504-.392a2.05 2.05 0 00-1.635 2.209 9.82 9.82 0 00.857 2.905 6.39 6.39 0 01-.392 4.868 9.74 9.74 0 01-.83 1.177c-1.35 1.724-3.535 1.508-5.584 1.48-3.396-.046-7.418-.332-9.653-3.227-1.879-2.433-1.98-5.778-1.48-8.688 1.016-5.912 3.283-12.622 8.024-16.565z" fill="#35353e"/><path d="M65.838 145.6a17.753 17.753 0 01.517 9.451 6.797 6.797 0 01-2.228 4.336c-4.102 3.061-12.53 2.057-16.21-1.39-3.148-2.95-3.462-7.774-2.498-11.74 1.035-4.26 4.284-10.202 9.5-9.576a12.785 12.785 0 015.7 2.324 13.726 13.726 0 015.219 6.595z" fill="#35353e"/><path d="M70.485 133.49q-.923-1.565-1.942-3.069c-.488-.717-.975-1.458-1.528-2.127-.35-.423-1.342-1.104-1.268-1.725a.703.703 0 01.193-.347 14.677 14.677 0 012.963-2.656c.593-.406 1.436-.741 1.917-.071 2.124 2.96 3.527 6.69 4.78 10.086q1.09 2.949 1.907 5.989c.273 1.019.565 2.034.803 3.062.169.733.686 2.13.26 2.843a.783.783 0 01-.63.347 1.56 1.56 0 01-.724-.166 3.192 3.192 0 01-1.575-1.58c-1.4-3.108-2.713-6.236-4.377-9.226q-.381-.685-.78-1.36z" fill="#fad255"/><path d="M81.276 146.124a1.81 1.81 0 00.419-.115.961.961 0 00.363-.298c.637-.806.368-1.975.051-2.953-.618-1.91-1.677-3.6-3.896-3.702-1.396-.065-2.23 1.521-2.378 2.772a3.663 3.663 0 002.76 4.078 8.075 8.075 0 002.681.218z" fill="#82625d"/><path d="M95.39 235.613a20.527 20.527 0 012.035-2.303c3.378-3.277 7.669-2.84 9.813 1.628a22.874 22.874 0 011.667 7.706 297.826 297.826 0 005.08 32.963c2.255 10.466 1.151 21.71.784 32.363-.356 10.345-.546 20.667-1.193 31.004-.118 1.875-.563 4.154-2.5 4.776-5.345 1.716-6.8-8.12-7.694-11.368-2.683-9.754-4.467-19.636-3.95-29.77.218-4.265.397-8.392-2.08-12.076-2.57-3.82-5.042-7.34-6.695-11.696a45.044 45.044 0 01-2.104-22.943c1.115-7.036 2.536-14.636 6.838-20.284z" fill="#6e8390"/><path d="M75.287 225.72a8.292 8.292 0 00-3.788 3.09c-3.275 5.227-3.951 11.68-2.82 17.78.898 4.854 2.765 9.182 4.587 13.635 1.59 3.884-.145 8.262.011 12.395.224 5.923 1.927 11.837 1.988 17.707.027 2.579-.918 5.053-1.745 7.495-4.546 13.421-5.087 27.245-4.793 41.279.056 2.698-1.23 11.164 2.84 11.644a4.354 4.354 0 003.791-1.882 12.84 12.84 0 001.79-4.027c4.225-13.51 8.289-27.066 13.017-40.407 1.94-5.474 3.88-10.952 5.5-16.529 2.51-8.648 3.33-17.578 5.927-26.145 2.518-8.307 8.055-15.065 9.371-23.801.43-2.848.765-5.66 1.22-8.46.545-3.352-1.224-5.014-4.136-5.415a87.518 87.518 0 00-19.837-.454c-3.704.336-9.05.367-12.923 2.095z" fill="#6e8390"/><path d="M93.335 223.313q-2.566.082-5.125.312c-3.704.336-9.05.367-12.923 2.095a8.292 8.292 0 00-3.788 3.09c-3.275 5.227-3.951 11.68-2.82 17.78.898 4.854 2.765 9.182 4.587 13.635 1.59 3.884-.145 8.262.011 12.395.224 5.923 1.927 11.837 1.988 17.707.027 2.579-.918 5.053-1.745 7.495-4.547 13.421-5.087 27.245-4.793 41.279.056 2.698-1.23 11.164 2.84 11.644a3.219 3.219 0 00.808-.018c7.197-22.471 12.163-45.086 13.983-68.748 1.799-19.189 5.558-38.89 6.977-58.666z" fill="#a4c4d5"/><path d="M95.82 161.982c2.896 1.335 5.479 2.397 7.53 4.953 3.389 4.224 5.29 9.484 6.508 14.704 1.077 4.618 2.828 11.264 1.106 15.88-2.381 6.386-.03 11.298 1.27 17.592 1.131 5.48 2.337 22.267-5.305 23.602a43.25 43.25 0 01-8.046.887c-2.397-.035-4.672-.725-7.024-1.042-2.148-.29-4.265-.762-6.379-1.234l-10.697-2.39c-6.32-1.412-5.36-5.62-2.565-10.434a38.143 38.143 0 003.929-10.743c.458-1.918 1.07-3.324.987-5.306-.204-4.832-3.4-10.367-4.6-15.111-1.786-7.065-4.09-14.888-2.544-22.204 1.481-7.02 6.077-13.165 13.855-12.893 2.485.087 5.61-.216 7.64 1.312a23.559 23.559 0 004.336 2.427z" fill="#99552e"/><path d="M83.846 158.243c-7.779-.271-12.374 5.874-13.856 12.893-1.545 7.317.758 15.14 2.544 22.204 1.2 4.744 4.397 10.28 4.6 15.112.084 1.982-.53 3.388-.987 5.305a38.137 38.137 0 01-3.93 10.744c-2.793 4.814-3.754 9.02 2.566 10.433l10.697 2.39c1.52.34 3.04.677 4.574.948a153.696 153.696 0 004.041-40c-.087-1.481-.284-3.107-.527-4.822-2.325-12.17-4.029-24.426-9.609-35.204l-.113-.003z" fill="#e18d58"/><path d="M65.23 359.265c.05-1.247.195-2.495.311-3.729q.428-4.535.476-9.096a31.846 31.846 0 00-.116-4.438c-.136-1.026-.364-1.801.675-2.56a5.099 5.099 0 012.778-.752 26.552 26.552 0 017.193.6c1.705.381 4.091.904 4.647 2.873a6.727 6.727 0 01.108 1.787 16.546 16.546 0 00.965 4.708 9.352 9.352 0 001.092 2.582 15.72 15.72 0 002.865 2.648c1.595 1.397 2.789 3.218 4.455 4.53.186.145.669.028.914.077a6.203 6.203 0 011.244.47 8.68 8.68 0 012.227 1.393 5.327 5.327 0 011.807 5.411c-3.871.317-7.621.012-11.496.03-2.56.01-5.031.202-7.523.2-3.202 0-6.388-.055-9.587-.234-2.329-.13-2.594-1.264-2.915-3.509a16.374 16.374 0 01-.12-2.99z" fill="#20496d"/><path d="M76.45 339.272a26.55 26.55 0 00-7.096-.582 5.1 5.1 0 00-2.778.751c-1.04.76-.812 1.535-.675 2.561a31.829 31.829 0 01.115 4.438q-.043 4.555-.475 9.096c-.116 1.234-.26 2.482-.311 3.73a16.383 16.383 0 00.12 2.99c.32 2.245.586 3.379 2.914 3.51 3.2.178 6.385.233 9.588.234 2.492.001 4.962-.19 7.523-.201.639-.003 1.273.004 1.905.015-4.425-9.038-11.49-16.29-10.83-26.542z" fill="#2559a7"/><path d="M104.94 364.658a7.632 7.632 0 01-1.192-2.844 19.247 19.247 0 01-1.275-7.33c.284-4.507-.86-8.886-.28-13.462.09-.72.283-1.548.94-1.86a2.474 2.474 0 011.23-.107 20.29 20.29 0 004.248-.424 36.735 36.735 0 014.453-.093c1.191-.013 2.56.053 3.297.988 1.264 1.601.53 4.573 1.347 6.51a17.58 17.58 0 005.209 6.367l3.783 3.117c1.21.997 2.422 1.995 3.688 2.922a16.905 16.905 0 013.013 2.502c.84.984 2.309 4.92-.211 4.94l-13.05.1a93.325 93.325 0 01-13.354-.53 2.936 2.936 0 01-1.846-.796z" fill="#20496d"/><path d="M88.475 159.258a18.938 18.938 0 00-8.621.555c-4.226 1.273-7.83 3.954-11.019 6.933a3.107 3.107 0 00-.98 1.338c-.291 1.035.46 1.984.847 2.882.186.432.094 1.033.455 1.367a1.313 1.313 0 001.56-.051 4.208 4.208 0 001.083-1.44 21.322 21.322 0 015.734-6.504 13.097 13.097 0 017.135-2.995c2.865-.123 5.596 1.348 8.1 2.576a46.683 46.683 0 016.55 3.907 13.434 13.434 0 012.602 2.06 9.831 9.831 0 002.295 2.393.87.87 0 001 .054.892.892 0 00.221-.42 4.56 4.56 0 00-.928-4.447 6.96 6.96 0 00-1.283-.906c-.957-.57-1.922-1.125-2.888-1.68l-1.323-.76a60.405 60.405 0 00-5.782-3.44 20.151 20.151 0 00-4.758-1.422z" fill="#494951"/><path d="M102.7 179.322a5.562 5.562 0 01-.88-2.028c-.188-.652-.692-1.175-.9-1.822-.07-.217-.103-.443-.173-.66a6.675 6.675 0 00-.556-1.097 11.823 11.823 0 01-.83-2.178 2.999 2.999 0 01-.157-.722 2.87 2.87 0 01.98-1.772.49.49 0 01.332-.188.512.512 0 01.296.147l.926.753c1.027.834 2.959.79 3.09-.891a2.322 2.322 0 00-.417-1.273c-.101-.18-.193-.534-.367-.644l-1.284-.82c-.142-.09-.303-.26-.206-.399a.304.304 0 01.076-.068 5.976 5.976 0 013.922-.904.75.75 0 01.333.084.666.666 0 01.226.28 4.436 4.436 0 00.545 1.067 3.578 3.578 0 00.92.58 8.493 8.493 0 012.173 2.364 3.563 3.563 0 00.772.77 4.9 4.9 0 01.465.312c.53.457.53 1.256.646 1.946a7.298 7.298 0 01.348 2.421 3.703 3.703 0 01-.508 1.203 20.254 20.254 0 01-1.59 2.33 7.017 7.017 0 00-1.39 2.191 2.32 2.32 0 01-.27.712c-.393.544-1.287-.09-1.815-.156a38.276 38.276 0 01-2.46-.38 4.396 4.396 0 01-1.458-.473 2.93 2.93 0 01-.79-.685z" fill="#82625d"/><path d="M112.658 206.893a2.402 2.402 0 002.243-1.125 6.982 6.982 0 00.711-2.471 18.663 18.663 0 00.21-5.207 35.757 35.757 0 00-2.436-8.616 40.023 40.023 0 00-1.893-4.265 13.154 13.154 0 01-1.767-5.036 2.41 2.41 0 00-.043-.404c-.527-2.21-3-3.56-5.119-3.752-1.036-.094-2.905.446-3.046 1.655a34.777 34.777 0 00.034 4.916c.108 3.723.514 7.418.814 11.12.313 4.163 1.592 7.962 4.766 10.86a8.326 8.326 0 005.526 2.325z" fill="#99552e"/><path d="M91.474 207.082a67.664 67.664 0 008.207-7.623q.81-.89 1.587-1.811a2.6 2.6 0 01.685-.639c.992-.55 1.551.69 1.452 1.492a6.888 6.888 0 01-1.447 2.662c-.829 1.286-1.368 2.72-2.095 4.06a14.102 14.102 0 01-2.585 3.105 32.408 32.408 0 01-6.252 4.91 98.246 98.246 0 01-9.91 4.788l-10.808 4.954a4.957 4.957 0 01-2.627.654 15.62 15.62 0 012.791-3.024c1.06-.836 2.199-1.569 3.321-2.317 2.606-1.754 5.395-3.168 8.098-4.737a81.08 81.08 0 009.583-6.474z" fill="#494951"/><path d="M76.103 178.217c1.775 3.303 4.827 6.175 7.362 8.819a46.788 46.788 0 018.683 12.402 19.107 19.107 0 004.312 6.188 15.006 15.006 0 007.07 3.235 30.636 30.636 0 003.93.48c2.45.162 6.238.926 7.61-1.82 2.868-5.742-1.303-14.477-5.456-18.441-1.113-1.063-2.347-1.992-3.512-2.998-4.887-4.221-7.508-9.153-9.823-14.964-1.872-4.699-5.608-9.547-11.07-9.677-5.7-.137-9.683 4.533-10.479 9.861a10.905 10.905 0 001.373 6.915z" fill="#99552e"/><path d="M105.444 205.071c5.698-2.849 1.71-10.256-.57-14.244-4.558-7.977-9.116-14.814-12.535-23.36a32.904 32.904 0 00-2.722-4.778 9.297 9.297 0 00-4.408-1.248c-5.7-.136-9.683 4.534-10.48 9.861a10.906 10.906 0 001.374 6.916c1.775 3.303 4.826 6.175 7.362 8.818a46.79 46.79 0 018.683 12.403 19.109 19.109 0 004.312 6.188 11.74 11.74 0 00.96.748 13.717 13.717 0 008.024-1.304z" fill="#e18d58"/><path d="M49.126 230.516c1.721.69 3.743 1.133 5.041 1.531 2.663.816 6.985 2.515 9.787 2.004 2.298-.419 5.729-2.968 6.999-4.87a12.748 12.748 0 001.538-4.139c4.308-17.65.479-35.456.056-53.315-.046-1.952.55-4.246-1.791-4.886-1.513-.414-3.328.134-4.81.463a9.35 9.35 0 00-3.895 1.533 29.8 29.8 0 01-2.312 2.026 26.691 26.691 0 01-2.971 1.18c-2.962 1.372-4.84 5.228-6.403 7.916a60.05 60.05 0 00-7.972 23.73 49.038 49.038 0 00.35 12.848c.57 3.513 1.391 9.363 3.65 12.221a6.625 6.625 0 002.733 1.758z" fill="#20496d"/><path d="M65.959 219.375a173.996 173.996 0 007.731-29.657c-.474-5.989-1-11.987-1.143-17.991-.046-1.953.55-4.247-1.79-4.887-1.514-.413-3.328.135-4.81.464a9.351 9.351 0 00-3.896 1.533 29.817 29.817 0 01-2.312 2.025 26.671 26.671 0 01-2.97 1.181c-2.963 1.372-4.84 5.228-6.403 7.916a60.05 60.05 0 00-7.973 23.73 49.033 49.033 0 00.35 12.848c.531 3.27 1.28 8.558 3.203 11.581 8.874.146 18.175-3.231 20.013-8.743z" fill="#2559a7"/><g fill="#2559a7"><path d="M204 348.854h24V360h-24z"/><path d="M232 337.178h24V360h-24z"/><path d="M260 325.502h24V360h-24z"/><path d="M288 313.826h24V360h-24z"/><path d="M316 302.149h24V360h-24z"/><path d="M344 290.473h24V360h-24z"/><path d="M372 278.797h24V360h-24z"/><path d="M400 313.826h24V360h-24z"/><path d="M428 302.149h24V360h-24z"/><path d="M456 290.473h24V360h-24z"/><path d="M484 278.797h24V360h-24z"/><path d="M512 267.121h24V360h-24z"/><path d="M596 290.473h24V360h-24z"/><path d="M624 278.797h24V360h-24z"/><path d="M652 267.121h24V360h-24z"/><path d="M568 245.189h24V360h-24z"/><path d="M540 256.865h24V360h-24z"/></g><g fill="#4db6c1"><path d="M708 245.189h24V360h-24z"/><path d="M736 233.512h24V360h-24z"/><path d="M680 256.865h24V360h-24z"/><path d="M764 221.836h24V360h-24z"/><path d="M792 245.189h24V360h-24z"/><path d="M820 233.512h24V360h-24z"/><path d="M848 221.836h24V360h-24z"/><path d="M876 210.16h24V360h-24z"/><path d="M904 198.484h24V360h-24z"/><path d="M932 186.807h24V360h-24z"/><path d="M960 175.131h24V360h-24z"/><path d="M988 163.455h24V360h-24z"/><path d="M1016 151.779h24V360h-24z"/></g><g fill="#00b9f2"><path d="M1080 130.538h24V360h-24z"/><path d="M1108 118.862h24V360h-24z"/><path d="M1052 142.215h24V360h-24z"/><path d="M1136 107.186h24V360h-24z"/><path d="M1164 95.51h24V360h-24z"/><path d="M1192 83.834h24V360h-24z"/><path d="M1220 72.157h24V360h-24z"/><path d="M1248 60.481h24V360h-24z"/><path d="M1276 48.805h24V360h-24z"/><path d="M1304 37.128h24V360h-24z"/></g><g fill="#00b9f2"><path d="M1069.04 27.829l-2.86-4.1c-.12.012-.3.02-.54.02h-3.16v4.08h-2.6v-14h5.76a7.761 7.761 0 013.17.6 4.61 4.61 0 012.07 1.72 4.81 4.81 0 01.72 2.66 4.745 4.745 0 01-.77 2.72 4.583 4.583 0 01-2.21 1.7l3.22 4.6zm-.94-11.08a3.998 3.998 0 00-2.58-.72h-3.04v5.58h3.04a3.952 3.952 0 002.58-.73 2.539 2.539 0 00.88-2.07 2.511 2.511 0 00-.88-2.06z"/><path d="M1084.26 23.288h-8.38a2.904 2.904 0 001.15 1.87 3.768 3.768 0 002.31.69 3.892 3.892 0 002.9-1.16l1.34 1.54a4.515 4.515 0 01-1.82 1.3 7.22 7.22 0 01-5.58-.26 5.041 5.041 0 01-2.07-1.95 5.5 5.5 0 01-.73-2.83 5.59 5.59 0 01.71-2.81 5.037 5.037 0 011.97-1.949 5.746 5.746 0 012.84-.7 5.603 5.603 0 012.79.69 4.891 4.891 0 011.92 1.94 5.882 5.882 0 01.69 2.89c0 .173-.014.42-.04.74zm-7.39-3.55a2.987 2.987 0 00-1.01 1.89h6.06a2.948 2.948 0 00-.98-1.88 2.983 2.983 0 00-2.04-.72 3.014 3.014 0 00-2.03.71z"/><path d="M1093.12 27.248a2.943 2.943 0 01-1.07.54 4.82 4.82 0 01-1.33.18 3.774 3.774 0 01-2.72-.92 3.539 3.539 0 01-.96-2.68v-5.14h-1.76v-2h1.76v-2.44h2.5v2.44h2.86v2h-2.86v5.08a1.69 1.69 0 00.38 1.19 1.426 1.426 0 001.1.41 2.193 2.193 0 001.4-.44z"/><path d="M1095.3 14.958a1.474 1.474 0 010-2.14 1.605 1.605 0 011.14-.43 1.657 1.657 0 011.14.41 1.323 1.323 0 01.46 1.03 1.508 1.508 0 01-.45 1.11 1.557 1.557 0 01-1.15.449 1.604 1.604 0 01-1.14-.429zm-.12 2.19h2.5v10.68h-2.5z"/><path d="M1107.139 17.029v2.38a3.178 3.178 0 00-.58-.06 3.02 3.02 0 00-2.28.85 3.39 3.39 0 00-.82 2.45v5.18h-2.5v-10.68h2.38v1.56a4.165 4.165 0 013.8-1.68z"/><path d="M1119.16 23.288h-8.38a2.904 2.904 0 001.15 1.87 3.768 3.768 0 002.31.69 3.892 3.892 0 002.9-1.16l1.34 1.54a4.515 4.515 0 01-1.82 1.3 7.22 7.22 0 01-5.58-.26 5.041 5.041 0 01-2.07-1.95 5.5 5.5 0 01-.73-2.83 5.59 5.59 0 01.71-2.81 5.037 5.037 0 011.97-1.949 5.746 5.746 0 012.84-.7 5.603 5.603 0 012.79.69 4.891 4.891 0 011.92 1.94 5.882 5.882 0 01.69 2.89c0 .173-.014.42-.04.74zm-7.39-3.55a2.987 2.987 0 00-1.01 1.89h6.06a2.948 2.948 0 00-.98-1.88 2.983 2.983 0 00-2.04-.72 3.014 3.014 0 00-2.03.71z"/><path d="M1138.28 18.199a4.743 4.743 0 011.18 3.51v6.12h-2.5v-5.8a3.13 3.13 0 00-.62-2.11 2.238 2.238 0 00-1.78-.71 2.608 2.608 0 00-2.02.83 3.387 3.387 0 00-.76 2.37v5.42h-2.5v-5.8a3.13 3.13 0 00-.62-2.11 2.239 2.239 0 00-1.78-.71 2.614 2.614 0 00-2.03.82 3.408 3.408 0 00-.75 2.38v5.42h-2.5v-10.68h2.38v1.359a3.887 3.887 0 011.5-1.1 5.1 5.1 0 012-.38 4.82 4.82 0 012.13.45 3.457 3.457 0 011.47 1.33 4.447 4.447 0 011.7-1.31 5.518 5.518 0 012.3-.47 4.343 4.343 0 013.2 1.17z"/><path d="M1152.759 23.288h-8.38a2.905 2.905 0 001.15 1.87 3.768 3.768 0 002.31.69 3.892 3.892 0 002.9-1.16l1.34 1.54a4.515 4.515 0 01-1.82 1.3 7.22 7.22 0 01-5.58-.26 5.04 5.04 0 01-2.07-1.95 5.499 5.499 0 01-.73-2.83 5.59 5.59 0 01.71-2.81 5.036 5.036 0 011.97-1.949 5.746 5.746 0 012.84-.7 5.603 5.603 0 012.79.69 4.892 4.892 0 011.92 1.94 5.883 5.883 0 01.69 2.89c0 .173-.014.42-.04.74zm-7.39-3.55a2.986 2.986 0 00-1.01 1.89h6.06a2.948 2.948 0 00-.98-1.88 2.982 2.982 0 00-2.04-.72 3.014 3.014 0 00-2.03.71z"/><path d="M1164.498 18.208a4.656 4.656 0 011.22 3.5v6.12h-2.5v-5.8a3 3 0 00-.66-2.11 2.443 2.443 0 00-1.88-.71 2.889 2.889 0 00-2.18.83 3.308 3.308 0 00-.8 2.39v5.4h-2.5v-10.68h2.38v1.38a3.904 3.904 0 011.56-1.12 5.621 5.621 0 012.12-.38 4.465 4.465 0 013.24 1.18z"/><path d="M1175.319 27.248a2.942 2.942 0 01-1.07.54 4.82 4.82 0 01-1.33.18 3.774 3.774 0 01-2.72-.92 3.539 3.539 0 01-.96-2.68v-5.14h-1.76v-2h1.76v-2.44h2.5v2.44h2.86v2h-2.86v5.08a1.69 1.69 0 00.38 1.19 1.426 1.426 0 001.1.41 2.193 2.193 0 001.4-.44z"/><path d="M1185.658 16.588v.641h2.94v2h-2.86v8.6h-2.5v-8.6h-1.76v-2h1.76v-.68a3.64 3.64 0 011-2.71 4.588 4.588 0 015.08-.41l-.7 1.88a2.385 2.385 0 00-1.38-.44q-1.58 0-1.58 1.72z"/><path d="M1200.618 17.149v10.68h-2.38v-1.36a3.97 3.97 0 01-1.5 1.11 4.832 4.832 0 01-1.94.39 4.643 4.643 0 01-3.37-1.19 4.695 4.695 0 01-1.23-3.53v-6.1h2.5v5.76a3.095 3.095 0 00.65 2.15 2.383 2.383 0 001.85.71 2.804 2.804 0 002.13-.83 3.336 3.336 0 00.79-2.39v-5.4z"/><path d="M1213.198 18.208a4.656 4.656 0 011.22 3.5v6.12h-2.5v-5.8a3 3 0 00-.66-2.11 2.443 2.443 0 00-1.88-.71 2.889 2.889 0 00-2.18.83 3.308 3.308 0 00-.8 2.39v5.4h-2.5v-10.68h2.38v1.38a3.904 3.904 0 011.56-1.12 5.621 5.621 0 012.12-.38 4.465 4.465 0 013.24 1.18z"/><path d="M1228.158 12.989v14.84h-2.4v-1.38a3.866 3.866 0 01-1.53 1.14 5.174 5.174 0 01-2.01.38 5.63 5.63 0 01-2.77-.68 4.885 4.885 0 01-1.93-1.93 5.771 5.771 0 01-.7-2.87 5.718 5.718 0 01.7-2.86 4.905 4.905 0 011.93-1.92 5.63 5.63 0 012.77-.68 5.093 5.093 0 011.94.359 3.915 3.915 0 011.5 1.08v-5.48zm-4.02 12.43a2.965 2.965 0 001.14-1.17 3.897 3.897 0 000-3.52 2.965 2.965 0 00-1.14-1.17 3.405 3.405 0 00-3.24 0 2.96 2.96 0 00-1.14 1.17 3.893 3.893 0 000 3.52 2.96 2.96 0 001.14 1.17 3.404 3.404 0 003.24 0z"/></g><g fill="#4db6c1"><path d="M222.38 140.298v2.18h-10.5v-14h10.22v2.18h-7.62v3.64h6.76v2.142h-6.76v3.859z"/><path d="M241.72 132.85a4.74 4.74 0 011.18 3.51v6.118h-2.5v-5.799a3.134 3.134 0 00-.62-2.11 2.238 2.238 0 00-1.78-.71 2.608 2.608 0 00-2.02.83 3.385 3.385 0 00-.76 2.37v5.42h-2.5v-5.8a3.134 3.134 0 00-.62-2.11 2.239 2.239 0 00-1.78-.71 2.615 2.615 0 00-2.03.82 3.408 3.408 0 00-.75 2.38v5.42h-2.5v-10.68h2.38v1.358a3.905 3.905 0 011.5-1.1 5.117 5.117 0 012-.379 4.82 4.82 0 012.13.45 3.469 3.469 0 011.47 1.33 4.456 4.456 0 011.7-1.31 5.534 5.534 0 012.3-.47 4.339 4.339 0 013.2 1.171z"/><path d="M256.2 137.939h-8.38a2.9 2.9 0 001.15 1.87 3.762 3.762 0 002.31.688 3.892 3.892 0 002.9-1.158l1.34 1.54a4.506 4.506 0 01-1.82 1.3 7.22 7.22 0 01-5.58-.26 5.036 5.036 0 01-2.07-1.951 5.494 5.494 0 01-.73-2.83 5.592 5.592 0 01.71-2.81 5.043 5.043 0 011.97-1.95 5.745 5.745 0 012.84-.7 5.594 5.594 0 012.79.69 4.89 4.89 0 011.92 1.94 5.886 5.886 0 01.69 2.891c0 .173-.014.42-.04.74zm-7.39-3.55a2.989 2.989 0 00-1.01 1.89h6.06a2.948 2.948 0 00-.98-1.881 2.987 2.987 0 00-2.04-.719 3.018 3.018 0 00-2.03.71z"/><path d="M264.82 131.68v2.378a3.26 3.26 0 00-.58-.06 3.021 3.021 0 00-2.28.851 3.387 3.387 0 00-.82 2.45v5.18h-2.5v-10.68h2.38v1.56a4.163 4.163 0 013.8-1.68z"/><path d="M277.44 131.798v9.06q0 5.64-5.76 5.639a10.696 10.696 0 01-2.92-.389 6.182 6.182 0 01-2.28-1.13l1.12-1.88a5.371 5.371 0 001.77.93 6.965 6.965 0 002.17.35 3.582 3.582 0 002.58-.8 3.267 3.267 0 00.82-2.44v-.56a4.12 4.12 0 01-1.56 1.06 5.494 5.494 0 01-2.02.36 5.789 5.789 0 01-2.75-.649 4.879 4.879 0 01-1.94-1.83 5.136 5.136 0 01-.71-2.7 5.08 5.08 0 01.71-2.69 4.845 4.845 0 011.94-1.81 5.876 5.876 0 012.75-.64 5.662 5.662 0 012.11.38 3.902 3.902 0 011.59 1.16v-1.42zm-3.37 7.23a2.886 2.886 0 00.91-2.21 2.832 2.832 0 00-.91-2.18 3.68 3.68 0 00-4.68 0 2.831 2.831 0 00-.91 2.18 2.884 2.884 0 00.91 2.21 3.647 3.647 0 004.68 0z"/><path d="M290.72 137.939h-8.38a2.9 2.9 0 001.15 1.87 3.762 3.762 0 002.31.688 3.892 3.892 0 002.9-1.158l1.34 1.54a4.506 4.506 0 01-1.82 1.3 7.22 7.22 0 01-5.58-.26 5.037 5.037 0 01-2.07-1.951 5.494 5.494 0 01-.731-2.83 5.591 5.591 0 01.71-2.81 5.043 5.043 0 011.97-1.95 5.745 5.745 0 012.84-.7 5.593 5.593 0 012.79.69 4.889 4.889 0 011.92 1.94 5.885 5.885 0 01.69 2.891c0 .173-.014.42-.04.74zm-7.39-3.55a2.988 2.988 0 00-1.01 1.89h6.06a2.948 2.948 0 00-.98-1.881 2.987 2.987 0 00-2.04-.719 3.018 3.018 0 00-2.031.71z"/><path d="M302.459 132.859a4.656 4.656 0 011.22 3.5v6.119h-2.5v-5.799a3.004 3.004 0 00-.66-2.111 2.442 2.442 0 00-1.88-.71 2.889 2.889 0 00-2.18.83 3.306 3.306 0 00-.8 2.39v5.4h-2.5v-10.68h2.38v1.38a3.905 3.905 0 011.56-1.12 5.638 5.638 0 012.12-.38 4.461 4.461 0 013.24 1.18z"/><path d="M308.879 141.92a5.14 5.14 0 01-2.06-1.952 5.762 5.762 0 010-5.65 5.182 5.182 0 012.05-1.94 6.245 6.245 0 012.99-.699 5.77 5.77 0 012.77.64 4.165 4.165 0 011.79 1.84l-1.92 1.12a3.038 3.038 0 00-1.15-1.11 3.352 3.352 0 00-3.83.54 3.683 3.683 0 00-.01 4.86 3.374 3.374 0 003.84.54 3.045 3.045 0 001.15-1.111l1.92 1.121a4.328 4.328 0 01-1.81 1.85 5.643 5.643 0 01-2.75.65 6.258 6.258 0 01-2.98-.7z"/><path d="M328.439 131.798l-5 11.541a5.377 5.377 0 01-1.7 2.45 4.075 4.075 0 01-2.42.709 4.95 4.95 0 01-1.58-.26 3.47 3.47 0 01-1.28-.72l1-1.84a2.707 2.707 0 00.85.54 2.612 2.612 0 00.99.201 1.705 1.705 0 001.09-.342 2.998 2.998 0 00.79-1.138l.18-.42-4.66-10.721h2.6l3.36 7.9 3.38-7.9z"/><path d="M338.278 131.238v.64h2.94v2h-2.86v8.6h-2.5v-8.6h-1.76v-2h1.76v-.68a3.643 3.643 0 011-2.71 4.588 4.588 0 015.08-.41l-.7 1.88a2.392 2.392 0 00-1.38-.44q-1.58.001-1.58 1.72z"/><path d="M353.238 131.798v10.68h-2.38v-1.36a3.968 3.968 0 01-1.5 1.11 4.833 4.833 0 01-1.94.39 4.643 4.643 0 01-3.37-1.189 4.697 4.697 0 01-1.23-3.53v-6.1h2.5v5.76a3.091 3.091 0 00.65 2.15 2.384 2.384 0 001.85.71 2.804 2.804 0 002.13-.83 3.339 3.339 0 00.79-2.39v-5.4z"/><path d="M365.818 132.859a4.656 4.656 0 011.22 3.5v6.119h-2.5v-5.799a3.004 3.004 0 00-.66-2.111 2.443 2.443 0 00-1.88-.71 2.889 2.889 0 00-2.18.83 3.306 3.306 0 00-.8 2.39v5.4h-2.5v-10.68h2.38v1.38a3.905 3.905 0 011.56-1.12 5.638 5.638 0 012.12-.38 4.461 4.461 0 013.24 1.18z"/><path d="M380.778 127.638v14.84h-2.4V141.1a3.863 3.863 0 01-1.53 1.139 5.157 5.157 0 01-2.01.38 5.63 5.63 0 01-2.77-.68 4.89 4.89 0 01-1.93-1.93 5.778 5.778 0 01-.7-2.87 5.712 5.712 0 01.7-2.86 4.905 4.905 0 011.93-1.92 5.63 5.63 0 012.77-.68 5.074 5.074 0 011.94.36 3.904 3.904 0 011.5 1.08v-5.48zm-4.02 12.43a2.958 2.958 0 001.14-1.17 3.897 3.897 0 000-3.52 2.971 2.971 0 00-1.14-1.17 3.405 3.405 0 00-3.24 0 2.967 2.967 0 00-1.14 1.17 3.893 3.893 0 000 3.52 2.954 2.954 0 001.14 1.17 3.405 3.405 0 003.24 0z"/></g><g fill="#2559a7"><path d="M213.09 257.561a6.51 6.51 0 01-2.39-1.22l.9-2.02a7.098 7.098 0 002.11 1.11 7.685 7.685 0 002.51.43 4.34 4.34 0 002.33-.5 1.515 1.515 0 00.77-1.32 1.277 1.277 0 00-.43-.99 3.008 3.008 0 00-1.09-.61q-.66-.22-1.8-.5a20.974 20.974 0 01-2.59-.76 4.268 4.268 0 01-1.7-1.19 3.203 3.203 0 01-.71-2.19 3.738 3.738 0 01.63-2.11 4.264 4.264 0 011.9-1.51 7.704 7.704 0 013.11-.56 10.07 10.07 0 012.52.32 6.944 6.944 0 012.14.92l-.82 2.02a8.105 8.105 0 00-1.92-.82 7.192 7.192 0 00-1.94-.28 4.052 4.052 0 00-2.29.52 1.604 1.604 0 00-.75 1.38 1.247 1.247 0 00.43.98 3.114 3.114 0 001.09.6q.66.22 1.8.5a18.725 18.725 0 012.56.75 4.381 4.381 0 011.71 1.19 3.138 3.138 0 01.71 2.16 3.686 3.686 0 01-.63 2.1 4.28 4.28 0 01-1.91 1.5 7.775 7.775 0 01-3.12.56 10.686 10.686 0 01-3.13-.46z"/><path d="M230.64 257.24a2.943 2.943 0 01-1.07.54 4.82 4.82 0 01-1.33.18 3.774 3.774 0 01-2.72-.92 3.539 3.539 0 01-.96-2.68v-5.14h-1.76v-2h1.76v-2.44h2.5v2.44h2.86v2h-2.86v5.08a1.69 1.69 0 00.38 1.19 1.426 1.426 0 001.1.41 2.193 2.193 0 001.4-.44z"/><path d="M240.39 248.15a4.368 4.368 0 011.25 3.41v6.26h-2.36v-1.3a2.907 2.907 0 01-1.31 1.07 5.114 5.114 0 01-2.05.37 5.037 5.037 0 01-2.1-.409 3.244 3.244 0 01-1.39-1.14 2.887 2.887 0 01-.49-1.65 2.828 2.828 0 011.07-2.31 5.312 5.312 0 013.37-.87h2.76v-.16a2.191 2.191 0 00-.67-1.72 2.904 2.904 0 00-1.99-.6 5.748 5.748 0 00-1.77.279 4.366 4.366 0 00-1.47.78l-.98-1.82a6.075 6.075 0 012.02-.98 8.986 8.986 0 012.5-.34 5.21 5.21 0 013.61 1.13zm-2.28 7.56a2.338 2.338 0 001.03-1.23v-1.24h-2.58q-2.16 0-2.16 1.42a1.275 1.275 0 00.54 1.08 2.478 2.478 0 001.5.4 3.225 3.225 0 001.67-.43z"/><path d="M251.02 247.02v2.38a3.178 3.178 0 00-.58-.06 3.02 3.02 0 00-2.28.852 3.39 3.39 0 00-.82 2.45v5.18h-2.5v-10.68h2.38v1.56a4.165 4.165 0 013.8-1.681z"/><path d="M259.96 257.24a2.942 2.942 0 01-1.07.54 4.82 4.82 0 01-1.33.18 3.774 3.774 0 01-2.72-.92 3.539 3.539 0 01-.96-2.68v-5.14h-1.76v-2h1.76v-2.44h2.5v2.44h2.86v2h-2.86v5.08a1.69 1.69 0 00.38 1.19 1.426 1.426 0 001.1.41 2.193 2.193 0 001.4-.44z"/><path d="M271.66 253.28h-8.38a2.905 2.905 0 001.15 1.87 3.768 3.768 0 002.31.69 3.893 3.893 0 002.9-1.159l1.34 1.54a4.512 4.512 0 01-1.82 1.3 7.22 7.22 0 01-5.58-.26 5.041 5.041 0 01-2.07-1.95 5.5 5.5 0 01-.73-2.83 5.59 5.59 0 01.71-2.81 5.037 5.037 0 011.97-1.949 5.746 5.746 0 012.84-.7 5.603 5.603 0 012.79.69 4.891 4.891 0 011.92 1.94 5.882 5.882 0 01.69 2.89c0 .172-.014.418-.04.739zm-7.39-3.55a2.986 2.986 0 00-1.01 1.89h6.06a2.948 2.948 0 00-.98-1.88 2.983 2.983 0 00-2.04-.72 3.014 3.014 0 00-2.03.71z"/><path d="M280.28 247.02v2.38a3.179 3.179 0 00-.58-.06 3.02 3.02 0 00-2.28.852 3.39 3.39 0 00-.82 2.45v5.18h-2.5v-10.68h2.38v1.56a4.165 4.165 0 013.8-1.681z"/><path d="M288.78 257.62a6.386 6.386 0 01-1.98-.859l.96-1.9a6.137 6.137 0 001.73.77 7.15 7.15 0 001.99.29q2.24 0 2.24-1.18a.79.79 0 00-.57-.78 9.9 9.9 0 00-1.83-.42 14.71 14.71 0 01-2.15-.46 3.288 3.288 0 01-1.44-.91 2.539 2.539 0 01-.61-1.81 2.845 2.845 0 011.269-2.43 5.783 5.783 0 013.43-.91 9.887 9.887 0 012.2.25 6.174 6.174 0 011.8.67l-.96 1.9a5.932 5.932 0 00-3.06-.8 3.393 3.393 0 00-1.67.33.984.984 0 00-.57.87.868.868 0 00.61.85 9.647 9.647 0 001.89.47 14.59 14.59 0 012.1.46 3.286 3.286 0 011.41.88 2.453 2.453 0 01.59 1.76 2.786 2.786 0 01-1.3 2.4 6.133 6.133 0 01-3.54.9 9.568 9.568 0 01-2.54-.34z"/><path d="M306.01 248.15a4.368 4.368 0 011.25 3.41v6.26h-2.36v-1.3a2.908 2.908 0 01-1.31 1.07 5.114 5.114 0 01-2.05.37 5.037 5.037 0 01-2.1-.409 3.243 3.243 0 01-1.39-1.14 2.886 2.886 0 01-.49-1.65 2.828 2.828 0 011.07-2.31 5.312 5.312 0 013.37-.87h2.76v-.16a2.191 2.191 0 00-.67-1.72 2.903 2.903 0 00-1.99-.6 5.748 5.748 0 00-1.77.279 4.366 4.366 0 00-1.47.78l-.98-1.82a6.074 6.074 0 012.02-.98 8.985 8.985 0 012.5-.34 5.21 5.21 0 013.61 1.13zm-2.28 7.56a2.338 2.338 0 001.03-1.23v-1.24h-2.58q-2.16 0-2.16 1.42a1.276 1.276 0 00.54 1.08 2.478 2.478 0 001.5.4 3.225 3.225 0 001.669-.43z"/><path d="M320.26 247.141l-4.58 10.68h-2.58l-4.58-10.68h2.6l3.32 7.92 3.42-7.92z"/><path d="M321.939 244.95a1.474 1.474 0 010-2.14 1.605 1.605 0 011.14-.43 1.656 1.656 0 011.14.41 1.323 1.323 0 01.46 1.03 1.509 1.509 0 01-.45 1.11 1.557 1.557 0 01-1.15.45 1.604 1.604 0 01-1.14-.43zm-.12 2.19h2.5v10.68h-2.5z"/><path d="M336.899 248.2a4.656 4.656 0 011.22 3.5v6.12h-2.5v-5.8a3 3 0 00-.66-2.11 2.442 2.442 0 00-1.88-.71 2.889 2.889 0 00-2.18.83 3.308 3.308 0 00-.8 2.39v5.4h-2.5v-10.68h2.38v1.38a3.905 3.905 0 011.56-1.12 5.62 5.62 0 012.12-.38 4.465 4.465 0 013.24 1.18z"/><path d="M351.999 247.141v9.06q0 5.64-5.76 5.64a10.695 10.695 0 01-2.92-.39 6.195 6.195 0 01-2.28-1.13l1.12-1.88a5.352 5.352 0 001.77.93 6.938 6.938 0 002.17.35 3.583 3.583 0 002.58-.8 3.267 3.267 0 00.82-2.44v-.561a4.12 4.12 0 01-1.56 1.06 5.496 5.496 0 01-2.02.36 5.789 5.789 0 01-2.75-.65 4.879 4.879 0 01-1.94-1.83 5.13 5.13 0 01-.71-2.7 5.077 5.077 0 01.71-2.689 4.832 4.832 0 011.94-1.81 5.864 5.864 0 012.75-.64 5.644 5.644 0 012.11.38 3.885 3.885 0 011.59 1.16v-1.42zm-3.37 7.23a2.885 2.885 0 00.91-2.21 2.83 2.83 0 00-.91-2.18 3.68 3.68 0 00-4.68 0 2.83 2.83 0 00-.91 2.18 2.884 2.884 0 00.91 2.21 3.644 3.644 0 004.68 0z"/><path d="M356.038 257.62a6.386 6.386 0 01-1.98-.859l.96-1.9a6.137 6.137 0 001.73.77 7.15 7.15 0 001.99.29q2.24 0 2.24-1.18a.79.79 0 00-.57-.78 9.9 9.9 0 00-1.83-.42 14.71 14.71 0 01-2.15-.46 3.289 3.289 0 01-1.44-.91 2.54 2.54 0 01-.61-1.81 2.845 2.845 0 011.27-2.43 5.783 5.783 0 013.43-.91 9.887 9.887 0 012.2.25 6.174 6.174 0 011.8.67l-.96 1.9a5.932 5.932 0 00-3.06-.8 3.393 3.393 0 00-1.67.33.984.984 0 00-.57.87.867.867 0 00.61.85 9.647 9.647 0 001.89.47 14.59 14.59 0 012.1.46 3.286 3.286 0 011.41.88 2.453 2.453 0 01.59 1.76 2.786 2.786 0 01-1.3 2.4 6.133 6.133 0 01-3.54.9 9.57 9.57 0 01-2.54-.34z"/></g></svg>