<svg xmlns="http://www.w3.org/2000/svg" width="1440" height="1024" viewBox="0 0 1440 1024">
  <g>
    <g>
      <polygon points="912.1 783.5 763 857.2 503.5 882.3 49.7 92 35.2 36.7 912.1 783.5" fill="#cdd4ab"/>
      <polygon points="81.5 51.8 930.5 738.3 1116.3 699.8 145.2 68.5 81.5 51.8" fill="#cdd4ab"/>
      <polygon points="33 118.8 456.6 907.4 161.9 920.8 33 118.8" fill="#cdd4ab"/>
      <polygon points="190.8 931.2 212.3 934.6 464.7 935.8 535.3 930 508.5 926.4 386.1 913.4 371.6 913.7 415.1 924.1 347.4 929.4 190.8 931.2" fill="#acb56e"/>
      <polygon points="466.5 925.3 641 934.2 724.3 932.3 813.8 926.9 713.9 920.2 630.6 920.8 615.7 923 697.5 923 669.6 926.8 581.8 927.5 480.2 923 466.5 925.3" fill="#acb56e"/>
    </g>
    <g>
      <path d="M936.3,612c-1,2-4.7,6.9-3.5,8.9,7.8-1.6,15.6-5.5,23.1-8.2,39.8-14.2,79.8-29.9,114.6-54.4a210.3,210.3,0,0,0,18.2-14.5c-24.2,3.6-48.3,7.6-72.4,11.5-19.8,3.2-39.5,6.3-59.2,9.8C950.6,580.9,943.6,596.5,936.3,612Z" fill="#d6dbb9"/>
      <path d="M1128.8,605.6c4.6-1.6,10.7-2.8,13.4,1.2a10.6,10.6,0,0,1,1.5,5.5q3.8,38.3,4.2,76.6c.1,2.7,0,5.6-1.7,7.7s-4,2.3-6.2,3a43,43,0,0,0-21.6,15.7c-3,4.1-5.4,8.9-9.8,11.5s-9.2,2.5-13.9,2.4a1089.2,1089.2,0,0,0-121.2,5.7l-1-50.6-.4-25c-.1-2.5-1.3-8.6.1-10.8s6.8-2.2,9.3-2.7q47.8-9.7,94.7-23.4C1093.8,617.2,1111.4,611.6,1128.8,605.6Z" fill="#d6dbb9"/>
      <path d="M962.9,652.5a15.1,15.1,0,0,1,.7,5.6c.1,39,.3,78.1.4,117.1,0,2.6,0,5.4-1.3,7.7s-4.5,3.8-6.7,2.4-2.5-4.2-2.6-6.7q-2.1-59.2-.9-118.6c.1-2.9-.5-7.6,2.2-9.7A5.4,5.4,0,0,1,962.9,652.5Z" fill="#d6dbb9"/>
      <path d="M1153.4,595.1c.5-1.2,1.2-2.6,2.5-2.7a2.7,2.7,0,0,1,2.5,1.5,7.6,7.6,0,0,1,.5,3c1.6,31.2,1.9,62.5.7,93.7a4.4,4.4,0,0,1-.3,2c-.7,1.4-2.3,1.9-3.8,2.2a6.8,6.8,0,0,1-4.2.2c-2.6-1.1-3-4.4-3-7.2q.3-37.3.4-74.7c0-2.7-.4-5.8.4-8.4S1152,598.2,1153.4,595.1Z" fill="#d6dbb9"/>
    </g>
    <g>
      <path d="M1037.3,903.2c-6.7-10.7-16-19.3-23.1-29.7a50.8,50.8,0,0,1-7.7-16.9,46.7,46.7,0,0,1,.2-19.7c1.3-6,3.8-12,8.6-16a14.6,14.6,0,0,1,8.6-3.5c2.9-.1,5.8.2,8.6-.2s4.4-1.3,5.4-3.7.5-5.8.4-8.6c-.1-5.8,2.5-11.7,5.1-16.8a71.6,71.6,0,0,1,11.8-16.6,37.9,37.9,0,0,1,6.9-5.8,22.7,22.7,0,0,1,3.4-1.9c1.8-.8,3.8-.7,5.7-.8,7.1-.6,9.3-8.4,14.9-11.6a23.4,23.4,0,0,1,5.8-2,53.8,53.8,0,0,0,5.1-2,7.6,7.6,0,0,0,3.3-2.3c4-5.4,7.5-11.1,11.1-16.7s8-12.6,13.4-17.8a30.9,30.9,0,0,1,9.7-6.6,38.5,38.5,0,0,1,12.1-2.6c2.4-.2,4.7.7,7,.3s5.9-2.5,8.3-4.4,5.8-5.2,8.9-7.4a33.4,33.4,0,0,1,11.2-5.1,75.3,75.3,0,0,0,11.6-3.9c3.4-1.6,6.7-3.4,10.2-4.4,8.2-2.4,16,1.8,22.5,6.4s12.7,9.8,15.8,17c1.4,3,2.5,6.1,4,9a1,1,0,0,0,1.1.5c8.1-1.9,16.5-3.1,24.9-2.5A35.9,35.9,0,0,1,1285,710a32.9,32.9,0,0,1,10,7.4,71.8,71.8,0,0,1,15,22.3,36.8,36.8,0,0,1,3.2,11.2c.3,3,.8,5.7,3.9,6.9,7,2.8,14.6-2.5,21.1,2.4,2.8,2.1,4.2,5.4,5.7,8.5s3.3,6.6,6.2,8.9,6.8,3.6,10.3,5.2a31.8,31.8,0,0,1,10.7,8.6,46,46,0,0,1,10.3,22.1c3.5,21.6-6.4,42.3-19.7,58.6a1,1,0,0,0,.2,1.6c2.6,1.4,5,3.5,5.5,6.6s-.7,5.6-1.9,8c-3.1,5.9-7.8,10.8-12.1,15.8-1.7,2.1-3.6,4.2-4.7,6.7s1.2,2.1,1.8,1,2.9-4.5,4.6-6.5,4.7-5.5,6.9-8.3c3.7-4.7,8.4-10.9,7.3-17.2-.6-3.6-3.4-6.1-6.4-7.8l.2,1.5c11.9-14.6,21.6-32.9,21-52.3-.3-8.3-2.1-16.6-6.3-23.8a54.5,54.5,0,0,0-8.1-10.5c-3-3.2-6.8-5.2-10.8-6.9s-8-3.4-10.5-7.2-3.2-6.4-5-9.6a14.7,14.7,0,0,0-7.9-6.6c-3.4-1.2-7-.5-10.5-.2s-8.7.8-9.5-3.5a41.8,41.8,0,0,1-.6-5.1,26.9,26.9,0,0,0-1.7-5.5,75.9,75.9,0,0,0-13.8-23.2,48.1,48.1,0,0,0-11-9.6,36,36,0,0,0-13.2-4.3c-9.5-1.2-19.3.1-28.5,2.2l1.1.5c-1.6-3.1-2.8-6.5-4.2-9.7a30.1,30.1,0,0,0-6.1-8.5c-5.8-5.5-12.3-10.9-19.7-14a22.3,22.3,0,0,0-11.1-1.8,30,30,0,0,0-9.5,3,77.3,77.3,0,0,1-12.3,5c-4,1.1-8.1,2.1-11.8,4.1-6.7,3.6-11.3,10.9-18.6,13.5-2.4.8-4.8-.3-7.3-.2a45.7,45.7,0,0,0-11.5,2.1c-14.5,4.8-22.3,20.2-30,32.2-1.9,3.1-4,6-6.1,9a6.7,6.7,0,0,1-3.3,2.9c-3.5,1.6-7.5,2.2-10.9,4s-5.3,4.7-7.6,7.4a15.1,15.1,0,0,1-3.8,3.3c-1.7,1-3.7.7-5.6.9a15.7,15.7,0,0,0-7.7,3.1c-5.2,3.5-9.5,8.4-13.2,13.5a70,70,0,0,0-9.4,17.7,30.4,30.4,0,0,0-1.8,7.8c-.2,3.1.9,6.5-.2,9.4s-5.1,2.8-7.8,2.8-5.9-.3-8.6.7a23.3,23.3,0,0,0-12.4,12.5c-5.2,11.5-4.9,25.6.2,37s14.6,20.5,22.3,30.4a93.4,93.4,0,0,1,5.8,8.2c.7,1.1,2.4.1,1.7-1Z" fill="#4db6c1"/>
      <path d="M1151.2,897.4c-8-10.9-12.4-23.7-18.3-35.7a129.7,129.7,0,0,0-10.2-17.2,171.5,171.5,0,0,0-10.9-14.5,98.7,98.7,0,0,0-15.4-14.2c-1-.8-2,1-1,1.7,10,7.5,17.9,16.8,24.9,27.1a127.3,127.3,0,0,1,10.2,16.6c3,6,5.6,12.2,8.4,18.3a109.9,109.9,0,0,0,10.6,18.9c.7,1,2.5,0,1.7-1Z" fill="#acb56e"/>
      <path d="M951,628.3V776.4c0,6.8-.2,13.6,0,20.4v.3a1,1,0,0,0,2,0v-148c0-6.8.2-13.7,0-20.5v-.3a1,1,0,0,0-2,0Z" fill="#acb56e"/>
      <path d="M963,627.6V791.8c0,2.2-.1,4.5,0,6.7v.3a1,1,0,0,0,2,0V634.5c0-2.2.1-4.4,0-6.6v-.3a1,1,0,0,0-2,0Z" fill="#acb56e"/>
      <path d="M968.6,625.2V739.6c0,1.5-.1,3.1,0,4.6v.2a1,1,0,0,0,2,0V630c0-1.5.1-3.1,0-4.6v-.2a1,1,0,0,0-2,0Z" fill="#acb56e"/>
      <path d="M974.2,743.2v55.2a1,1,0,0,0,2,0V743.2a1,1,0,0,0-2,0Z" fill="#acb56e"/>
      <path d="M1147.4,594.6V696.1c0,1.3-.1,2.7,0,4.1v.2a1,1,0,0,0,2,0V599c0-1.4.1-2.8,0-4.2v-.2a1,1,0,0,0-2,0Z" fill="#acb56e"/>
      <path d="M1159.8,559.9V680.3c0,5.5-.2,11.1,0,16.6v.2a1,1,0,0,0,2,0V576.8c0-5.5.2-11.1,0-16.6v-.3a1,1,0,0,0-2,0Z" fill="#acb56e"/>
      <path d="M1167.3,543.5V672.6c0,5.9-.2,11.9,0,17.9v.2a1,1,0,0,0,2,0v-129c0-6,.2-12,0-18v-.2a1,1,0,0,0-2,0Z" fill="#acb56e"/>
      <path d="M968.5,745.1l13.8-1,33.1-2.4,40.1-2.9,34.7-2.5c5.6-.4,11.2-.7,16.8-1.2h.3c1.2-.1,1.2-2.1,0-2l-13.8,1-33.2,2.4-40.1,2.9-34.7,2.5c-5.6.4-11.2.7-16.8,1.2h-.2c-1.3.1-1.3,2.1,0,2Z" fill="#acb56e"/>
      <path d="M927.8,625.3l5.8-.8,15.6-2.2,23-3.2,28.1-3.9,30.9-4.3,31.1-4.3,29.1-4.1,24.5-3.4,17.6-2.4c2.7-.4,5.6-.7,8.3-1.2h.4a1,1,0,0,0,.7-.7l8.8-22.6,14.1-35.9,3.1-8.1c.4-.8-.5-1.4-1.2-1.3l-9.7,1.7-25.2,4.1-35.5,5.9-40.1,6.7-39.5,6.6-33.4,5.5L962.5,561l-4.8.8c-1.3.2-1.5,1.1-2,2.1l-14,29-14.2,29.2-.8,1.7c-.6,1.1,1.1,2.1,1.7,1L938.5,604l16-33,3.7-7.6-.6.5,5.6-1,15.4-2.5,22.6-3.8,27.6-4.6,30.4-5,30.6-5.1,28.4-4.7,24.1-4,17.4-2.9a73.9,73.9,0,0,0,8.2-1.4h.3l-1.2-1.3-8.8,22.6-14,35.9-3.2,8.2.7-.7-5.8.8-15.6,2.1-23,3.2-28.1,3.9-30.9,4.3-31.2,4.3-29,4.1-24.5,3.4L936,622.1c-2.8.4-5.6.7-8.4,1.2h-.3C926,623.5,926.5,625.4,927.8,625.3Z" fill="#acb56e"/>
      <path d="M822.6,875.4c10-8.5,22.5-13,33.8-19.4a65.5,65.5,0,0,0,15.2-11.5,34.7,34.7,0,0,0,5.2-6.9c1.4-2.5,2.6-5.4,2.1-8.3-1.1-6-9.3-6.8-13.5-9.5l.3,1.3c1.2-2.2,3.4-3.8,5.5-5.1a52.9,52.9,0,0,1,8.2-4.2l8.1-3.5a94.2,94.2,0,0,0,8.9-4.7,103.2,103.2,0,0,0,10.4-6.8c3.3-2.4,6.2-5.4,9.8-7.3,6.8-3.5,14.8-4.3,20.3-10.2,1.4-1.5,2.7-3.2,4-4.7a15.6,15.6,0,0,1,3.7-3.1c2.2-1.5,5.7-3.2,6.1-6.2.2-1.3-1.9-1.3-2,0s-1.6,2-2.4,2.6l-3.7,2.5c-2.7,1.9-4.4,4.5-6.6,6.9a24.8,24.8,0,0,1-10,6.5c-3.4,1.2-7,2.2-10.2,3.9s-6.4,4.7-9.6,7.1a122.2,122.2,0,0,1-10.3,6.8,83.4,83.4,0,0,1-8.9,4.7l-7.8,3.4a71.8,71.8,0,0,0-9.2,4.6c-2.3,1.5-4.7,3.3-6,5.8a1.1,1.1,0,0,0,.3,1.4,52.4,52.4,0,0,0,6.8,3.1c2,.9,4.8,2.1,5.6,4.3s-.5,5.9-1.9,8.1a34.6,34.6,0,0,1-5.3,6.8c-8.6,8.8-20.2,13.6-31,19.2-6.1,3.1-12.1,6.5-17.3,11-1,.8.4,2.2,1.4,1.4Z" fill="#acb56e"/>
      <path d="M866.4,585.9c-4.7-11.7-1.9-25.1-7.2-36.5-2.7-6-8.1-10.3-14.1-12.7a17,17,0,0,0-10.9-.4c-3.6,1.1-8,3.8-11.8,1.8s-3.5-4.9-5.5-7-5.8-2.6-8.9-3-6.8-2.1-10.2-3.6-6.3-3-9.7-3-7.1,1.9-10.3,3.4a26.2,26.2,0,0,1-5.2,2.2c-1.5.5-3.1.8-4.6,1.2a16.7,16.7,0,0,0-6.1,2.3,17.8,17.8,0,0,0-4.5,6.3,72.8,72.8,0,0,1-7,10.7c-2.5,3.2-5.4,6.2-7.8,9.5s-3,6.5-4.5,9.7-4.1,6.9-5.6,10.6c-.5,1.2-1.7,3.5-.7,4.7a1.3,1.3,0,0,0,1,.3c.7-.2.6-.7,1-1.1s-.5-2.4-1.4-1.4a3.3,3.3,0,0,0-.6,1l.6-.5h-.1l.9.3v-.2l.3,1c.6-3.9,2.8-7.2,4.7-10.6a29.2,29.2,0,0,0,2.5-5c.7-1.6,1.2-3.2,1.9-4.7,1.6-3.6,4.6-6.4,7-9.3a102.5,102.5,0,0,0,6.8-9.1c1.8-2.9,3.1-6.3,5.2-9a8.7,8.7,0,0,1,4.9-3c2.7-.8,5.6-1.2,8.3-2.3s6.6-3.3,10.1-4.5c6.9-2.1,13.2,3.5,19.5,5.4,3.1.9,6.6.6,9.6,1.9s3.6,4.4,5.2,6.5c5.4,6.7,13.5-.1,20.1-.2,3.7,0,6.9,1.6,10,3.6a21.2,21.2,0,0,1,6.7,6.3c3.2,5,4.2,11,4.8,16.8s.9,12.2,2.4,18.1c.4,1.3.8,2.7,1.3,4s2.4.7,2-.5Z" fill="#acb56e"/>
      <path d="M726.2,586c5.5,1.6,11.5,1.2,17.1.8a34.3,34.3,0,0,0,8.5-1.3c2.8-1,5.8-2.1,8.7-1.6,4.8,1,8.1,5.3,12,7.8a36.5,36.5,0,0,0,7.2,3.4,49.8,49.8,0,0,0,8.5,2.8c5.5,1.1,10.6-.5,15.8-2.2a28.8,28.8,0,0,1,7-1.8,22.9,22.9,0,0,1,8.6,1.1,15.6,15.6,0,0,0,6.4.7c2.4-.4,4.6-1.6,6.8-2.4a48,48,0,0,1,8.3-2.9,49.3,49.3,0,0,1,8.6-1c5-.3,10.1-.7,15.2-.7s10.3-.1,14.5,2.2c1.1.6,2.2-1.1,1-1.7-3.7-2-8.3-2.3-12.4-2.5a144.4,144.4,0,0,0-14.7.5c-5,.3-10,.5-14.9,1.9a67.2,67.2,0,0,0-8.5,3.2,13.6,13.6,0,0,1-5.9,1.5c-2.7-.1-5.4-1.3-8.1-1.7a22.2,22.2,0,0,0-7.7.2c-5,1.1-9.7,3.6-14.9,4s-11.6-2.5-16.8-4.7-7.8-6.1-12.2-8.4a11.7,11.7,0,0,0-8.2-1.1c-3.3.7-6.4,2.3-9.8,2.5-6.4.5-13.3,1.3-19.6-.5a1,1,0,1,0-.5,1.9Z" fill="#acb56e"/>
      <path d="M866.5,583.8c10.5.3,20.5,3.6,30.5,6.3,5.2,1.4,10.4,2.3,15.6,3.3a94.4,94.4,0,0,1,13.1,3.9c4.1,1.4,8.8,2.9,13.1,1.5,1.2-.4.7-2.3-.5-1.9-3.9,1.2-8.2-.3-11.8-1.5a113.8,113.8,0,0,0-12.6-3.8c-5.2-1-10.4-1.8-15.4-3.2s-10-2.8-15-4a81.3,81.3,0,0,0-17-2.6,1,1,0,0,0,0,2Z" fill="#acb56e"/>
      <path d="M865.4,571c10.5,0,20.1,3.9,30.1,6.6a70.7,70.7,0,0,0,15.2,2.3c5.8.3,11.6.4,17.5.4H948c1.3.1,1.3-1.9,0-2-11.7-.2-23.5,0-35.2-.4a75.1,75.1,0,0,1-15.7-2.1c-4.9-1.3-9.6-2.9-14.4-4.2a63.7,63.7,0,0,0-17.3-2.7,1,1,0,0,0,0,2Z" fill="#acb56e"/>
      <path d="M672.6,517.9a30.6,30.6,0,0,0,12.4,1.2c4.4-.2,8.8-.6,13.3-.7l14.4-.5c4.7-.2,9.4-.6,14.1-.6a48.9,48.9,0,0,0,6.6-.5,19.1,19.1,0,0,0,5.2-1.9,32.2,32.2,0,0,1,5.3-2.5,31.2,31.2,0,0,1,5.3-1.1,27,27,0,0,0,9.3-2.7c3.2-1.9,6.1-4.7,9.9-5.5s9.2.6,13.3,2a20.4,20.4,0,0,1,5.5,2.8c1.7,1.2,3.3,2.6,5.1,3.8s2.1-1.1,1-1.8c-3-1.9-5.6-4.6-9.1-6a45,45,0,0,0-11.3-3,16.4,16.4,0,0,0-10.6,2.7c-3.2,2-6,4.3-9.7,5.1s-6.8.8-10.1,2.1-6.8,3.8-10.9,4.2c-2.2.3-4.5.2-6.7.3l-7.2.4-14.4.5c-5.3.2-10.5.3-15.7.7s-9.8.7-14.5-.9c-1.2-.5-1.7,1.5-.5,1.9Z" fill="#acb56e"/>
      <path d="M798.2,524.7c1.2-2.6,1.6-5.5,2.7-8.1s3.9-3.9,6.9-4.6,6.6-1.6,9.8-2.8a95.9,95.9,0,0,0,9.8-4.1l9.8-5c3-1.6,6.2-2.9,9-4.9,4.7-3.3,8.2-7.9,12.4-11.9a23.8,23.8,0,0,1,16.7-7.6c7.1-.7,14.3-.2,21.4-.2s15.6-1.9,23.4-1.7c3.1.1,6.2.8,9.4.4s4.7-2.1,6.5-4.1,4.3-4.6,7.7-5.5a83.3,83.3,0,0,1,9.8-1.6,75.7,75.7,0,0,0,11.7-2.3,87.7,87.7,0,0,0,9.9-4.4,197.7,197.7,0,0,0,36.9-23.6c6-4.8,11.7-9.8,17.9-14.2,2.7-1.9,5.7-3.6,7.7-6.2s2.4-4.7,4.5-6.5c4.2-3.9,11-3.7,16.3-3.8a155.1,155.1,0,0,0,21.6-2.3,84.9,84.9,0,0,0,19.3-5.3,128.8,128.8,0,0,0,17.1-9.3c11-6.9,21.6-14.7,33.6-19.7a62.7,62.7,0,0,1,9.2-3.2,1,1,0,1,0-.5-1.9c-25.5,6.9-43.9,28.6-69.4,35.5a139,139,0,0,1-23.1,3.7c-6,.6-12.2.1-18.1,1.3a16.7,16.7,0,0,0-6.9,3.1c-2.1,1.7-3.1,4-4.5,6.2s-5.4,5-8.3,7-6,4.3-8.8,6.7c-11.4,9.8-23.4,18.8-36.5,26.1-6.6,3.7-13.7,7.7-21,9.6-3.7.9-7.6,1.3-11.4,1.9s-6.5.7-9.4,1.9-4.7,3.2-6.7,5.4a13.4,13.4,0,0,1-3.4,2.9,9.7,9.7,0,0,1-4.8.7c-3.4-.1-6.6-.6-10-.3s-8.3.9-12.4,1.2c-7.4.7-14.8,0-22.2.2s-13.3.6-18.8,3.9-8.4,7.4-12.3,11.3a32.3,32.3,0,0,1-7,5.8c-3.1,1.9-6.5,3.4-9.7,5.1-6.7,3.5-13.4,6.9-20.6,9-5.2,1.5-11.8,1.7-14.3,7.3-1.1,2.6-1.5,5.4-2.7,7.9s1.2,2.2,1.8,1Z" fill="#acb56e"/>
      <path d="M765.8,525.2c6.8-2,12.8-5.7,19-9a68.6,68.6,0,0,1,9.5-4.5c2.9-1,6-1.7,8.9-2.7a19,19,0,0,0,7.3-4.5,38.8,38.8,0,0,0,4.9-7.3c1.6-2.7,3.2-5.3,5.7-7.3a56.4,56.4,0,0,1,7.7-5c11.3-5.8,23.8-8.5,35.3-13.7,3.3-1.4,6.6-2.6,10.2-2.4s7.4,1,11.2,1.1a134.5,134.5,0,0,0,22-.5,40.9,40.9,0,0,0,9.8-2.2c2.9-1.3,5.6-3,8.4-4.6,6.7-3.6,14.3-4.2,21.7-5.3,13.4-2,25.6-7.3,37-14.6s21.2-15.9,31.5-24.3c5.5-4.5,11.7-8.6,16.6-13.8a16.2,16.2,0,0,1,8.6-5.1c3-.8,6.2-1.1,9.3-1.7a34.4,34.4,0,0,0,9-3.2,65.5,65.5,0,0,1,10.5-3.7c7-2,14.2-3.5,21.2-5.4s14.3-2.4,21.2-4.6,11.6-5,16.8-8.2a51.7,51.7,0,0,0,6.6-4.6c1-.9-.5-2.3-1.4-1.5-4.5,4-10.2,6.8-15.5,9.5s-13.2,4.4-20.2,5.7-14,3.3-21,5-13.7,3.4-20,6.5-12.7,2.7-18.9,4.8a17.6,17.6,0,0,0-7.4,4.8c-1.1,1.2-2.2,2.4-3.4,3.5s-3.1,2.3-4.6,3.5c-10.8,8.4-20.9,17.5-32,25.5s-22.6,15-35.8,18.3c-7,1.8-14.3,2.2-21.4,3.7a35.5,35.5,0,0,0-9.4,3.5c-2.9,1.6-5.7,3.5-8.9,4.7-6.8,2.5-14.6,2.4-21.8,2.4-3.6,0-7.3.1-10.9-.2s-7.1-1.2-10.6-1a26.4,26.4,0,0,0-9.1,2.6,92.4,92.4,0,0,1-9.2,3.6c-5.9,2-11.8,3.9-17.6,6.2s-11.1,4.8-16,8.5-6.7,9.2-10.3,13.9-10.8,6.1-16.8,8.3-12.3,6.2-18.4,9.3a57,57,0,0,1-9.9,4,1,1,0,0,0,.6,2Z" fill="#acb56e"/>
      <path d="M827.2,883l10.7-6.1a85.5,85.5,0,0,1,10.8-5.7c3.6-1.5,7.4-2.5,11-3.9a53.9,53.9,0,0,0,9.7-5.3,123.8,123.8,0,0,0,10.1-7.8c1-.8-.4-2.2-1.4-1.4a110.5,110.5,0,0,1-11.6,8.8,65.8,65.8,0,0,1-13.3,5.9,55.4,55.4,0,0,0-6.8,2.5,74.5,74.5,0,0,0-6.8,3.6l-13.4,7.7c-1.1.6-.1,2.4,1,1.7Z" fill="#acb56e"/>
      <path d="M840.6,892.3c9.8-6.5,20.9-10.9,30.5-17.8,1-.8.1-2.5-1-1.8-9.6,7-20.7,11.3-30.5,17.9-1.1.7-.1,2.4,1,1.7Z" fill="#acb56e"/>
      <path d="M891.1,875.7l47.2-.2c15.1,0,30.4-.3,45.4.7,7.3.6,14.7,1.4,22,1.4v-2c-14.3,0-28.3,2.7-42.4,4.2a195.2,195.2,0,0,1-21.6,1c-7.1-.1-14.3-.2-21.4-.9-3-.3-6-.8-9-.8s-5.4,0-7.6,1.2a.9.9,0,0,0-.5,1.1c.8,3.4,5.8,4.2,8.7,4.6a87.6,87.6,0,0,0,16.2.8c4.7,0,9.4-.3,14.1-.3a60.7,60.7,0,0,1,8.5.6c5.2.4,10.4.9,15.6,1a122.4,122.4,0,0,0,13.5-.9c3.8-.3,8.4-.7,11.7,1.8l-.4-1.4c-1.2,1.6-3.9,2-5.7,2.3a73.1,73.1,0,0,1-8.1.3l-7.7.3c-4.1.2-8.2.1-12.4-.1-8.3-.5-16.5-1.4-24.8-1.4s-15.6-.5-23.4-1a67.8,67.8,0,0,0-10.1-.3c-3.1.1-6.4.5-9,2.2-.8.5-.5,1.9.5,1.8a82.7,82.7,0,0,1,16.5.9,117.8,117.8,0,0,0,18.8,2.3c6.4.2,12.8,0,19.2-.1s12.8.2,19.2.1,14.1-.4,21.1,1v-2c-3.9.8-7.9.7-11.9.8s-8.3.4-12.4.7c-8.3.7-16.6,1.7-25,2.1s-16.3.5-24.5,1.4a129,129,0,0,0-23,4.9,154,154,0,0,0-23.5,9.5c-1.2.6-.1,2.3,1,1.7,13.7-6.8,28.6-12,43.8-13.9,8.1-1,16.2-1.1,24.3-1.5s16.5-1.3,24.7-2c4.6-.4,9.3-.8,13.9-.9s8.8,0,13.1-.8a1.1,1.1,0,0,0,0-2,98.4,98.4,0,0,0-18.8-1.1c-6.3.1-12.6,0-18.9,0-13,0-26.2.9-39-1.8a89.1,89.1,0,0,0-18.6-1.3l.5,1.9c2.4-1.5,5.4-1.8,8.2-2s6.2.1,9.3.3c7.8.6,15.7,1,23.5,1s16.7.9,25.1,1.5c4.2.2,8.4.3,12.6.1l7.8-.3a55.6,55.6,0,0,0,9.1-.5c2.3-.4,4.8-1.1,6.3-3.1a1,1,0,0,0-.3-1.4c-2.8-2-6.4-2.3-9.7-2.2s-6.9.8-10.4,1c-9.6.5-19-1.1-28.5-1.5-3.9-.2-7.8.2-11.7.3a149.2,149.2,0,0,1-16.4-.3,31,31,0,0,1-7.4-1.3c-1.3-.4-3-1.1-3.3-2.3l-.4,1.1c1.9-1,4.5-.9,6.6-.9a66.6,66.6,0,0,1,7.6.6c7.1.8,14.2,1,21.4,1.1s14-.1,21.1-.8,13.7-1.7,20.6-2.6a187.6,187.6,0,0,1,23.7-1.8,1,1,0,0,0,0-2c-6.6,0-13.2-.7-19.8-1.2s-14.1-.7-21.2-.8c-15.8-.2-31.5-.1-47.3,0H891.1a1,1,0,0,0,0,2Z" fill="#acb56e"/>
      <path d="M944,803.4c1.4-1,3.3-.8,4.9-.5l5.5,1.2a42.1,42.1,0,0,0,6.2.9,54.9,54.9,0,0,0,8.1.4c1.1-.1,1.5-1.8.3-2-3.8-.6-7.8-.7-11.6-1.2s-8.2-.9-10.5-3.7c-.9-1-2.3.4-1.5,1.4,2.5,2.9,7.2,3.6,10.8,4.1s8.2.6,12.3,1.4l.2-2a54.3,54.3,0,0,1-15-1.5c-3.2-.8-7.7-2.4-10.7-.2-1,.7,0,2.4,1,1.7Z" fill="#acb56e"/>
      <path d="M980.6,802.8a161.9,161.9,0,0,0,1.5-25.1l-1.9.5c1.9,3,1.4,6.5,1.9,9.8s1.1,3.3,1.4,5.1a33.3,33.3,0,0,0,.7,5.4,1,1,0,0,0,1.9,0c.7-3.3.7-6.7,1.2-10.1a85.7,85.7,0,0,1,2.8-9.9l-2-.3c0,6.9-.5,13.7-.5,20.6h2a5.5,5.5,0,0,1,.9-3l1.8-3.3c1.3-2.2,2.7-4.3,4-6.4l-1.8-.5c-.1,1.7-1.1,3.2-1.8,4.8a21.4,21.4,0,0,1-2,4.7l1.8.7c.3-.7,1.2-1.3,1.7-1.9s1-1.3,1.6-1.9a38.8,38.8,0,0,1,3.9-4.2c2.7-2.7,5.8-5.6,9.4-6.9l-1-1.7a47.2,47.2,0,0,0-5.9,6.7c-2,2.6-4.2,5.1-6.2,7.6s-3.5,4.5-4.2,7.3a31.2,31.2,0,0,0-.9,8,1,1,0,0,0,2,0,32.7,32.7,0,0,1,.8-7.6c.9-2.8,2.8-5.1,4.6-7.3l5.3-6.6a47.2,47.2,0,0,1,5.9-6.7c.8-.6,0-2-.9-1.7-4,1.5-7.4,4.5-10.4,7.5a38,38,0,0,0-4.2,4.7c-1.1,1.3-2.8,2.6-3.4,4.2s1.2,1.7,1.8.8a25,25,0,0,0,2.3-5.3c.7-1.7,1.7-3.3,1.8-5.2a1,1,0,0,0-1.9-.5c-1.5,2.4-3.1,4.7-4.5,7.2s-2.7,4.2-2.5,6.5a1,1,0,0,0,2,0c0-6.9.5-13.7.5-20.6a1,1,0,0,0-1.9-.3,87.3,87.3,0,0,0-2.8,10c-.5,3.3-.5,6.7-1.2,10.1h1.9c-.4-1.9-.4-3.8-.7-5.7s-1.3-3.5-1.5-5.3c-.3-3.4-.1-6.8-1.9-9.8a1,1,0,0,0-1.9.5,169.1,169.1,0,0,1-1.4,24.6c-.2,1.2,1.7,1.8,1.9.5Z" fill="#4db6c1"/>
      <path d="M948.6,808.4c1.2-4,.2-8.6-1-12.5s-2.9-8.1-5.6-11.2a1.1,1.1,0,0,0-1.6.2c-2.3,3.7-.8,8.5-1.9,12.5l1.5-.6c-2.2-1.1-2.8-4-4.5-5.5s-4.5-1.9-4.9.7,1.4,5,2.5,6.7a15.4,15.4,0,0,1,2.4,5c.5,1.8.6,3.6,1.1,5.4s2.3.7,2-.5c-1-3-.9-6-2.5-8.7s-2.7-4.1-3.3-6.6a1.6,1.6,0,0,1-.2-1c0-.2-.2-.1.2-.1s1.7.9,2.3,1.7,2,3.7,3.9,4.6a1,1,0,0,0,1.5-.6,24.7,24.7,0,0,0,.5-6.1c.1-1.9.1-4.2,1.2-5.9l-1.6.2c2.5,2.9,4,6.8,5.1,10.4s2.1,7.7,1,11.3a1,1,0,0,0,1.9.6Z" fill="#4db6c1"/>
      <path d="M953.2,801.7c4.2-.5,8.8.2,12.8-1.7a1,1,0,0,0,.4-1.3,1.1,1.1,0,0,0-1.4-.4,16,16,0,0,1-5.7,1.1c-2,.1-4.1,0-6.1.3a1,1,0,0,0-1,1,1.1,1.1,0,0,0,1,1Z" fill="#acb56e"/>
      <path d="M1134.8,777.7c9.8,12.4,15.5,27.5,19.6,42.6,2.1,7.6,3.9,15.2,5.6,22.9s3.9,16.3,4.7,24.6c.8,10.2.6,20.5,2.2,30.6.3,1.3,2.2.7,2-.5-1.5-9.3-1.4-18.7-2.1-28a86.3,86.3,0,0,0-1.8-13.4c-.8-3.8-1.7-7.7-2.6-11.5-3.4-15.6-6.9-31.3-13.1-46a95.1,95.1,0,0,0-13.1-22.7c-.7-1-2.2.4-1.4,1.4Z" fill="#acb56e"/>
      <path d="M1170.4,745.2c7.9,17.3,11.9,36.2,14.3,55,1.1,9.4,1.9,18.9,2.5,28.3s1.3,19.6,1.1,29.5c-.2,12.2-1.3,24.5-1.3,36.8a1,1,0,0,0,2,0c0-11,.9-21.9,1.2-32.9s-.2-20.3-.8-30.4c-1.1-19.2-2.9-38.6-7.3-57.3a151,151,0,0,0-10-30c-.5-1.2-2.2-.2-1.7,1Z" fill="#acb56e"/>
      <path d="M1225.5,744.7c0,20.4-1.3,40.9-2.6,61.3s-2.7,40.8-3.3,61.2c-.2,5.7-.2,11.3-.2,16.9l.3,8.4.3,4.3c0,1-.1,2,.9,2.5a1,1,0,0,0,1.2-.1,2,2,0,0,0,.4-.8c0-.1,0-.6-.1-.3.5-1.2-1.2-2.2-1.8-1a2,2,0,0,0-.1,1.3l.3-.7h-.1l1.2-.2h-.1l.3.7c-1.5-19.7-.3-39.6.7-59.3s2.7-40.2,3.7-60.4c.6-11.3,1-22.6,1-33.8a1,1,0,0,0-2,0Z" fill="#acb56e"/>
      <path d="M1264.7,783.8c-6.1,13.1-6.6,27.7-10.1,41.5-1.9,7.5-4.4,14.9-6.3,22.4a202.7,202.7,0,0,0-4.1,23.3,188.4,188.4,0,0,0-1.9,26,1,1,0,0,0,2,0,180.7,180.7,0,0,1,1.5-23.2,226.5,226.5,0,0,1,3.9-23.3c1.7-7.4,4.2-14.6,6.1-21.9s3-14.1,4.3-21.2,3-15.5,6.4-22.6c.5-1.2-1.2-2.2-1.8-1Z" fill="#acb56e"/>
      <path d="M1287,830.1c-4,9.2-8.4,18.2-12,27.5a121.6,121.6,0,0,0-7.4,29.5c-.7,6-1.2,12.1-2.4,18-.3,1.3,1.6,1.8,1.9.6,2.2-10.3,2.2-20.9,4.6-31.2s6-18.8,10-27.8c2.3-5.2,4.8-10.4,7.1-15.6.5-1.2-1.2-2.2-1.8-1Z" fill="#acb56e"/>
      <path d="M1096,871.7a35.5,35.5,0,0,1,7.7,7.3,59,59,0,0,1,4.9,8,170.3,170.3,0,0,0,8.7,14.9,40.5,40.5,0,0,0,2.3,3.4c.5.6,1,1.4,1.7,1.6a1,1,0,0,0,.6-1.9c.4.1,0-.1-.2-.3l-.8-1-2.1-3.2c-1.3-1.9-2.6-3.9-3.8-6-3.2-5.5-5.8-11.5-9.7-16.6a41.9,41.9,0,0,0-8.3-8c-1.1-.7-2.1,1-1,1.8Z" fill="#acb56e"/>
      <path d="M1035.4,932.8c-5.5-8.6-9-19-16.7-26.1l-1,1.7c5.7,2.3,9.9,7.1,13.6,11.7s7.1,9.8,11.5,13.9a1.1,1.1,0,0,0,1.7-.4c1-3,.5-6.3-.2-9.4a64.6,64.6,0,0,0-3.1-9.4l-1.6.9c3.2,3.5,5.6,8.5,10.1,10.7a1,1,0,0,0,1.4-.6c2.5-8,.1-16.8-1.6-24.6s-2.1-16.6-3.8-24.8a40.3,40.3,0,0,0-4.7-13.1c-.7-1.2-2.2-.2-1.7,1a238,238,0,0,1,8.8,22.5c2.5,7.5,4.3,15.1,6.5,22.6a59.2,59.2,0,0,1,2.5,13.2c0,.9,1.4,1.4,1.8.5,3.2-6.7,2.2-14.3,4.5-21.2l-1.9-.3c-.1,8.6,2.7,16.9,2.8,25.4a1,1,0,0,0,1.9.5c2.2-3.9,2.6-8.6,4.9-12.6l-1.6.2c1.6,1.9,1.3,5.3,1.2,7.6s-.3,5.6-.3,8.4c-.1,1.3,1.9,1.3,2,0,0-3.2.4-6.3.4-9.4s-.1-5.9-1.9-8a.9.9,0,0,0-1.5.2c-2.3,4-2.7,8.7-5,12.6l1.9.5c-.1-8.5-2.9-16.8-2.8-25.4a1,1,0,0,0-2-.2c-2.3,6.7-1.3,14.2-4.3,20.7l1.9.5c-.4-8-3.4-15.5-5.3-23.2a178.3,178.3,0,0,0-7.5-23.5c-1.6-4.2-3.4-8.4-5.3-12.6l-1.7,1c4.3,7.1,5.2,15.8,6.2,24,.4,3.8.9,7.6,1.6,11.3s1.8,8.1,2.4,12.1,1.1,9.2-.3,13.5l1.5-.6c-4.3-2.1-6.6-6.9-9.7-10.3a1,1,0,0,0-1.7,1c1,2.9,2.1,5.8,2.9,8.7s1.3,6.1.3,9l1.7-.4c-8.9-8.3-14.1-21.4-26-26.1-.9-.4-1.6,1-.9,1.7,7.5,6.9,10.9,17.1,16.4,25.6.6,1.1,2.4.1,1.7-1Z" fill="#4db6c1"/>
      <path d="M1167,528.2l7.9,21.8,12.5,34.6,2.8,8,1-1.3-19.5,1.8-2.9.2c-1.2.1-1.2,2.1,0,2l19.6-1.8,2.8-.2c.6-.1,1.2-.6.9-1.3l-7.8-21.8-12.5-34.6-2.9-8a1,1,0,0,0-1.9.6Z" fill="#acb56e"/>
      <path d="M926.7,624.8l3.7,5.8a1,1,0,0,0,1.1.4l5.8-.8,15.6-2.3,23.1-3.4,28.2-4.1,30.9-4.5,31.3-4.6,29.1-4.3,24.5-3.6,17.7-2.5c2.8-.5,5.6-.7,8.4-1.3h.3a1,1,0,0,0,.7-.7l7.4-20,11.7-31.7,2.7-7.3h-2l5.9,16.5,9.5,26.4,2.1,6,1-1.2-17.3,1.6c-1.3.1-1.3,2.1,0,2l17.3-1.6a1.1,1.1,0,0,0,1-1.3l-5.9-16.5-9.5-26.4-2.1-6a1,1,0,0,0-2,0l-7.3,19.9L1147.9,591l-2.7,7.3.7-.7-5.8.9-15.6,2.3-23.1,3.4-28.2,4.1-30.9,4.5-31.3,4.6-29.1,4.2-24.5,3.6-17.7,2.6c-2.7.4-5.6.6-8.3,1.2H931l1.1.4-3.7-5.7c-.7-1.1-2.4-.1-1.7,1Z" fill="#acb56e"/>
      <path d="M355.9,435.3c6.2-14.4,12.2-29,18.7-43.3a1,1,0,0,0-1.4-1.4c-8.4,4.8-17.4,7.9-26.5,10.8l1.1,1.5c6.7-11.8,11.6-24.8,16.8-37.3,6.2-14.7,12.1-29.5,18-44.4l3.8-9.8c.3-.7-.5-1.4-1.2-1.2L371,314.3l.9,1.7c8.4-8.1,12.1-21.4,15.8-32,4.9-14,8.8-28.6,15.4-41.9h-1.8c14.5,27.9,26.4,57.3,41.9,84.6l1.1-1.5a157.5,157.5,0,0,1-17.6-5.8c-.9-.4-1.4.7-1.1,1.4,6,13.2,12.1,26.3,18.3,39.4s11.9,24.9,18,37.4l2.4,4.8c.8,1.5,2.6,3.9,2.8,5.6.5,3.7-4.2.9-6.1,0-5.3-2.5-10.3-5.4-15.8-7.4a1,1,0,0,0-1.3,1.2c4.7,14,11.2,27.4,17.3,40.8s13.5,28.8,20.4,43.2l4.5,9.2a1,1,0,0,0,1.7,0c6.1-13.9,12.1-27.9,17.3-42.2,4.1-11.3,8.9-23.6,9.1-35.8a.9.9,0,0,0-1.2-.9c-8.4,3.3-17.2,5.3-25.7,8.2l1.1,1.5c6.9-13,12.6-26.6,18.4-40.1,7.2-16.6,14.2-33.4,20.5-50.5,2.1-5.9,4.5-12,5.6-18.2a1,1,0,0,0-1.6-1c-6.5,5.8-15.3,7.1-23,10.6l1.4,1.3c7.8-13,12.5-28.3,17.5-42.6q9-25.8,16.8-52a133.4,133.4,0,0,0,3.9-14.1c.2-.8-.7-1.7-1.4-1.2-4.9,3.5-11.4,3.6-17.2,3.2l.9,1.5c9.1-13.3,15.2-29,21.6-43.6s11.9-28.8,17.9-43.1h-1.9c11.9,29.3,21.8,59.3,39.7,85.8l.6-1.5c-6.6,1-12.2-.1-18.6-1.7a1,1,0,0,0-1.1,1.5c3.2,5.7,5.5,12.1,7.9,18.2,4.1,10.1,8,20.2,12,30.3,7,17.9,13.5,36.6,22.9,53.4l1.2-1.5c-8.5-1.4-16.3-4.7-24.3-7.7-.7-.3-1.3.5-1.2,1.2,3.5,18,11.5,34.9,17.6,52.2s11.7,33,20.6,48a1,1,0,0,0,1.8,0c2.8-4.4,3.1-9.7,5.1-14.5l-1.9.3c2.6,3.7,3.5,8,4.5,12.2a92.9,92.9,0,0,0,4.3,12.9c3.8,9.3,8.1,18.4,11.8,27.7a1,1,0,0,0,1.8.2c2.6-4.1,2.3-9.1,4.5-13.3h-1.8a84.9,84.9,0,0,1,6,11.6,1,1,0,0,0,1.4.4c3-2.1,4.2-5.7,5.1-9.1s2.1-8.9,3.4-13.3.9-5.9-2.4-7.4-2-.4-1.3-2.3a16.8,16.8,0,0,1,2-3.4c1.7-2.8,17.9-25.8,9.8-27.3l.7,1.3c1.5-5,3.1-10,4.9-14.9s3.8-9.1,4.4-14c.1-.6-.2-1.3-.9-1.2h-3.7l1,1.3c2.2-5.5,2.8-11.3,4.4-16.9s4.6-11.3,6.6-17l-1.9.2c2.8,5.4,3.5,11.5,6.2,16.9s6.6,10.1,7.6,16.1l1-1.3c-1.6,0-3.2.2-4.8.1s-1.2.9-.8,1.5c4.4,7,7.7,16.2,7.9,24.6l1-1a11.3,11.3,0,0,0-6.5,1.4,1.1,1.1,0,0,0-.3,1.4c3.8,6.8,8.3,13.2,10.5,20.8a1,1,0,0,0,1.7.4c5.3-5.3,7.8-14.8,9-22.1a1,1,0,0,0-1-1.2c-1.6.1-3.1-.2-4.7-.1l.9,1.3c1.9-7.7,5-15,6.6-22.7,1.1-5.8,1.7-14,6.3-18.2l-1.7-.4a98.8,98.8,0,0,0,5.4,21.4c2.2,6,6.3,11.3,8,17.6l1-1.3-3.8.2c-.6,0-1.2.6-.9,1.2,1.8,5.4,3,11,4.3,16.5a1,1,0,0,0,1.9.2c2.6-4.4,6.7-8,8.7-12.8,1-2.3,1.4-7.4,3.3-9a1,1,0,0,0-.7-1.7c-6.2.8-.9-8.2.2-11,2.2-5.8,4.9-12,5.3-18.2a1.1,1.1,0,0,0-1-1c-1.5.1-2.9-.2-4.4-.1l.9,1.5a112.9,112.9,0,0,0,9.9-26.9,1,1,0,0,0-1.2-1.2l-6.2.8.9,1.5a162.3,162.3,0,0,0,8.3-18.6c2.4-5.9,6.1-11.9,6.8-18.4h-2c.2,6.7,4,12.4,6.9,18.2s4.1,14,8.1,20l.6-1.5a17.9,17.9,0,0,1-6.1.7,1.1,1.1,0,0,0-1,.8c-1.3,8.9,5.2,20.1,10.4,26.9l.6-1.5a53.8,53.8,0,0,0-6.9,1.8,1.2,1.2,0,0,0-.8,1c-.4,4.1,1.9,7.5,3.8,11a75.9,75.9,0,0,1,3.7,8.2c.6,1.7,3.6,7.3,2.2,9s-4.5.2-5.4,2.5.9,3.4,1.9,4.6c2.7,3.5,7.4,11.7,12.7,8s6.1-7.9,7.8-11.9a55.9,55.9,0,0,0,4.1-14.5,1,1,0,0,0-.7-1.2,7.1,7.1,0,0,1-3.6-1.7l.3,1.4c8.8-13.9,14.2-29.6,18.6-45.3a1,1,0,0,0-1-1.3c-2.9,0-5.8.5-8.7.4l.7,1.7c4.6-5.2,5.9-12.1,7.3-18.6a42.2,42.2,0,0,1,3.4-10.4c1.5-2.8,3.3-5.6,3.3-8.9.1-.6-.4-1-1-1l-5.4-.2,1,1c.7-6.3,5.7-11.4,8.1-17.2s5.2-13.9,7.8-20.9a1.1,1.1,0,0,0-1-1.3c-1.8.1-3.5-.1-5.3-.1l.9,1.2c2.5-6.3,6.2-12,9.5-17.9s4.4-11.9,7.5-17.4l-1.8-.3a163.6,163.6,0,0,0,6.1,18.3c2,5.2,5.6,10.4,6.4,16l1-1c-5.3,0-4,5.3-2.8,8.8,3,7.9,5.8,15.7,7.2,24.2l.7-1.2c-5.3,1.1-4.6,6.2-3.3,10.4,2.5,7.7,6,15,9.5,22.3l.6-1.5c-9.7,2.5-3.3,8.9.1,14.3a1.1,1.1,0,0,0,1.9-.2c1-3.9,3.2-7.1,4.8-10.7s2.7-7.5,4.3-11.1a1,1,0,0,0-.5-1.5c-2.4-.7-5.5-1.2-4.7-4.1s1.8-3.3,2.4-4.9c2.3-5.3,2.5-11.2,4.9-16.5.2-.5.1-1.3-.6-1.4-4.5-.8.5-9.6,1.3-11.8,1.9-5.7,2.5-11.5,5.6-16.8a1,1,0,0,0-.8-1.5,28.3,28.3,0,0,1-4.2-.7l.7,1.2c2.2-10,9.3-18,9.5-28.5a1.1,1.1,0,0,0-.8-1c-1.3-.3-2.5-1-3.8-1.3l.7,1.2c3.2-11.1,7.3-22.3,14.1-31.7l-1.6.2c3.4,3.4,3.4,10.2,4.9,14.7s4,10.9,6.1,16.4l1-1.3a17.6,17.6,0,0,0-5.6.7,1,1,0,0,0-.7,1.2c1.7,9.5,6.3,18,8.7,27.3l.7-1.2a22.6,22.6,0,0,0-5.2,1.7,1.1,1.1,0,0,0-.2,1.6c4,4.3,5.3,10.4,6.9,15.9.8,2.6,2.1,5.4,1.3,8.1s-1.3,2.4-1.7,3.7c-1.1,4.3,1.6,9.2,3.1,13s2.5,5.9,3.7,8.9-.6,4.6-2.9,7a1,1,0,0,0,.2,1.6c4.4,2.4,5.9,9.4,7.7,13.7s4.5,9.6,7.9,13.4a.9.9,0,0,0,1.5-.2c4.4-6.7,7.4-14.1,11.8-20.7s8.7-11.3,11.3-18a.9.9,0,0,0-.4-1.1,12.1,12.1,0,0,0-5.4-1.9l.8,1.5c2.5-4.3,22-30.3,8.1-30.5l1,1.2c2.4-8.4,6.6-16,9.9-24,1.8-4.3,4.7-9.1,5.5-13.7a1,1,0,0,0-.9-1.3l-4.9-.2,1,1.3c.7-4.4,3.4-7.8,5.3-11.7a38.4,38.4,0,0,0,3.3-9.9,59.3,59.3,0,0,1,3.7-11.5c1.2-2.5,2.3-4.8,2.5-7.6a1,1,0,0,0-1-1c-1.6-.2-3.5-.7-5-.3l1.3,1c1-11.6,6.4-22.4,9.2-33.6,1.4-5.2,2.6-10.5,4.4-15.6.5-1.4,2.2-7.3,3.9-7.6s2.2,2.2,2.7,3.5c1.9,5.4,2.4,11.3,3.5,16.9a152.9,152.9,0,0,0,4,15.5c1.6,5.4,5.2,11.2,4.7,17l1-1a28.3,28.3,0,0,0-4,.8.9.9,0,0,0-.7,1.2c1,5.4,4.1,10.1,4.5,15.7.3,3.5.1,5.9,2.9,8.5a1.1,1.1,0,0,0,1.6-.2c4.1-8.7,6.6-17.9,9.2-27.2,1.3-4.7,2.7-9.4,3.6-14.2s.4-7.7,2.3-10.7c.7-1-.8-2.1-1.5-1.2a13.4,13.4,0,0,1-5.8,3.8l1.2,1.3c5.2-15.8,12.5-30.7,19.2-45.9H1089a171.2,171.2,0,0,1,15.1,41.8l1.3-1.3-2.9-1a1,1,0,0,0-1.2,1.2c4.3,14.5,8.4,29,12.2,43.7l.7-1.3c-2.7.6-4,.3-4,3s1.2,5.2,1.9,7.5a175.6,175.6,0,0,0,7.6,19.8c2.7,6.3,5.6,12.5,8.1,18.9,1,2.5,1.7,5.8,3.1,8s.7,1.4,1.6,1.4,4.8-5.5,5.9-7c3.1-4.6,5.6-9.2,6.8-14.6a1,1,0,0,0-1.5-1.1,12,12,0,0,1-4.9,1.4l.2,2c3.6-1.2,4.5-9.1,5.4-12.1a130,130,0,0,1,5.5-13.4c2-4.2,4.2-8.2,4.3-13a1,1,0,0,0-1.5-.8l-6,2.9,1,1.8c2-1.5,2.5-4.1,3-6.4,1.1-4.4,2.8-8.6,4.3-12.9,3.9-11,7.8-22.1,12.5-32.9.4-.9-.4-2-1.4-1.4l-6.3,3.5,1.3,1.4c9.1-20.4,15.5-41.7,22.8-62.7h-2c1.2,5.5,4,10.2,6.1,15.4s3.3,11.1,5.3,16.5a107.5,107.5,0,0,0,6.6,14.2c2.8,5,7.3,9.8,7.7,15.7l1.5-.9a13.5,13.5,0,0,0-7.4-1.7,1,1,0,0,0-.9,1.3c3,7.3,7.2,14.1,10.3,21.5s6.2,14.3,9.4,21.3l1.2-1.4a26.9,26.9,0,0,0-4.6-1.4.9.9,0,0,0-1.1.4c-.7,1.2.3,3.4.7,4.7a46.7,46.7,0,0,0,3.1,8.6c4.5,9.9,8.1,20.4,13.5,29.9l1.8-1a13.4,13.4,0,0,0-7.9-5.5.9.9,0,0,0-1.2.7c-1.2,5.2,3,11.1,4.8,15.8,3.9,10.2,7.5,20.4,11.4,30.6l1.3-1.2a48.3,48.3,0,0,1-9.7-4.7c-.9-.6-2.1.9-1.2,1.6,2.7,2.3,3.8,6.5,5.2,9.7s3.7,7.4,5.4,11.3c4.4,9.6,7.3,19.7,10.9,29.6a1,1,0,0,0,1.9-.6c-3.6-10-6.6-20.3-11-30.1-2.1-4.4-4.4-8.7-6.3-13.3-1.2-2.8-2.3-6-4.7-8l-1.2,1.6a46.8,46.8,0,0,0,10.1,4.8,1.1,1.1,0,0,0,1.3-1.2c-3.6-9.1-7.1-18.2-10.3-27.4-1-2.5-1.9-5-3-7.6s-3.7-7.1-3-10.4l-1.2.7a11,11,0,0,1,6.6,4.6c.8,1,2.4.1,1.8-1-4.8-8.3-7.8-17.4-11.8-26.1-1.5-3.3-3.2-6.4-4.1-9.9a25.4,25.4,0,0,1-1-3.7l-.2-.7q-.3-1.2,0-.3l3.1,1.4c.9.3,1.5-.8,1.2-1.5-3.5-7.4-6.7-14.9-9.9-22.4s-6.9-13.1-9.7-20l-1,1.3a10.7,10.7,0,0,1,6.3,1.5,1.1,1.1,0,0,0,1.6-.9c-.3-4.5-2.5-7.9-4.9-11.6a105.4,105.4,0,0,1-8.6-16.7c-2.4-5.8-3.7-12-5.9-17.8s-5.1-10.5-6.3-16.2a1.1,1.1,0,0,0-2,0c-7.1,20.8-13.5,42-22.5,62.2a1,1,0,0,0,1.4,1.3c2.1-1.1,4.2-2.2,6.3-3.5l-1.3-1.3c-4,9.1-7.4,18.4-10.8,27.8-1.7,4.8-3.5,9.6-5.1,14.4-.8,2.5-1,7.5-3.2,9.2a1,1,0,0,0,1,1.8l6-3-1.5-.9c-.1,5.2-2.9,9.6-5,14.2a100.1,100.1,0,0,0-4.4,10.7c-.8,2.3-1.9,10.9-4.3,11.7s-.9,2,.3,1.9a17.4,17.4,0,0,0,5.9-1.7l-1.5-1.2a36.4,36.4,0,0,1-5.3,12.3l-3.3,4.8c-1.7,2.5-2.3,1.6-3.3-1-3.2-8.4-7-16.5-10.6-24.7-2-4.7-3.9-9.4-5.5-14.3-.8-2.3-1.5-4.6-2.2-6.9a10.8,10.8,0,0,1-.7-3.1c0-1.9.1-1,2.5-1.5a1.2,1.2,0,0,0,.7-1.3c-3.9-14.6-8-29.1-12.3-43.6l-1.2,1.2,2.8,1.1a1.1,1.1,0,0,0,1.3-1.3,172.3,172.3,0,0,0-15.4-42.2,1,1,0,0,0-1.7,0c-6.8,15.3-14.1,30.4-19.4,46.3a1.1,1.1,0,0,0,1.2,1.3,16,16,0,0,0,6.7-4.4l-1.6-1.2c-1.5,2.4-1.7,5.3-2,8.1a100.7,100.7,0,0,1-3.3,14.2c-2.7,10-5.4,20.3-9.9,29.8l1.6-.2c-3.1-3-1.9-7.6-2.9-11.4s-3.2-7.7-4-11.9l-.7,1.2,3.5-.7a1.1,1.1,0,0,0,1-1c.6-6.3-3.3-12.4-5-18.3a123.2,123.2,0,0,1-4.1-16.7,111.1,111.1,0,0,0-2.2-11.5c-.6-2.5-1.4-6.2-3.5-8.1-5.8-5.1-10,15.3-10.8,18.4-1.7,6.6-3.4,13.2-5.6,19.6s-4.6,13.4-5.2,20.5a1,1,0,0,0,1.2,1c1.3-.4,3.2.1,4.5.3l-1-1c-.2,3.7-2.6,6.8-3.9,10.2s-1.7,6.6-2.5,9.9c-1.8,7.2-7.1,12.9-8.4,20.1a1,1,0,0,0,1,1.2l4.9.2-1-1.3c-.9,4.6-3.7,9.5-5.5,13.8-3.3,8-7.5,15.6-10,24a1.1,1.1,0,0,0,1,1.3c7,.1.1,11.5-1.5,14.3-2.6,4.5-5.7,8.7-8.3,13.2a1,1,0,0,0,.9,1.5c5,.4,3,2.8,1.4,5.6s-1.6,2.6-2.4,3.8c-2.1,3.1-4.5,6.1-6.6,9.2-4.2,6.4-7.2,13.6-11.4,20.1l1.6-.2c-4.3-4.8-6.8-11.3-9.3-17.3-1.5-3.6-3.1-8.1-6.7-10.1l.2,1.6c3.7-3.9,5-5,2.9-10.3s-8.1-14.7-5.5-21.2c1.8-4.5.9-7.1-.5-11.8s-3.1-11.8-7.3-16.2l-.2,1.5a21.4,21.4,0,0,1,4.7-1.5,1.1,1.1,0,0,0,.7-1.2c-2.4-9.3-7-17.9-8.7-27.3l-.7,1.2a17.4,17.4,0,0,1,5.1-.6.9.9,0,0,0,.9-1.2c-2.4-6.5-5.2-12.9-7.1-19.6-1.2-4.3-1.1-9.1-4.4-12.4a.9.9,0,0,0-1.5.2c-6.9,9.5-11.1,21-14.4,32.2a1,1,0,0,0,.7,1.2c3.8.8,3.4,2.3,2.6,5.7a43.1,43.1,0,0,1-3.2,8.7c-2.2,4.6-4.5,9-5.6,14a1,1,0,0,0,.7,1.2,24.3,24.3,0,0,0,4.7.8l-.9-1.5c-3.9,6.5-4.8,14.4-7.5,21.4-1.3,3.3-3.4,9.2,1.8,10.1l-.6-1.5c-1.9,4.1-2.6,8.5-3.7,12.8s-2.6,5.8-3.7,8.9,2.3,5.7,5.9,6.7l-.6-1.4c-1.7,3.7-2.9,7.6-4.5,11.4s-3.8,6.9-4.9,10.8l1.9-.2c-1.2-1.8-2.6-3.5-3.8-5.3s-1.9-4.9,2.4-6a1,1,0,0,0,.6-1.5c-2.7-5.7-5.2-11.2-7.5-17.1-1.2-3.3-5.6-11.5.2-12.7a1,1,0,0,0,.7-1.2,97.7,97.7,0,0,0-4.8-18.4c-.7-1.9-6.2-12.1-1.6-12.1a1.2,1.2,0,0,0,1-1c-.8-5.4-3.9-10-5.9-15a164.5,164.5,0,0,1-6.7-19.8,1,1,0,0,0-1.8-.2c-3.3,5.9-4.9,12.6-8.2,18.6s-6.7,11.2-9,17.2a1.1,1.1,0,0,0,1,1.3c1.8,0,3.5.2,5.3.1l-1-1.2c-2.8,7.7-5.1,16-8.8,23.4-2.6,5.1-6.4,9.4-7.1,15.2-.1.5.5,1,1,1l5.4.2-1-1c0,3.9-2.9,7.1-4.4,10.7a39,39,0,0,0-1.9,6.9c-1.5,6.5-2.5,13.7-7.1,18.9a1,1,0,0,0,.7,1.7c2.9.1,5.8-.4,8.7-.4l-1-1.3c-4.3,15.6-9.6,31.1-18.3,44.9a1,1,0,0,0,.4,1.4,8.9,8.9,0,0,0,4.1,1.8l-.7-1.2a50.2,50.2,0,0,1-3.2,12.1c-1.5,3.9-3.9,10.2-7.4,12.8s-6.7-2.5-8.8-5.1-3.5-3-2.6-4.6,3.2-1.4,4.7-1.7a1,1,0,0,0,.7-1c-.7-5.8-3.1-11.5-5.6-16.7-1.1-2.4-2.6-4.5-3.7-6.9s-1.8-3.6-.4-4.9,4.4-.9,5.6-1.2a1,1,0,0,0,.6-1.5,64.8,64.8,0,0,1-7.8-14.1,40.5,40.5,0,0,1-2.3-7.5c-.1-1.2-.6-2.4.6-3s3.9-.5,5-.8a1,1,0,0,0,.6-1.5c-3.5-5.3-4.3-11.8-6.9-17.5s-7.5-12.5-7.8-19.7a1,1,0,0,0-2,0c-.7,6.1-4.4,12.2-6.7,17.9a147.4,147.4,0,0,1-8.2,18.1,1,1,0,0,0,.9,1.5c2.2-.3,4.5-.5,6.7-.9l-1.2-1.2a113.1,113.1,0,0,1-9.7,26.4,1,1,0,0,0,.8,1.5c1.5-.1,2.9.2,4.4.1l-1-1c-.5,8.1-4.8,15.7-7.5,23.1-1.5,4.2-1.6,8.8,4,8.1l-.7-1.7c-1.8,1.5-2.5,5.9-3.2,8-1.9,5.4-6.3,9.4-9.2,14.2l1.9.3c-1.4-5.5-2.6-11.1-4.4-16.5l-1,1.3,3.8-.2a1,1,0,0,0,.9-1.3c-1.7-6.2-5.7-11.5-8-17.5a104.9,104.9,0,0,1-5.4-21.4c-.1-.8-1.2-.9-1.6-.5-4.5,4.1-5.3,11.3-6.4,16.8-1.7,8.5-4.9,16.6-7,25a1,1,0,0,0,1,1.2c1.6-.1,3.1.2,4.7.1l-.9-1.3c-1.1,7-3.4,16.1-8.5,21.2l1.6.4c-2.2-7.7-6.8-14.3-10.7-21.2l-.4,1.4a9.1,9.1,0,0,1,5.5-1.2,1.1,1.1,0,0,0,1-1c-.2-8.8-3.6-18.3-8.2-25.6l-.9,1.5c1.6.1,3.2-.1,4.8-.1s1-.6.9-1.2c-.9-5.8-4.6-10.4-7.2-15.4s-3.7-12.4-6.7-18.1a1.1,1.1,0,0,0-1.9.2c-1.9,5.8-4.8,11.3-6.5,17.1s-2.2,11.4-4.4,16.9c-.3.5.3,1.3.9,1.2h3.7l-1-1.3c-.7,4.9-2.8,9.4-4.5,14s-3.3,9.9-4.9,14.8a1.1,1.1,0,0,0,.7,1.3c3.9.7-11,24.3-12.5,27-.5.8-1.6,2.2-1.5,3.2s2.9,1.7,4.1,3-1.4,10.6-2,13.6-1.5,9.7-5.1,12.2l1.3.4a97.2,97.2,0,0,0-5.9-11.6,1.1,1.1,0,0,0-1.8,0c-2.1,4.2-1.9,9.3-4.4,13.3l1.8.3c-3.9-9.9-8.5-19.4-12.4-29.3a91.8,91.8,0,0,1-3.9-12.6c-1-4.1-2-8-4.4-11.4a1.1,1.1,0,0,0-1.9.2c-1.9,4.6-2.2,9.8-4.9,14h1.8c-9.2-15.4-15.1-32.3-21-49.1s-13.7-33.1-17.1-50.6l-1.2,1.2c7.9,3,15.8,6.3,24.2,7.7A1,1,0,0,0,633,321c-9.8-17.2-16.3-36.6-23.6-54.9-3.9-10-7.8-20-11.8-29.9-2.3-5.7-4.4-11.7-7.5-17.1l-1.1,1.5c6.7,1.6,12.6,2.6,19.6,1.6a1,1,0,0,0,.6-1.4c-17.8-26.3-27.6-56.2-39.5-85.3a1,1,0,0,0-1.9,0c-6.1,14.5-12,29.2-18.2,43.6s-12.2,29.6-21.1,42.6c-.5.6.1,1.4.8,1.5,6.1.4,13,.2,18.2-3.4l-1.5-1.2c-2.3,11.5-6.5,22.8-10,33.8-5.7,18-11.6,36-18.5,53.6-2.8,7.1-5.6,14.4-9.5,20.9-.6,1,.5,1.8,1.4,1.4,7.9-3.6,16.6-4.9,23.3-10.9l-1.7-1c-2.3,13.2-8.5,26.3-13.5,38.6-7,17.3-14.3,34.5-22.1,51.5-2.8,6.1-5.6,12.3-8.7,18.3a1,1,0,0,0,1.1,1.4c8.6-2.8,17.3-4.9,25.7-8.2l-1.3-1c-.2,12-5,24.2-9,35.3-5.2,14.1-11.1,27.9-17.1,41.7h1.7c-11.6-23.7-23-47.4-33.5-71.6-3-6.9-6-13.9-8.4-21.1l-1.3,1.2c6.3,2.4,11.9,6,18.1,8.5,2.6,1,5.4,1.9,7.3-.6a.8.8,0,0,0,0-1q-22-44.4-42.7-89.6l-1.1,1.5a181.7,181.7,0,0,0,17.6,5.9,1,1,0,0,0,1.1-1.5c-15.5-27.3-27.4-56.7-41.8-84.6a1.1,1.1,0,0,0-1.8,0c-6,12.4-9.9,25.8-14.3,38.8-2.4,7-4.8,13.9-7.8,20.7-2.3,4.9-4.7,10.2-8.7,14a1,1,0,0,0,1,1.7l14.2-4.2-1.2-1.2c-9.6,24.5-19.3,49.1-29.9,73.3-2.7,5.9-5.3,12-8.5,17.7a1,1,0,0,0,1.1,1.4c9.3-2.9,18.5-6.1,27-10.9l-1.3-1.4c-6.6,14.3-12.5,28.9-18.7,43.3-.5,1.2,1.2,2.2,1.7,1Z" fill="#4db6c1"/>
      <path d="M47.6,904.5a234.6,234.6,0,0,1,45.2-16.3c15.3-3.9,30.3-5.3,46-5.5a203.1,203.1,0,0,0,22.1-1c7.1-.8,13.6-2.7,20.4-4.7,14.7-4.4,29.6-8.3,44.6-11.7,61-13.9,123-19.1,185.3-22.4,30.2-1.7,60.7-4,89.8-12.6,7.5-2.2,14.8-4.6,22.6-6a188.1,188.1,0,0,1,23.8-2.4c14.9-.7,29.8-1.1,44.6-3.1,16.5-2.3,33.2-2.9,49.8-4.4s30.6-4.1,45.9-6.6,29-4.9,43.7-6.5c11-1.1,23.6-2.3,32.9-8.8a45,45,0,0,0,5.2-4.6c3.3-2.9,6.7-4.1,10.9-5.1a93.4,93.4,0,0,0,19.7-7.3c6.8-3.3,13.5-6.8,20.2-10.4a58.8,58.8,0,0,1,9.1-4.4c3.8-1.4,7.5-1.4,11.4-2,6.8-.9,13.2-3.8,19.9-5.1,8.5-1.7,17.2-3,25.8-3.9,14-1.4,28.1-.4,42.1-2a74,74,0,0,0,18.6-4.3c1.1-.5.6-2.4-.6-1.9-13.4,5.2-28,5-42.2,5.3a243.2,243.2,0,0,0-44.2,4.9c-7.7,1.5-14.8,4.6-22.7,5.4-6,.5-11,2.4-16.3,5.2-13.6,7.2-27,15.2-42.1,18.7-5.9,1.4-9.1,4-13.6,8s-11.3,6.4-17.6,7.9c-12.2,2.7-25,3-37.4,5.1l-48.4,8c-16.5,2.6-33.1,3.3-49.7,4.7s-31.4,3.8-47.2,4.5-29.4.8-43.8,3.5-29.6,8.5-44.8,11.4a416.2,416.2,0,0,1-47.2,5.6c-31.1,2.3-62.1,3.2-93.1,6.3s-60.7,7.1-90.7,13.1q-22.8,4.5-45.3,10.5c-15.1,4-29.9,9.6-45.6,10.7s-28.7-.3-42.9,1.9a226.2,226.2,0,0,0-45,11.9c-6.9,2.6-13.6,5.5-20.3,8.6-1.1.6-.1,2.3,1.1,1.8Z" fill="#acb56e"/>
    </g>
    <g>
      <g>
        <path d="M224.1,694.9s-5.3,12.3-6.4,20.4-7.8,31.8,20.7,43.8,48.3,30.4,55.5,35.2,14.2,3.9,16.5,14.2,6.4,20.4,15,31.3,22.7,31,28.8,36.5,17,1.1,12.6-10.9-20.7-47.4-26.8-68-3.7-19.3-23.8-49.2-41.3-58.8-41.3-58.8Z" fill="#a4c4d5"/>
        <path d="M366.8,865.4c-4.5-12-20.7-47.4-26.8-68s-3.7-19.3-23.8-49.2c-6.1-9-21-30.5-22.5-32.6-20.7,9.8-30.9,32.3-33.2,54.8,3.9,2.4,7.5,4.8,10.8,7.1,10.9,7.5,18.6,14.2,22.6,16.8,7.3,4.7,14.2,3.9,16.5,14.2s6.4,20.4,15,31.3,22.7,31,28.8,36.5S371.2,877.4,366.8,865.4Z" fill="#6e8390"/>
        <path d="M297.5,691.5c1,7,4,18,5,23s-3,37-18,63-22,30-25,36-17,25-30,38-19,27-31,35-27,4-17-10,23-39,26-48,15-22,16-26,4-30,9-40,4-8.5,2.7-10.7-10.5-6.4-9.1-27,18.7-34.6,18.7-34.6Z" fill="#a4c4d5"/>
        <path d="M302.5,714.5c-1-5-4-16-5-23l-20.6-.5c15.2,77.4-38,145-90,199.6a23.6,23.6,0,0,0,11.6-4.1c12-8,18-22,31-35s27-32,30-38,10-10,25-36S303.5,719.5,302.5,714.5Z" fill="#6e8390"/>
        <g>
          <path d="M280.1,552.5c-.2,5.4-6,13.2-6,13.2s24,9.1,27.5,8,3.4-8.5,3.4-8.5Z" fill="#74514b"/>
          <path d="M285.3,560.4c-5.6-4.2-21-17.3-14.5-34.9s14.2-22,30.1-21.2,21.8,6.5,25.7,18.8,5.7,14.9,3.6,31.7c-1.1,9-5.6,19-13.4,19.9S285.3,560.4,285.3,560.4Z" fill="#82625d"/>
          <path d="M326.6,523.1c-2.5-7.7-5.7-12.8-11.7-15.7,9.7,14.4,14.7,32.7,4.1,48.6-5.9,8.3-14.3,10.3-23,10.7,7.3,4,16.5,8.4,20.8,8,7.8-.9,12.3-10.9,13.4-19.9C332.3,538,330.5,535.4,326.6,523.1Z" fill="#74514b"/>
          <path d="M297.7,537.4c-1.2.5-.7-4.3-5.2-4.6s-7.8,2.2-7.5,6.1a25.2,25.2,0,0,0,2.4,8c1.3,2.7-2.5,10-10,8.8-3.3-.6-9.8-4.1-14.5-9.3-8-9.1-6.1-18.6-1.9-26.2S275.5,501,290.6,501s26.5,3.6,30.7,8.9.8,5.6-2,5.3c-11.7-1-9.9,6.3-13.8,9.4s-6.6,3.9-6.3,6.2S300.5,536.1,297.7,537.4Z" fill="#35353e"/>
          <path d="M264.1,506.6c6,4.8,9.7,34.5-.6,41.5s-19.9,4.2-29.3-2.5-14-25.2-5-36.8S252.6,497.4,264.1,506.6Z" fill="#35353e"/>
          <path d="M306.5,501.6a52.4,52.4,0,0,0-7.6-1.5,151.7,151.7,0,0,1-4.1,17.5c-1.9,5.8-5.1,13.3-6.2,15.8a8.2,8.2,0,0,1,3.9-.6,4,4,0,0,1,3,1.3,118.9,118.9,0,0,0,6.8-16.4C304.4,510.5,306.5,501.6,306.5,501.6Z" fill="#facd42"/>
        </g>
        <path d="M265.7,567c3.6-3.9,6.7-7.4,13.2-6.1s19.9,5.4,21.1,9.9a12.2,12.2,0,0,1-.6,7.8,105.6,105.6,0,0,0-21-2.8,122.2,122.2,0,0,0-17.1.3A20.5,20.5,0,0,1,265.7,567Z" fill="#e18d58"/>
        <path d="M235.4,600.9c-5.1,8.9-11.9,28.1-11.9,41.5,0,27.5-5.6,56.9,1.1,57.3s63.6-6.7,69.6-6,7.4-11.5,7.8-21.2-2.6-10.4,3.4-12.3,11.5-8.1,13-14.5,1.7-27.1-6.9-42.3-19.5-21.5-41.6-21.5S240.5,591.9,235.4,600.9Z" fill="#e18d58"/>
        <path d="M311.5,603.4a45.3,45.3,0,0,0-11.3-13.6,140.7,140.7,0,0,1-8.8,35.6c2,19.3,1.8,38.4-16.4,48.6-14.3,8.4-36.3,6.9-53,.3-.4,6.1-.7,11.5-.7,15.8,18.6-.8,37.1,2.2,55.7-.1,0,1.6,0,3.2-.1,4.8,8.7-.8,15.4-1.3,17.3-1.1,5.9.8,7.4-11.5,7.8-21.2s-2.6-10.4,3.4-12.3,11.5-8.1,13-14.5S320.1,618.6,311.5,603.4Z" fill="#99552e"/>
        <path d="M294.4,643.3c-8.9,11.7-20.5,21.2-32,30.4a7.5,7.5,0,0,0-2.4,2.6,2.7,2.7,0,0,0,.8,3.2c1,.5,2.2,0,3.2-.5a89.6,89.6,0,0,0,46.6-60.4c.6-2.6,3.3-11.5,1.4-13.7s-3.2,6.4-3.4,7.6C306.7,623.8,301.3,634.3,294.4,643.3Z" fill="#35353e"/>
        <path d="M431.1,671.4c-6.5-6.1-34.2-36.5-42-41.3s-30.2-23.8-45.4-34.6-19.4-20.5-31.3-23.8-44.2-5.2-55.4,1.1c-5,2.8-22.5,12.5-14.2,18s41.6,10.1,61.4,21.8,27.7,13.4,34.9,17.3,22.3,8.7,29.3,13.1,50.5,34.9,55,37.4,11.2,6.2,14.2,2.8S433.6,673.7,431.1,671.4Z" fill="#e18d58"/>
        <path d="M310.8,571.6a14.7,14.7,0,0,0-2.8-1.8,17.3,17.3,0,0,0-3.2-1.1c-8-2.2-25.3-4.8-30.7-3.7s-17.7,14.3-18.2,15.2,7.2,8.2,9.8,4.7,14-14.9,21.6-14.9c3.9,0,7.8-.8,11.7-.4A93.8,93.8,0,0,1,310.8,571.6Z" fill="#35353e"/>
        <path d="M256.6,561.9a9.4,9.4,0,0,1,2.9-.6,23.5,23.5,0,0,1,7.9.6c.7.1,1.9.5,1.5,1.5a2.3,2.3,0,0,1-.7,1,30.5,30.5,0,0,1-5.9,4.7c-2.9,1.6-6.7,1.2-9.7.1a2.6,2.6,0,0,1-1.5-.9c-.8-1.5,1.8-4,2.8-4.9A11.7,11.7,0,0,1,256.6,561.9Z" fill="#35353e"/>
        <path d="M211.2,686.7c2.2,1.1,50.2-.8,51.4-2.6s12.2-23.5,13.7-38.4-.7-50.2-1.5-59.1,1.2-20.1-8.9-21.6-23-4.5-31.7.2a65.9,65.9,0,0,0-18.7,16.2c-2.3,2.8-3.6,7-4.9,10.3-7.7,19.5-11.4,40.9-14.4,61.6-1.1,7.6-2.5,13.2,1.3,20.2A32.3,32.3,0,0,0,211.2,686.7Z" fill="#20496d"/>
        <path d="M271.6,567.9a8.9,8.9,0,0,0-5.7-2.9c-9.3-1.4-23-4.5-31.7.2a65.9,65.9,0,0,0-18.7,16.2c-2.3,2.8-3.6,7-4.9,10.3-7.7,19.5-11.4,40.9-14.4,61.6-.9,6.5-2.1,11.5,0,17.2,20.4-4.8,39.6-13.3,58.8-22.5C260.5,621.3,265.4,594.6,271.6,567.9Z" fill="#2559a7"/>
        <path d="M182.9,861.2c1.9,1.1,29.1,15.6,28.7,16.7s-6.3,12.3-8.6,18.2,0,12.7,1.9,16.8,13.6,8.2,12.4,12.5-.6,6.5-2.5,6.6c-3.4.1-21.3.2-25.2-.3s-22.6-14.2-28.4-23.1-9.3-10.7-2.6-17.1,13.7-17.1,17.1-21.6A112.4,112.4,0,0,1,182.9,861.2Z" fill="#20496d"/>
        <path d="M202,871.7c-7.9-4.5-18-9.9-19.1-10.5a112.4,112.4,0,0,0-7.2,8.7c-3.4,4.5-10.4,15.2-17.1,21.6s-3.3,8.2,2.6,17.1c4.1,6.4,14.8,15.1,22,19.8.4-9.4,1.3-18.8,3.8-27.4C189.6,890.5,196.1,881.3,202,871.7Z" fill="#2559a7"/>
        <path d="M341.6,867.4c.9-2,24.9-14.8,26-15.3s10.6,17,14.5,20,17,2,22.3,2.6,9-1.7,11.2.5,5.3,5.6,4.5,6.4-45.3,29.3-49.7,30.2-13.1-21.5-18.2-26.8S340.8,869.4,341.6,867.4Z" fill="#20496d"/>
      </g>
      <g>
        <path d="M506.8,781.4c-2,7.3-6.5,15.6-4.7,25.4,1.2,6.6,2.1,5.6,2.5,7.5s-6.5,18.2-9.1,28.3-2.6,8.9-5,11.1-7.1,4.1-12.7,14.5-13,18.5-14.5,22.4,4.3,11.7,13.4,10.4,21.4-15.3,33.9-22.7,30.8-39.5,33.6-57.9,10.3-37.6,6-40.3-29.6-11.4-34.8-10.8S507.8,777.9,506.8,781.4Z" fill="#4db6c1"/>
        <path d="M518,791c8.7,42.7-18.2,81.6-49.1,108.7a13.1,13.1,0,0,0,7.8,1.3c9.1-1.3,21.4-15.3,33.9-22.7s30.8-39.5,33.6-57.9c1.3-8.6,3.7-17.4,5.3-24.5C539.1,794.1,528.8,793,518,791Z" fill="#2f8e93"/>
        <path d="M510,794.6c-1.4,11.5-1.9,17.1,3.9,24.9s28.5,19.9,42.6,24.9,17.7,8,19.4,12.3,10.2,18.8,18.4,26.8,9.3,13,13.9,9.7,9.3-6.7,4.1-18.6-10-29.6-15.4-37.6-18.2-22.5-27-32.9-3-15.9-12.3-22.9-29.7-13.4-37.5-8.6S510.7,788.6,510,794.6Z" fill="#2f8e93"/>
        <path d="M557,831c3.5-18.7-1.2-36.9-7.8-54.7-10.1-4.6-23.2-7.4-29.1-3.7-7.9,4.8-9.4,16-10.1,22-1.4,11.5-1.9,17.1,3.9,24.9,4.5,6.1,19.4,14.9,32.5,20.8C551.9,839.3,556.2,836.5,557,831Z" fill="#4db6c1"/>
        <path d="M462.2,888.9c2,0,23.2,6.8,22.9,9.7s-3.6,5.6-4.5,8.6,1.4,4.4,3.5,6,8,3.2,9.5,4.9,1.2,5.8,1.2,6.3-18.5,1.5-26.7,1.3-13.7-5.6-17.1-8.7-4.4-5.4-2.4-8.9S460.1,888.9,462.2,888.9Z" fill="#35353e"/>
        <path d="M592.2,887.1s6.3,10.5,8.8,17.1,5.2,15.3,7,14.8,18.8-5.7,23.6-6.9,16.4-8.4,17.6-10.2a4.6,4.6,0,0,0-.7-6c-1.7-1.7-.5-3.3-4.5-2.6s-17.9-3.1-20.2-4.3-6-12.1-7.7-13.1-6.4,1.2-10.2,3.1S592.2,887.1,592.2,887.1Z" fill="#35353e"/>
        <path d="M549.8,714.4c8.4-6.5,11-18.8,17.9-18.3,10.6.9,13.1,6.2,12.9,10.3-.5,9.3-6.2,13.7-13.8,15.6C564.3,722.6,549.8,714.4,549.8,714.4Z" fill="#ba7d5d"/>
        <g>
          <path d="M607.7,677.6c24.9-8.3,29.1-19.5,16.2-20.8s-29.3.7-53.1,12.3C548.7,679.8,607.7,677.6,607.7,677.6Z" fill="#20496d"/>
          <path d="M582.3,652.8c-11.7,0-24.2,9.8-25.9,21.2s-2.8,18.1,3.3,25.1,15.5,10.8,20.8,15.3,12.5,4.8,15.1,3.7c5-2.2,10.4-10.1,12.8-19.7,3.7-14.5-.4-39.5-10.2-42.8S582.3,652.8,582.3,652.8Z" fill="#c18a6e"/>
          <path d="M598.2,655.6a48.1,48.1,0,0,0-10.5-2.5c8.7,16,14.4,33.7,3.3,49.9-4.7,6.7-11.1,5.3-16.9,7a59.1,59.1,0,0,1,6.4,4.4c5.3,4.4,12.5,4.8,15.1,3.7,5-2.2,10.4-10.1,12.8-19.7C612.1,683.9,608,658.9,598.2,655.6Z" fill="#ba7d5d"/>
          <path d="M595.4,689.2c2,2.9,2.3,2,3.4-.1s0-3.7,1.1-6.3,4.2-4.3,5-6-10.3-19.4-28.3-13.8-20.4,11.3-21.3,14.4-2.1,11.5-1.3,14.3a26.9,26.9,0,0,0,5,8.4c1.1,1,4.9-4.3,11.6-.7s7.3,5.9,11.9,2.5,6.1-3.9,5.3-6.5-1.8-6.5,1-7.7S595.4,689.2,595.4,689.2Z" fill="#35353e"/>
          <path d="M610.2,675.4c-1.7-10.2-2.9-28.6-29.3-26.9s-26.4,23.8-27,30.7c2.9,1.9,12.1,4.3,22.3,5S606,680.3,610.2,675.4Z" fill="#20496d"/>
          <path d="M602.3,654.4c-4.2-4-10.7-6.6-21.4-5.9-26.4,1.7-26.4,23.8-27,30.7,2.9,1.9,12.1,4.3,22.3,5,6.6.5,16.9-1.2,24.6-3.8C603.2,671.7,604.1,662.7,602.3,654.4Z" fill="#2559a7"/>
          <path d="M595.6,684.8c-.4-1.6-.2-3.3-3.5-3.5s-6.3,2.6-6.4,5,1,8.6,3.7,9.3a4.9,4.9,0,0,0,6-2.9C596.4,690.5,596.1,686.7,595.6,684.8Z" fill="#c18a6e"/>
          <path d="M588.6,706.9a4.5,4.5,0,0,1-5.1-1.3,5.1,5.1,0,0,0-1.4-1.8,3.5,3.5,0,0,0-4,.4c-1.2,1-1.6,2.3-2.4,3.4s-2.1,2.3-2.9,2a24.4,24.4,0,0,0,18.4-.2,5.7,5.7,0,0,0,2.7-2.1c.5-1.1,0-3-1.4-2.7S589.9,706.4,588.6,706.9Z" fill="#ba7d5d"/>
        </g>
        <path d="M517.9,781.9c-16.9-16.9-7.1-56.6,12.2-74,27.3-24.8,57.1,5.7,52.9,33.1-4.8,31.7-18.4,43.8-24.8,48C548.1,795.6,524.7,788.7,517.9,781.9Z" fill="#adcad9"/>
        <path d="M529,767a61.3,61.3,0,0,1-17.6,4.3,28.9,28.9,0,0,0,6.5,10.6c6.8,6.8,30.2,13.7,40.3,7.1,6.4-4.2,20-16.3,24.8-48a33.9,33.9,0,0,0-.7-14.2C571.9,746.6,549.2,759.2,529,767Z" fill="#6e8390"/>
        <path d="M442.7,681.8c9.4,4.8,32.7,17.7,37.9,18.8s41.7.3,59.2,2.5c0,0,13.6-.4,16.2,8.5s-4.5,17.7-25.9,17.3-49.7-7.6-54.9-10.6-36.3-26.1-39.6-28.1-3.5-7.1-1.3-8.9S440.8,680.9,442.7,681.8Z" fill="#adcad9"/>
        <path d="M579.9,714.3a10.5,10.5,0,0,1,2.7,6.6c-.1,1.5-1.1,2.4-2.4,1.3-3.4-2.8-8.5-2.3-12.5-1.2s-7.1,3.9-9.2-.7a6.9,6.9,0,0,1,.2-5.3c2.1-4.4,7.7-6.1,12.2-5.6A14.8,14.8,0,0,1,579.9,714.3Z" fill="#35353e"/>
        <path d="M552.6,695.2a10,10,0,0,1,10.2,4.4,11.2,11.2,0,0,1,0,11.3,8.4,8.4,0,0,1-4.9,3.8l1.5-4.1c.8-2.3,1.7-4.6,1.6-7s-1.4-4.9-3.6-5.7a5.9,5.9,0,0,0-5,.7,10.7,10.7,0,0,0-3.4,3.9,10.8,10.8,0,0,1-1.8,2.9c-1.2,1-3.5,1.2-3.8-.7s1.1-1.7,1.8-2.6C547.5,699.1,548.4,696.1,552.6,695.2Z" fill="#35353e"/>
        <path d="M523.7,702.1c-8.4,7.4-14.4,16.8-20.9,25.9s-11.6,17.8-12.8,28.1a41.4,41.4,0,0,0,2.4,19.1,39.6,39.6,0,0,0,4.2,8.8c2.4,3.7,8.7,4.5,12.7,5.4,7.3,1.5,16.3,3,23.4,0S546.6,776,550,767.9s5.8-19.4,11.5-27.9c2.2-3.3,5-6.3,6.5-10,2.5-6.1,1-13.3-2.6-18.7s-9.3-9.4-15.2-12.3-10.3-4.3-15.6-3.1S526.9,699.3,523.7,702.1Z" fill="#e18d58"/>
        <path d="M499.9,786.9c3.1,2,6.9,2.8,11,3.4,8.2,1.2,19.4,2.1,26.4-3.4a19.8,19.8,0,0,0,5.6-8.3,28.9,28.9,0,0,0,2-10.9c-5.9,2.1-11.1,5.4-17.5,6.5a50.6,50.6,0,0,1-18.2-.1c-7.1-1.2-13.8-3.2-19.7-7.5,0,2.6,1.4,6.1,2.3,8.6C493.4,779.7,495.7,784.3,499.9,786.9Z" fill="#35353e"/>
        <path d="M572.7,720.9c5.3-1.3,10.8,1.7,11.5,9.7s.8,14.1-5.2,23.4-17.6,22.3-21.4,30.7a95.8,95.8,0,0,0-7.9,27.2c-1.8,11.1-3.4,15.8-4.3,18s-2,3.9-4.1,3.9-7-.8-7-6.6,1.7-35.1,1.3-39,.2-10.4,2.5-14.3,16-29,19-36.8S567.2,722.2,572.7,720.9Z" fill="#adcad9"/>
      </g>
    </g>
  </g>
</svg>
